<svg width="379" height="463" viewBox="0 0 379 463" fill="none" xmlns="http://www.w3.org/2000/svg">
<g filter="url(#filter0_d_9_16)">
<rect width="371" height="455" fill="white"/>
<rect x="0.5" y="0.5" width="370" height="31" fill="white" stroke="black"/>
<circle cx="27" cy="16" r="8" fill="#DC2525"/>
<circle cx="55" cy="16" r="8" fill="#CDC615"/>
<circle cx="83" cy="16" r="8" fill="#0F8C0D"/>
<path d="M110.01 228.432C107.93 228.432 106.01 228.176 104.25 227.664C102.522 227.152 100.826 226.448 99.1623 225.552C99.4183 224.272 99.5783 222.976 99.6423 221.664C99.7063 220.352 99.7383 219.152 99.7383 218.064C100.378 217.872 101.082 217.744 101.85 217.68C102.618 217.616 103.354 217.584 104.058 217.584C104.186 219.408 104.442 220.896 104.826 222.048C105.242 223.168 105.882 223.984 106.746 224.496C107.61 225.008 108.762 225.264 110.202 225.264C112.09 225.264 113.45 224.864 114.282 224.064C115.114 223.232 115.53 222.288 115.53 221.232C115.53 220.112 115.146 219.184 114.378 218.448C113.61 217.68 112.634 217.008 111.45 216.432C110.266 215.856 109.002 215.264 107.658 214.656C106.346 214.048 105.082 213.312 103.866 212.448C102.682 211.584 101.706 210.512 100.938 209.232C100.202 207.952 99.8343 206.352 99.8343 204.432C99.8343 202.32 100.298 200.576 101.226 199.2C102.186 197.824 103.466 196.8 105.066 196.128C106.698 195.456 108.522 195.12 110.538 195.12C111.722 195.12 112.89 195.216 114.042 195.408C115.194 195.6 116.25 195.856 117.21 196.176C118.17 196.464 118.954 196.816 119.562 197.232C119.562 198.384 119.578 199.616 119.61 200.928C119.642 202.208 119.722 203.248 119.85 204.048C119.338 204.336 118.666 204.544 117.834 204.672C117.034 204.768 116.314 204.816 115.674 204.816C115.386 203.024 114.986 201.648 114.474 200.688C113.994 199.728 113.386 199.072 112.65 198.72C111.946 198.336 111.114 198.144 110.154 198.144C108.842 198.144 107.77 198.464 106.938 199.104C106.106 199.712 105.69 200.624 105.69 201.84C105.69 203.024 106.074 204.016 106.842 204.816C107.642 205.616 108.65 206.32 109.866 206.928C111.114 207.536 112.426 208.16 113.802 208.8C115.21 209.44 116.522 210.192 117.738 211.056C118.986 211.888 120.01 212.928 120.81 214.176C121.61 215.424 122.01 216.976 122.01 218.832C122.01 220.656 121.562 222.304 120.666 223.776C119.77 225.216 118.442 226.352 116.682 227.184C114.922 228.016 112.698 228.432 110.01 228.432ZM134.472 228.432C132.264 228.432 130.6 227.856 129.48 226.704C128.36 225.552 127.8 223.616 127.8 220.896V210.096C127.288 209.904 126.76 209.76 126.216 209.664C125.672 209.568 125.016 209.504 124.248 209.472C124.248 208.896 124.28 208.384 124.344 207.936C124.44 207.488 124.6 207.008 124.824 206.496H127.8V200.592C128.856 200.432 129.896 200.144 130.92 199.728C131.944 199.28 132.792 198.784 133.464 198.24C133.912 198.432 134.216 198.704 134.376 199.056C134.536 199.408 134.616 200.112 134.616 201.168V206.496H140.52C140.52 207.072 140.488 207.616 140.424 208.128C140.36 208.608 140.248 209.072 140.088 209.52C139 209.52 138.008 209.584 137.112 209.712C136.216 209.84 135.384 210.016 134.616 210.24V220.08C134.616 221.36 134.696 222.368 134.856 223.104C135.048 223.808 135.336 224.304 135.72 224.592C136.104 224.88 136.568 225.024 137.112 225.024C137.656 225.024 138.168 224.96 138.648 224.832C139.16 224.672 139.64 224.464 140.088 224.208C140.536 224.784 140.776 225.568 140.808 226.56C140.168 227.104 139.256 227.552 138.072 227.904C136.92 228.256 135.72 228.432 134.472 228.432ZM152.759 228.288C150.487 228.288 148.711 227.648 147.431 226.368C146.151 225.056 145.511 222.752 145.511 219.456V213.792C145.511 212.416 145.351 211.456 145.031 210.912C144.711 210.336 143.847 210 142.439 209.904C142.439 209.424 142.471 208.96 142.535 208.512C142.631 208.032 142.775 207.584 142.967 207.168C144.663 207.168 146.231 207.008 147.671 206.688C149.143 206.336 150.247 205.968 150.983 205.584C151.431 205.744 151.767 206.032 151.991 206.448C152.247 206.832 152.375 207.408 152.375 208.176V218.304C152.375 220.448 152.599 221.984 153.047 222.912C153.527 223.84 154.295 224.304 155.351 224.304C156.631 224.304 157.735 223.68 158.663 222.432C159.591 221.152 160.055 219.216 160.055 216.624V213.552C160.055 212.176 159.847 211.216 159.431 210.672C159.047 210.096 158.103 209.76 156.599 209.664C156.599 209.184 156.615 208.72 156.647 208.272C156.711 207.792 156.855 207.344 157.079 206.928C158.903 206.928 160.583 206.8 162.119 206.544C163.655 206.256 164.791 205.936 165.527 205.584C165.975 205.744 166.311 206.032 166.535 206.448C166.791 206.832 166.919 207.408 166.919 208.176V221.568L160.967 223.296C160.775 223.872 160.519 224.384 160.199 224.832C159.911 225.28 159.591 225.68 159.239 226.032C158.503 226.704 157.607 227.248 156.551 227.664C155.495 228.08 154.231 228.288 152.759 228.288ZM162.167 228.432C161.655 228.208 161.271 227.904 161.015 227.52C160.791 227.136 160.679 226.528 160.679 225.696C160.679 225.184 160.727 224.592 160.823 223.92C160.919 223.216 161.063 222.496 161.255 221.76L166.919 219.984C166.919 220.976 166.983 221.76 167.111 222.336C167.239 222.88 167.495 223.264 167.879 223.488C168.295 223.712 168.919 223.824 169.751 223.824C169.815 224.336 169.815 224.864 169.751 225.408C169.687 225.92 169.543 226.4 169.319 226.848C168.167 226.88 166.951 227.04 165.671 227.328C164.391 227.584 163.223 227.952 162.167 228.432ZM185.8 205.584C186.536 205.584 187.208 205.648 187.816 205.776C188.456 205.872 189.128 206.016 189.832 206.208V210.672C189.256 209.968 188.648 209.424 188.008 209.04C187.4 208.624 186.632 208.416 185.704 208.416C185.096 208.416 184.44 208.544 183.736 208.8C183.064 209.024 182.424 209.456 181.816 210.096C181.208 210.704 180.712 211.6 180.328 212.784C179.944 213.936 179.752 215.424 179.752 217.248C179.752 218.752 179.944 220.048 180.328 221.136C180.744 222.224 181.288 223.072 181.96 223.68C182.632 224.256 183.4 224.544 184.264 224.544C185.096 224.544 185.896 224.288 186.664 223.776C187.432 223.232 188.056 222.368 188.536 221.184C189.048 219.968 189.304 218.368 189.304 216.384L191.176 221.28C190.664 222.528 190.184 223.504 189.736 224.208C189.288 224.88 188.856 225.392 188.44 225.744C188.12 226.128 187.64 226.528 187 226.944C186.392 227.36 185.672 227.712 184.84 228C184.008 228.288 183.096 228.432 182.104 228.432C180.28 228.432 178.648 228.08 177.208 227.376C175.8 226.672 174.696 225.568 173.896 224.064C173.096 222.56 172.696 220.624 172.696 218.256C172.696 215.824 173.24 213.648 174.328 211.728C175.416 209.808 176.936 208.304 178.888 207.216C180.872 206.128 183.176 205.584 185.8 205.584ZM196.12 219.984C196.12 220.976 196.184 221.76 196.312 222.336C196.44 222.88 196.712 223.264 197.128 223.488C197.544 223.712 198.152 223.824 198.952 223.824C199.016 224.336 199.016 224.864 198.952 225.408C198.888 225.92 198.744 226.4 198.52 226.848C197.368 226.88 196.152 227.04 194.872 227.328C193.624 227.584 192.472 227.952 191.416 228.432C190.904 228.208 190.52 227.904 190.264 227.52C190.008 227.136 189.88 226.528 189.88 225.696C189.88 225.056 189.944 224.416 190.072 223.776C190.232 223.136 190.44 222.384 190.696 221.52L196.12 219.984ZM196.12 200.592V221.76H189.304V200.592H196.12ZM194.728 193.584C195.144 193.744 195.48 194.032 195.736 194.448C195.992 194.832 196.12 195.392 196.12 196.128V202.224H189.304V201.312C189.304 200.544 189.208 199.92 189.016 199.44C188.856 198.96 188.52 198.608 188.008 198.384C187.496 198.128 186.728 197.968 185.704 197.904C185.704 197.424 185.736 196.96 185.8 196.512C185.896 196.032 186.04 195.584 186.232 195.168C187.32 195.168 188.424 195.088 189.544 194.928C190.664 194.768 191.688 194.576 192.616 194.352C193.576 194.096 194.28 193.84 194.728 193.584ZM213.514 228.432C210.794 228.432 208.586 227.936 206.89 226.944C205.194 225.952 203.946 224.608 203.146 222.912C202.346 221.184 201.946 219.264 201.946 217.152C201.946 214.88 202.394 212.88 203.29 211.152C204.186 209.424 205.466 208.064 207.13 207.072C208.826 206.08 210.794 205.584 213.034 205.584C215.338 205.584 217.21 206.032 218.65 206.928C220.122 207.792 221.21 209.008 221.914 210.576C222.618 212.112 223.018 213.856 223.114 215.808C222.89 216.736 222.49 217.488 221.914 218.064C221.114 218.064 220.138 218.08 218.986 218.112C217.834 218.112 216.586 218.128 215.242 218.16C213.93 218.16 212.586 218.192 211.21 218.256C209.866 218.288 208.586 218.352 207.37 218.448V215.28H216.586C216.586 213.136 216.266 211.488 215.626 210.336C215.018 209.152 214.122 208.56 212.938 208.56C212.17 208.56 211.482 208.816 210.874 209.328C210.266 209.808 209.786 210.592 209.434 211.68C209.082 212.736 208.906 214.128 208.906 215.856C208.906 217.488 209.114 218.992 209.53 220.368C209.946 221.744 210.634 222.832 211.594 223.632C212.586 224.432 213.93 224.832 215.626 224.832C216.714 224.832 217.802 224.624 218.89 224.208C219.978 223.792 220.906 223.248 221.674 222.576C221.962 222.736 222.234 223.056 222.49 223.536C222.746 224.016 222.874 224.496 222.874 224.976C221.69 226.16 220.33 227.04 218.794 227.616C217.258 228.16 215.498 228.432 213.514 228.432ZM229.965 217.968V213.792C229.965 212.864 229.885 212.144 229.725 211.632C229.597 211.088 229.277 210.688 228.765 210.432C228.285 210.144 227.517 209.968 226.461 209.904C226.461 209.424 226.493 208.96 226.557 208.512C226.653 208.032 226.813 207.584 227.037 207.168C228.733 207.168 230.365 207.008 231.933 206.688C233.533 206.336 234.701 205.968 235.437 205.584C235.885 205.744 236.221 206.032 236.445 206.448C236.701 206.832 236.829 207.408 236.829 208.176L229.965 217.968ZM252.045 221.04C252.045 222.64 252.221 223.744 252.573 224.352C252.957 224.928 253.581 225.216 254.445 225.216C254.605 225.6 254.701 226.032 254.733 226.512C254.797 226.96 254.829 227.504 254.829 228.144C254.125 228.112 253.213 228.08 252.093 228.048C251.005 228.016 249.933 228 248.877 228C248.173 228 247.373 228 246.477 228C245.613 228.032 244.781 228.048 243.981 228.048C243.181 228.08 242.541 228.112 242.061 228.144C242.061 227.568 242.077 227.04 242.109 226.56C242.141 226.08 242.237 225.632 242.397 225.216C243.293 225.216 243.981 224.896 244.461 224.256C244.941 223.616 245.181 222.448 245.181 220.752V215.52C245.181 213.504 244.861 212.112 244.221 211.344C243.581 210.544 242.669 210.144 241.485 210.144C240.717 210.144 239.965 210.448 239.229 211.056C238.525 211.632 237.949 212.496 237.501 213.648C237.053 214.768 236.829 216.176 236.829 217.872V221.04C236.829 222.672 237.037 223.776 237.453 224.352C237.901 224.928 238.605 225.216 239.565 225.216C239.757 225.664 239.869 226.112 239.901 226.56C239.933 227.008 239.949 227.536 239.949 228.144C239.501 228.112 238.893 228.08 238.125 228.048C237.357 228.048 236.557 228.032 235.725 228C234.925 228 234.157 228 233.421 228C232.685 228 231.869 228 230.973 228C230.077 228.032 229.213 228.048 228.381 228.048C227.549 228.08 226.893 228.112 226.413 228.144C226.413 227.536 226.445 226.976 226.509 226.464C226.573 225.952 226.669 225.536 226.797 225.216C228.045 225.216 228.877 224.928 229.293 224.352C229.741 223.744 229.965 222.64 229.965 221.04V213.792L236.829 208.176C236.829 208.56 236.781 209.008 236.685 209.52C236.621 210 236.509 210.512 236.349 211.056C236.541 210.672 236.733 210.288 236.925 209.904C237.117 209.52 237.373 209.152 237.693 208.8C238.333 208.064 239.229 207.392 240.381 206.784C241.533 206.144 242.861 205.824 244.365 205.824C245.709 205.824 246.957 206.08 248.109 206.592C249.293 207.104 250.237 207.936 250.941 209.088C251.677 210.24 252.045 211.76 252.045 213.648V221.04ZM266.847 228.432C264.639 228.432 262.975 227.856 261.855 226.704C260.735 225.552 260.175 223.616 260.175 220.896V210.096C259.663 209.904 259.135 209.76 258.591 209.664C258.047 209.568 257.391 209.504 256.623 209.472C256.623 208.896 256.655 208.384 256.719 207.936C256.815 207.488 256.975 207.008 257.199 206.496H260.175V200.592C261.231 200.432 262.271 200.144 263.295 199.728C264.319 199.28 265.167 198.784 265.839 198.24C266.287 198.432 266.591 198.704 266.751 199.056C266.911 199.408 266.991 200.112 266.991 201.168V206.496H272.895C272.895 207.072 272.863 207.616 272.799 208.128C272.735 208.608 272.623 209.072 272.463 209.52C271.375 209.52 270.383 209.584 269.487 209.712C268.591 209.84 267.759 210.016 266.991 210.24V220.08C266.991 221.36 267.071 222.368 267.231 223.104C267.423 223.808 267.711 224.304 268.095 224.592C268.479 224.88 268.943 225.024 269.487 225.024C270.031 225.024 270.543 224.96 271.023 224.832C271.535 224.672 272.015 224.464 272.463 224.208C272.911 224.784 273.151 225.568 273.183 226.56C272.543 227.104 271.631 227.552 270.447 227.904C269.295 228.256 268.095 228.432 266.847 228.432ZM53.104 295.432C51.024 295.432 49.104 295.176 47.344 294.664C45.616 294.152 43.92 293.448 42.256 292.552C42.512 291.272 42.672 289.976 42.736 288.664C42.8 287.352 42.832 286.152 42.832 285.064C43.472 284.872 44.176 284.744 44.944 284.68C45.712 284.616 46.448 284.584 47.152 284.584C47.28 286.408 47.536 287.896 47.92 289.048C48.336 290.168 48.976 290.984 49.84 291.496C50.704 292.008 51.856 292.264 53.296 292.264C55.184 292.264 56.544 291.864 57.376 291.064C58.208 290.232 58.624 289.288 58.624 288.232C58.624 287.112 58.24 286.184 57.472 285.448C56.704 284.68 55.728 284.008 54.544 283.432C53.36 282.856 52.096 282.264 50.752 281.656C49.44 281.048 48.176 280.312 46.96 279.448C45.776 278.584 44.8 277.512 44.032 276.232C43.296 274.952 42.928 273.352 42.928 271.432C42.928 269.32 43.392 267.576 44.32 266.2C45.28 264.824 46.56 263.8 48.16 263.128C49.792 262.456 51.616 262.12 53.632 262.12C54.816 262.12 55.984 262.216 57.136 262.408C58.288 262.6 59.344 262.856 60.304 263.176C61.264 263.464 62.048 263.816 62.656 264.232C62.656 265.384 62.672 266.616 62.704 267.928C62.736 269.208 62.816 270.248 62.944 271.048C62.432 271.336 61.76 271.544 60.928 271.672C60.128 271.768 59.408 271.816 58.768 271.816C58.48 270.024 58.08 268.648 57.568 267.688C57.088 266.728 56.48 266.072 55.744 265.72C55.04 265.336 54.208 265.144 53.248 265.144C51.936 265.144 50.864 265.464 50.032 266.104C49.2 266.712 48.784 267.624 48.784 268.84C48.784 270.024 49.168 271.016 49.936 271.816C50.736 272.616 51.744 273.32 52.96 273.928C54.208 274.536 55.52 275.16 56.896 275.8C58.304 276.44 59.616 277.192 60.832 278.056C62.08 278.888 63.104 279.928 63.904 281.176C64.704 282.424 65.104 283.976 65.104 285.832C65.104 287.656 64.656 289.304 63.76 290.776C62.864 292.216 61.536 293.352 59.776 294.184C58.016 295.016 55.792 295.432 53.104 295.432ZM68.3976 306.76C68.3976 306.088 68.4136 305.512 68.4456 305.032C68.5096 304.584 68.5896 304.184 68.6856 303.832C69.5496 303.768 70.2216 303.608 70.7016 303.352C71.1816 303.096 71.5016 302.616 71.6616 301.912C71.8536 301.24 71.9496 300.28 71.9496 299.032V280.792C71.9496 279.864 71.8696 279.144 71.7096 278.632C71.5816 278.088 71.2616 277.688 70.7496 277.432C70.2696 277.144 69.5016 276.968 68.4456 276.904C68.4456 276.424 68.4776 275.96 68.5416 275.512C68.6376 275.032 68.7976 274.584 69.0216 274.168C70.7176 274.168 72.3496 274.008 73.9176 273.688C75.5176 273.336 76.6856 272.968 77.4216 272.584C77.8696 272.744 78.2056 273.032 78.4296 273.448C78.6856 273.832 78.8136 274.408 78.8136 275.176C78.8136 275.656 78.7176 276.184 78.5256 276.76C78.3656 277.304 78.1256 277.992 77.8056 278.824L78.8136 279.832V298.312C78.8136 299.688 78.9576 300.76 79.2456 301.528C79.5656 302.296 80.0616 302.84 80.7336 303.16C81.4376 303.512 82.3816 303.736 83.5656 303.832C83.7256 304.216 83.8216 304.664 83.8536 305.176C83.8856 305.688 83.9016 306.216 83.9016 306.76C83.3576 306.728 82.6696 306.696 81.8376 306.664C81.0376 306.664 80.1736 306.648 79.2456 306.616C78.3176 306.616 77.4056 306.616 76.5096 306.616C75.0696 306.616 73.5816 306.616 72.0456 306.616C70.5096 306.648 69.2936 306.696 68.3976 306.76ZM82.3176 295.432C81.5816 295.432 80.9096 295.368 80.3016 295.24C79.6936 295.144 79.0216 295 78.2856 294.808V290.344C78.8296 291.048 79.4216 291.608 80.0616 292.024C80.7016 292.408 81.4856 292.6 82.4136 292.6C82.9896 292.6 83.6136 292.488 84.2856 292.264C84.9896 292.008 85.6456 291.576 86.2536 290.968C86.8936 290.328 87.4056 289.432 87.7896 288.28C88.1736 287.096 88.3656 285.592 88.3656 283.768C88.3656 282.424 88.1896 281.208 87.8376 280.12C87.5176 279 87.0216 278.12 86.3496 277.48C85.6776 276.808 84.8296 276.472 83.8056 276.472C83.0056 276.472 82.2216 276.744 81.4536 277.288C80.6856 277.8 80.0456 278.664 79.5336 279.88C79.0536 281.064 78.8136 282.648 78.8136 284.632L76.9416 279.736C77.4536 278.488 77.9336 277.528 78.3816 276.856C78.8296 276.152 79.2456 275.624 79.6296 275.272C79.9816 274.856 80.4616 274.456 81.0696 274.072C81.7096 273.656 82.4456 273.304 83.2776 273.016C84.1096 272.728 85.0056 272.584 85.9656 272.584C87.8536 272.584 89.4856 272.936 90.8616 273.64C92.2696 274.344 93.3736 275.432 94.1736 276.904C95.0056 278.344 95.4216 280.216 95.4216 282.52C95.4216 285.048 94.8616 287.288 93.7416 289.24C92.6536 291.192 91.1336 292.712 89.1816 293.8C87.2296 294.888 84.9416 295.432 82.3176 295.432ZM110.295 295.432C107.575 295.432 105.367 294.936 103.671 293.944C101.975 292.952 100.727 291.608 99.9269 289.912C99.1269 288.184 98.7269 286.264 98.7269 284.152C98.7269 281.88 99.1749 279.88 100.071 278.152C100.967 276.424 102.247 275.064 103.911 274.072C105.607 273.08 107.575 272.584 109.815 272.584C112.119 272.584 113.991 273.032 115.431 273.928C116.903 274.792 117.991 276.008 118.695 277.576C119.399 279.112 119.799 280.856 119.895 282.808C119.671 283.736 119.271 284.488 118.695 285.064C117.895 285.064 116.919 285.08 115.767 285.112C114.615 285.112 113.367 285.128 112.023 285.16C110.711 285.16 109.367 285.192 107.991 285.256C106.647 285.288 105.367 285.352 104.151 285.448V282.28H113.367C113.367 280.136 113.047 278.488 112.407 277.336C111.799 276.152 110.903 275.56 109.719 275.56C108.951 275.56 108.263 275.816 107.655 276.328C107.047 276.808 106.567 277.592 106.215 278.68C105.863 279.736 105.687 281.128 105.687 282.856C105.687 284.488 105.895 285.992 106.311 287.368C106.727 288.744 107.415 289.832 108.375 290.632C109.367 291.432 110.711 291.832 112.407 291.832C113.495 291.832 114.583 291.624 115.671 291.208C116.759 290.792 117.687 290.248 118.455 289.576C118.743 289.736 119.015 290.056 119.271 290.536C119.527 291.016 119.655 291.496 119.655 291.976C118.471 293.16 117.111 294.04 115.575 294.616C114.039 295.16 112.279 295.432 110.295 295.432ZM142.779 292.168C141.915 293.224 140.795 294.04 139.419 294.616C138.043 295.16 136.459 295.432 134.667 295.432C132.491 295.432 130.539 295.016 128.811 294.184C127.115 293.352 125.755 292.104 124.73 290.44C123.738 288.776 123.243 286.664 123.243 284.104C123.243 282.184 123.659 280.344 124.491 278.584C125.323 276.824 126.555 275.384 128.187 274.264C129.851 273.144 131.899 272.584 134.331 272.584C136.059 272.584 137.563 272.76 138.843 273.112C140.155 273.432 141.323 273.928 142.347 274.6C142.155 275.496 142.027 276.424 141.963 277.384C141.899 278.312 141.867 279.352 141.867 280.504C141.355 280.728 140.763 280.888 140.091 280.984C139.419 281.08 138.779 281.128 138.171 281.128C138.075 279.272 137.675 277.864 136.971 276.904C136.299 275.944 135.403 275.464 134.283 275.464C132.939 275.464 131.899 276.184 131.163 277.624C130.427 279.064 130.059 281 130.059 283.432C130.059 284.808 130.283 286.152 130.731 287.464C131.211 288.744 131.931 289.8 132.891 290.632C133.851 291.432 135.083 291.832 136.587 291.832C137.611 291.832 138.539 291.672 139.371 291.352C140.235 291 140.987 290.52 141.627 289.912C141.915 290.168 142.155 290.488 142.347 290.872C142.571 291.256 142.715 291.688 142.779 292.168ZM145.554 295.144C145.554 294.568 145.57 294.04 145.602 293.56C145.666 293.048 145.762 292.6 145.89 292.216C147.17 292.184 148.018 291.88 148.434 291.304C148.882 290.728 149.106 289.64 149.106 288.04V280.312C149.106 279.544 149.026 278.92 148.866 278.44C148.706 277.96 148.37 277.608 147.858 277.384C147.346 277.128 146.578 276.968 145.554 276.904C145.554 276.424 145.586 275.96 145.65 275.512C145.714 275.032 145.858 274.584 146.082 274.168C147.138 274.168 148.226 274.088 149.346 273.928C150.498 273.768 151.538 273.576 152.466 273.352C153.426 273.096 154.13 272.84 154.578 272.584C154.994 272.744 155.33 273.032 155.586 273.448C155.842 273.832 155.97 274.392 155.97 275.128V288.04C155.97 289.64 156.178 290.728 156.594 291.304C157.01 291.88 157.794 292.184 158.946 292.216C159.074 292.6 159.154 293.064 159.186 293.608C159.25 294.12 159.282 294.632 159.282 295.144C158.802 295.112 158.194 295.08 157.458 295.048C156.722 295.048 155.922 295.032 155.058 295C154.194 295 153.33 295 152.466 295C151.602 295 150.722 295 149.826 295C148.93 295.032 148.114 295.048 147.378 295.048C146.642 295.08 146.034 295.112 145.554 295.144ZM151.938 268.792C150.786 268.792 149.842 268.488 149.106 267.88C148.402 267.24 148.05 266.424 148.05 265.432C148.05 264.28 148.45 263.384 149.25 262.744C150.05 262.104 151.01 261.784 152.13 261.784C153.442 261.784 154.45 262.104 155.154 262.744C155.858 263.384 156.21 264.264 156.21 265.384C156.21 266.344 155.826 267.16 155.058 267.832C154.29 268.472 153.25 268.792 151.938 268.792ZM162.524 295.144C162.524 294.536 162.54 293.992 162.572 293.512C162.604 293.032 162.684 292.6 162.812 292.216C163.676 292.152 164.332 291.992 164.78 291.736C165.26 291.48 165.596 291.016 165.788 290.344C165.98 289.672 166.076 288.728 166.076 287.512V277.192C165.628 277 165.036 276.84 164.3 276.712C163.564 276.552 162.908 276.472 162.332 276.472C162.332 275.896 162.38 275.368 162.476 274.888C162.604 274.376 162.796 273.912 163.052 273.496H166.076V271.768C166.076 269.624 166.604 267.72 167.66 266.056C168.748 264.36 170.332 263.032 172.412 262.072C174.492 261.112 177.036 260.632 180.044 260.632C182.412 260.632 184.3 260.808 185.708 261.16C187.148 261.512 188.316 261.88 189.212 262.264C189.052 263.256 188.94 264.2 188.876 265.096C188.844 265.992 188.828 266.888 188.828 267.784C188.092 268.168 187.164 268.456 186.044 268.648C184.956 268.808 183.836 268.856 182.684 268.792C182.62 267.608 182.444 266.648 182.156 265.912C181.868 265.144 181.436 264.584 180.86 264.232C180.284 263.88 179.468 263.704 178.412 263.704C176.364 263.704 174.924 264.264 174.092 265.384C173.292 266.504 172.892 268.136 172.892 270.28V273.496H180.908C182.188 273.464 183.564 273.384 185.036 273.256C186.54 273.096 187.852 272.872 188.972 272.584C189.356 272.744 189.676 273.016 189.932 273.4C190.22 273.752 190.364 274.28 190.364 274.984V288.04C190.364 289.704 190.588 290.808 191.036 291.352C191.516 291.864 192.284 292.152 193.34 292.216C193.468 292.6 193.548 293.048 193.58 293.56C193.644 294.072 193.676 294.6 193.676 295.144C193.196 295.112 192.556 295.08 191.756 295.048C190.988 295.048 190.156 295.032 189.26 295C188.396 295 187.58 295 186.812 295C186.076 295 185.276 295 184.412 295C183.548 295 182.732 295 181.964 295C181.196 295.032 180.54 295.08 179.996 295.144C179.996 294.536 180.012 293.992 180.044 293.512C180.108 293 180.188 292.568 180.284 292.216C181.564 292.152 182.428 291.848 182.876 291.304C183.324 290.76 183.548 289.688 183.548 288.088V280.504C183.548 279.608 183.436 278.872 183.212 278.296C182.988 277.72 182.524 277.304 181.82 277.048C181.148 276.76 180.14 276.616 178.796 276.616C178.188 276.616 177.468 276.648 176.636 276.712C175.836 276.744 175.084 276.808 174.38 276.904C173.708 277 173.212 277.096 172.892 277.192V287.128C172.892 288.408 172.988 289.4 173.18 290.104C173.372 290.808 173.708 291.32 174.188 291.64C174.7 291.928 175.372 292.12 176.204 292.216C176.332 292.6 176.412 293.048 176.444 293.56C176.476 294.04 176.492 294.568 176.492 295.144C175.692 295.08 174.7 295.032 173.516 295C172.364 295 171.148 295 169.868 295C168.588 295 167.228 295 165.788 295C164.348 295.032 163.26 295.08 162.524 295.144ZM215.716 292.168C214.852 293.224 213.732 294.04 212.356 294.616C210.98 295.16 209.396 295.432 207.604 295.432C205.428 295.432 203.476 295.016 201.748 294.184C200.052 293.352 198.692 292.104 197.668 290.44C196.676 288.776 196.18 286.664 196.18 284.104C196.18 282.184 196.596 280.344 197.428 278.584C198.26 276.824 199.492 275.384 201.124 274.264C202.788 273.144 204.836 272.584 207.268 272.584C208.996 272.584 210.5 272.76 211.78 273.112C213.092 273.432 214.26 273.928 215.284 274.6C215.092 275.496 214.964 276.424 214.9 277.384C214.836 278.312 214.804 279.352 214.804 280.504C214.292 280.728 213.7 280.888 213.028 280.984C212.356 281.08 211.716 281.128 211.108 281.128C211.012 279.272 210.612 277.864 209.908 276.904C209.236 275.944 208.34 275.464 207.22 275.464C205.876 275.464 204.836 276.184 204.1 277.624C203.364 279.064 202.996 281 202.996 283.432C202.996 284.808 203.22 286.152 203.668 287.464C204.148 288.744 204.868 289.8 205.828 290.632C206.788 291.432 208.02 291.832 209.524 291.832C210.548 291.832 211.476 291.672 212.308 291.352C213.172 291 213.924 290.52 214.564 289.912C214.852 290.168 215.092 290.488 215.284 290.872C215.508 291.256 215.652 291.688 215.716 292.168ZM236.71 265.432C235.366 265.432 234.294 265.672 233.494 266.152C232.726 266.632 232.134 267.32 231.718 268.216C231.302 269.08 230.95 270.152 230.662 271.432C230.022 271.432 229.366 271.4 228.694 271.336C228.022 271.272 227.446 271.112 226.966 270.856C227.286 269.544 227.526 268.12 227.686 266.584C227.878 265.016 227.974 263.624 227.974 262.408C229.094 262.44 230.31 262.472 231.622 262.504C232.934 262.536 234.39 262.552 235.99 262.552C237.622 262.552 239.51 262.552 241.654 262.552C243.638 262.552 245.446 262.552 247.078 262.552C248.71 262.52 250.198 262.504 251.542 262.504C252.918 262.472 254.15 262.44 255.238 262.408C255.238 263.656 255.302 265 255.43 266.44C255.558 267.88 255.75 269.352 256.006 270.856C255.494 271.048 254.918 271.208 254.278 271.336C253.67 271.432 252.982 271.464 252.214 271.432C251.99 269.416 251.462 267.912 250.63 266.92C249.83 265.928 248.55 265.432 246.79 265.432H236.71ZM237.91 264.04H245.11V287.416C245.11 288.664 245.206 289.64 245.398 290.344C245.622 291.016 246.038 291.48 246.646 291.736C247.254 291.992 248.15 292.152 249.334 292.216C249.462 292.536 249.558 292.968 249.622 293.512C249.686 294.056 249.718 294.6 249.718 295.144C248.758 295.08 247.59 295.032 246.214 295C244.838 295 243.366 295 241.798 295C240.774 295 239.702 295 238.582 295C237.462 295.032 236.422 295.048 235.462 295.048C234.502 295.08 233.686 295.112 233.014 295.144C233.014 294.632 233.046 294.104 233.11 293.56C233.206 293.016 233.318 292.568 233.446 292.216C234.63 292.152 235.542 291.992 236.182 291.736C236.854 291.48 237.302 291.016 237.526 290.344C237.782 289.64 237.91 288.664 237.91 287.416V264.04ZM271.316 295.432C270.772 295.208 270.388 294.888 270.164 294.472C269.94 294.024 269.828 293.416 269.828 292.648C269.828 292.264 269.86 291.816 269.924 291.304C269.988 290.76 270.1 290.248 270.26 289.768L270.404 289.624C270.18 290.456 269.86 291.224 269.444 291.928C269.028 292.6 268.532 293.16 267.956 293.608C267.316 294.184 266.532 294.616 265.604 294.904C264.708 295.192 263.636 295.336 262.388 295.336C260.244 295.336 258.58 294.872 257.396 293.944C256.212 293.016 255.62 291.688 255.62 289.96C255.62 288.744 255.892 287.704 256.436 286.84C257.012 285.944 257.78 285.192 258.74 284.584C259.7 283.976 260.772 283.48 261.956 283.096C263.14 282.712 264.34 282.408 265.556 282.184C266.804 281.96 267.972 281.768 269.06 281.608C269.06 280.68 269.028 279.912 268.964 279.304C268.932 278.664 268.836 278.136 268.676 277.72C268.548 277.272 268.324 276.888 268.004 276.568C267.652 276.12 267.236 275.816 266.756 275.656C266.308 275.464 265.828 275.368 265.316 275.368C264.42 275.368 263.7 275.64 263.156 276.184C262.644 276.696 262.26 277.368 262.004 278.2C261.748 279.032 261.588 279.88 261.524 280.744C260.756 280.744 260.036 280.712 259.364 280.648C258.692 280.584 258.1 280.456 257.588 280.264C257.652 279.4 257.668 278.472 257.636 277.48C257.604 276.488 257.492 275.496 257.3 274.504C258.644 273.896 260.18 273.416 261.908 273.064C263.668 272.712 265.316 272.536 266.852 272.536C268.676 272.536 270.148 272.76 271.268 273.208C272.388 273.624 273.236 274.12 273.812 274.696C274.484 275.4 274.996 276.36 275.348 277.576C275.732 278.76 275.924 280.472 275.924 282.712V286.888C275.924 287.912 275.988 288.712 276.116 289.288C276.244 289.832 276.5 290.216 276.884 290.44C277.3 290.664 277.924 290.792 278.756 290.824C278.82 291.336 278.82 291.864 278.756 292.408C278.692 292.92 278.548 293.4 278.324 293.848C277.172 293.88 275.972 294.04 274.724 294.328C273.508 294.584 272.372 294.952 271.316 295.432ZM264.788 291.352C265.428 291.352 266.084 291.144 266.756 290.728C267.428 290.28 267.972 289.624 268.388 288.76C268.836 287.896 269.06 286.792 269.06 285.448V284.152C268.132 284.312 267.252 284.504 266.42 284.728C265.62 284.952 264.916 285.24 264.308 285.592C263.732 285.912 263.284 286.328 262.964 286.84C262.644 287.32 262.484 287.928 262.484 288.664C262.484 289.624 262.708 290.312 263.156 290.728C263.636 291.144 264.18 291.352 264.788 291.352ZM290.031 290.344C290.575 291.048 291.167 291.608 291.807 292.024C292.447 292.408 293.231 292.6 294.159 292.6C294.767 292.6 295.407 292.488 296.079 292.264C296.751 292.008 297.391 291.56 297.999 290.92C298.639 290.28 299.151 289.384 299.535 288.232C299.919 287.08 300.111 285.592 300.111 283.768C300.111 282.264 299.903 280.968 299.487 279.88C299.103 278.792 298.575 277.96 297.903 277.384C297.231 276.776 296.463 276.472 295.599 276.472C294.767 276.472 293.967 276.744 293.199 277.288C292.431 277.8 291.791 278.664 291.279 279.88C290.799 281.064 290.559 282.664 290.559 284.68V291.784L290.031 290.344ZM294.111 295.432C292.479 295.432 290.911 295.288 289.407 295C287.903 294.712 286.559 294.312 285.375 293.8C284.223 293.256 283.311 292.664 282.639 292.024C283.023 291.544 283.295 290.904 283.455 290.104C283.647 289.304 283.743 288.168 283.743 286.696V268.312C283.743 267.544 283.647 266.92 283.455 266.44C283.295 265.96 282.959 265.608 282.447 265.384C281.935 265.128 281.167 264.968 280.143 264.904C280.143 264.424 280.175 263.96 280.239 263.512C280.335 263.032 280.479 262.584 280.671 262.168C281.759 262.168 282.863 262.088 283.983 261.928C285.135 261.768 286.175 261.576 287.103 261.352C288.031 261.096 288.719 260.84 289.167 260.584C289.583 260.744 289.919 261.032 290.175 261.448C290.431 261.832 290.559 262.392 290.559 263.128V273.448C290.559 274.28 290.527 274.952 290.463 275.464C290.399 275.976 290.303 276.52 290.175 277.096L289.743 280.648L288.687 279.736C289.199 278.488 289.679 277.528 290.127 276.856C290.575 276.152 290.991 275.624 291.375 275.272C291.727 274.856 292.207 274.456 292.815 274.072C293.455 273.656 294.191 273.304 295.023 273.016C295.887 272.728 296.799 272.584 297.759 272.584C299.615 272.584 301.247 272.936 302.655 273.64C304.063 274.344 305.167 275.448 305.967 276.952C306.767 278.456 307.167 280.392 307.167 282.76C307.167 285.192 306.623 287.368 305.535 289.288C304.447 291.208 302.927 292.712 300.975 293.8C299.023 294.888 296.735 295.432 294.111 295.432ZM327.5 274.12C327.468 274.92 327.452 275.768 327.452 276.664C327.484 277.528 327.564 278.376 327.692 279.208C327.244 279.464 326.7 279.672 326.06 279.832C325.42 279.992 324.748 280.072 324.044 280.072C323.98 279.24 323.756 278.488 323.372 277.816C323.02 277.112 322.508 276.552 321.836 276.136C321.196 275.688 320.396 275.464 319.436 275.464C318.7 275.464 318.108 275.656 317.66 276.04C317.212 276.424 316.988 276.92 316.988 277.528C316.988 277.976 317.1 278.392 317.324 278.776C317.548 279.128 318.028 279.528 318.764 279.976C319.532 280.392 320.684 280.92 322.22 281.56C324.044 282.296 325.468 283 326.492 283.672C327.516 284.312 328.236 285.032 328.652 285.832C329.1 286.6 329.324 287.528 329.324 288.616C329.324 290.056 328.908 291.288 328.076 292.312C327.276 293.336 326.124 294.12 324.62 294.664C323.116 295.176 321.34 295.432 319.292 295.432C317.308 295.432 315.676 295.288 314.396 295C313.116 294.712 311.868 294.296 310.652 293.752C310.716 293.144 310.764 292.488 310.796 291.784C310.828 291.048 310.828 290.328 310.796 289.624C310.796 288.92 310.764 288.312 310.7 287.8C311.148 287.512 311.724 287.304 312.428 287.176C313.132 287.048 313.804 286.984 314.444 286.984C314.636 288.776 315.148 290.12 315.98 291.016C316.844 291.912 317.932 292.36 319.244 292.36C320.204 292.36 320.972 292.152 321.548 291.736C322.124 291.288 322.412 290.696 322.412 289.96C322.412 289.448 322.284 289.016 322.028 288.664C321.804 288.28 321.356 287.896 320.684 287.512C320.044 287.128 319.084 286.68 317.804 286.168C316.3 285.592 315.036 285 314.012 284.392C312.988 283.784 312.204 283.048 311.66 282.184C311.116 281.288 310.844 280.152 310.844 278.776C310.844 277.72 311.084 276.808 311.564 276.04C312.044 275.272 312.7 274.632 313.532 274.12C314.396 273.608 315.356 273.224 316.412 272.968C317.5 272.712 318.636 272.584 319.82 272.584C321.516 272.584 322.956 272.712 324.14 272.968C325.324 273.224 326.444 273.608 327.5 274.12Z" fill="#354F52"/>
<rect x="105.5" y="393.5" width="160" height="35" fill="#CAD2C5" stroke="black"/>
<path d="M152.754 413.938C152.43 414.334 152.01 414.64 151.494 414.856C150.978 415.06 150.384 415.162 149.712 415.162C148.896 415.162 148.164 415.006 147.516 414.694C146.88 414.382 146.37 413.914 145.986 413.29C145.614 412.666 145.428 411.874 145.428 410.914C145.428 410.194 145.584 409.504 145.896 408.844C146.208 408.184 146.67 407.644 147.282 407.224C147.906 406.804 148.674 406.594 149.586 406.594C150.234 406.594 150.798 406.66 151.278 406.792C151.77 406.912 152.208 407.098 152.592 407.35C152.52 407.686 152.472 408.034 152.448 408.394C152.424 408.742 152.412 409.132 152.412 409.564C152.22 409.648 151.998 409.708 151.746 409.744C151.494 409.78 151.254 409.798 151.026 409.798C150.99 409.102 150.84 408.574 150.576 408.214C150.324 407.854 149.988 407.674 149.568 407.674C149.064 407.674 148.674 407.944 148.398 408.484C148.122 409.024 147.984 409.75 147.984 410.662C147.984 411.178 148.068 411.682 148.236 412.174C148.416 412.654 148.686 413.05 149.046 413.362C149.406 413.662 149.868 413.812 150.432 413.812C150.816 413.812 151.164 413.752 151.476 413.632C151.8 413.5 152.082 413.32 152.322 413.092C152.43 413.188 152.52 413.308 152.592 413.452C152.676 413.596 152.73 413.758 152.754 413.938ZM153.458 415.054C153.458 414.838 153.464 414.64 153.476 414.46C153.5 414.268 153.536 414.1 153.584 413.956C154.064 413.944 154.382 413.83 154.538 413.614C154.706 413.398 154.79 412.99 154.79 412.39V404.902C154.79 404.638 154.754 404.428 154.682 404.272C154.61 404.104 154.478 403.978 154.286 403.894C154.094 403.798 153.812 403.738 153.44 403.714C153.44 403.534 153.452 403.36 153.476 403.192C153.512 403.012 153.566 402.844 153.638 402.688C154.046 402.688 154.46 402.658 154.88 402.598C155.312 402.538 155.702 402.466 156.05 402.382C156.398 402.286 156.656 402.19 156.824 402.094C156.98 402.154 157.106 402.262 157.202 402.418C157.298 402.562 157.346 402.772 157.346 403.048V412.39C157.346 412.99 157.424 413.398 157.58 413.614C157.736 413.83 158.036 413.944 158.48 413.956C158.528 414.1 158.558 414.274 158.57 414.478C158.582 414.67 158.588 414.862 158.588 415.054C158.42 415.042 158.192 415.03 157.904 415.018C157.628 415.018 157.328 415.012 157.004 415C156.68 415 156.356 415 156.032 415C155.708 415 155.378 415 155.042 415C154.706 415.012 154.4 415.018 154.124 415.018C153.848 415.03 153.626 415.042 153.458 415.054ZM159.683 415.054C159.683 414.838 159.689 414.64 159.701 414.46C159.725 414.268 159.761 414.1 159.809 413.956C160.289 413.944 160.607 413.83 160.763 413.614C160.931 413.398 161.015 412.99 161.015 412.39V409.492C161.015 409.204 160.985 408.97 160.925 408.79C160.865 408.61 160.739 408.478 160.547 408.394C160.355 408.298 160.067 408.238 159.683 408.214C159.683 408.034 159.695 407.86 159.719 407.692C159.743 407.512 159.797 407.344 159.881 407.188C160.277 407.188 160.685 407.158 161.105 407.098C161.537 407.038 161.927 406.966 162.275 406.882C162.635 406.786 162.899 406.69 163.067 406.594C163.223 406.654 163.349 406.762 163.445 406.918C163.541 407.062 163.589 407.272 163.589 407.548V412.39C163.589 412.99 163.667 413.398 163.823 413.614C163.979 413.83 164.273 413.944 164.705 413.956C164.753 414.1 164.783 414.274 164.795 414.478C164.819 414.67 164.831 414.862 164.831 415.054C164.651 415.042 164.423 415.03 164.147 415.018C163.871 415.018 163.571 415.012 163.247 415C162.923 415 162.599 415 162.275 415C161.951 415 161.621 415 161.285 415C160.949 415.012 160.643 415.018 160.367 415.018C160.091 415.03 159.863 415.042 159.683 415.054ZM162.077 405.172C161.645 405.172 161.291 405.058 161.015 404.83C160.751 404.59 160.619 404.284 160.619 403.912C160.619 403.48 160.769 403.144 161.069 402.904C161.369 402.664 161.729 402.544 162.149 402.544C162.641 402.544 163.019 402.664 163.283 402.904C163.547 403.144 163.679 403.474 163.679 403.894C163.679 404.254 163.535 404.56 163.247 404.812C162.959 405.052 162.569 405.172 162.077 405.172ZM173.092 413.938C172.768 414.334 172.348 414.64 171.832 414.856C171.316 415.06 170.722 415.162 170.05 415.162C169.234 415.162 168.502 415.006 167.854 414.694C167.218 414.382 166.708 413.914 166.324 413.29C165.952 412.666 165.766 411.874 165.766 410.914C165.766 410.194 165.922 409.504 166.234 408.844C166.546 408.184 167.008 407.644 167.62 407.224C168.244 406.804 169.012 406.594 169.924 406.594C170.572 406.594 171.136 406.66 171.616 406.792C172.108 406.912 172.546 407.098 172.93 407.35C172.858 407.686 172.81 408.034 172.786 408.394C172.762 408.742 172.75 409.132 172.75 409.564C172.558 409.648 172.336 409.708 172.084 409.744C171.832 409.78 171.592 409.798 171.364 409.798C171.328 409.102 171.178 408.574 170.914 408.214C170.662 407.854 170.326 407.674 169.906 407.674C169.402 407.674 169.012 407.944 168.736 408.484C168.46 409.024 168.322 409.75 168.322 410.662C168.322 411.178 168.406 411.682 168.574 412.174C168.754 412.654 169.024 413.05 169.384 413.362C169.744 413.662 170.206 413.812 170.77 413.812C171.154 413.812 171.502 413.752 171.814 413.632C172.138 413.5 172.42 413.32 172.66 413.092C172.768 413.188 172.858 413.308 172.93 413.452C173.014 413.596 173.068 413.758 173.092 413.938ZM173.796 415.054C173.796 414.838 173.802 414.64 173.814 414.46C173.838 414.268 173.874 414.1 173.922 413.956C174.402 413.944 174.72 413.83 174.876 413.614C175.044 413.398 175.128 412.99 175.128 412.39V404.992C175.128 404.704 175.092 404.47 175.02 404.29C174.96 404.11 174.834 403.978 174.642 403.894C174.45 403.798 174.162 403.738 173.778 403.714C173.778 403.534 173.79 403.36 173.814 403.192C173.85 403.012 173.904 402.844 173.976 402.688C174.384 402.688 174.798 402.658 175.218 402.598C175.65 402.538 176.04 402.466 176.388 402.382C176.736 402.286 176.994 402.19 177.162 402.094C177.318 402.154 177.444 402.262 177.54 402.418C177.636 402.562 177.684 402.772 177.684 403.048V412.39C177.684 412.978 177.75 413.38 177.882 413.596C178.014 413.812 178.26 413.932 178.62 413.956C178.668 414.1 178.698 414.274 178.71 414.478C178.722 414.67 178.728 414.862 178.728 415.054C178.464 415.03 178.11 415.012 177.666 415C177.222 415 176.772 415 176.316 415C176.004 415 175.686 415 175.362 415C175.038 415.012 174.738 415.018 174.462 415.018C174.186 415.03 173.964 415.042 173.796 415.054ZM180.834 415.162C180.654 414.874 180.42 414.544 180.132 414.172C179.856 413.788 179.556 413.392 179.232 412.984C178.908 412.564 178.578 412.156 178.242 411.76C177.906 411.364 177.588 411.01 177.288 410.698L178.944 409.204C179.28 408.892 179.508 408.652 179.628 408.484C179.76 408.316 179.826 408.184 179.826 408.088C179.826 407.992 179.79 407.92 179.718 407.872C179.646 407.824 179.52 407.8 179.34 407.8C179.28 407.62 179.232 407.44 179.196 407.26C179.172 407.08 179.16 406.9 179.16 406.72C179.364 406.72 179.604 406.726 179.88 406.738C180.156 406.738 180.45 406.744 180.762 406.756C181.074 406.756 181.368 406.756 181.644 406.756C181.92 406.756 182.202 406.756 182.49 406.756C182.79 406.744 183.072 406.732 183.336 406.72C183.336 406.912 183.324 407.098 183.3 407.278C183.276 407.458 183.234 407.632 183.174 407.8C182.886 407.812 182.622 407.854 182.382 407.926C182.154 407.998 181.92 408.112 181.68 408.268C181.452 408.412 181.188 408.622 180.888 408.898L179.34 410.302L179.16 409.438C179.724 409.93 180.258 410.458 180.762 411.022C181.278 411.586 181.812 412.234 182.364 412.966C182.544 413.206 182.706 413.392 182.85 413.524C183.006 413.656 183.162 413.752 183.318 413.812C183.474 413.86 183.666 413.896 183.894 413.92C183.894 414.112 183.882 414.304 183.858 414.496C183.834 414.676 183.786 414.844 183.714 415C183.414 415 183.09 415.006 182.742 415.018C182.406 415.03 182.07 415.042 181.734 415.054C181.398 415.078 181.098 415.114 180.834 415.162ZM197.91 412.39C197.91 412.99 197.976 413.404 198.108 413.632C198.252 413.848 198.486 413.956 198.81 413.956C198.87 414.1 198.912 414.262 198.936 414.442C198.96 414.61 198.972 414.814 198.972 415.054C198.708 415.042 198.366 415.03 197.946 415.018C197.526 415.006 197.118 415 196.722 415C196.458 415 196.158 415 195.822 415C195.498 415.012 195.186 415.018 194.886 415.018C194.586 415.03 194.346 415.042 194.166 415.054C194.166 414.838 194.172 414.64 194.184 414.46C194.196 414.28 194.238 414.112 194.31 413.956C194.646 413.956 194.904 413.836 195.084 413.596C195.264 413.356 195.354 412.918 195.354 412.282V410.32C195.354 409.564 195.228 409.042 194.976 408.754C194.736 408.454 194.4 408.304 193.968 408.304C193.668 408.304 193.38 408.418 193.104 408.646C192.84 408.862 192.624 409.186 192.456 409.618C192.288 410.038 192.204 410.566 192.204 411.202V412.39C192.204 413.002 192.282 413.416 192.438 413.632C192.606 413.848 192.87 413.956 193.23 413.956C193.302 414.124 193.344 414.292 193.356 414.46C193.38 414.628 193.392 414.826 193.392 415.054C193.212 415.042 192.978 415.03 192.69 415.018C192.414 415.018 192.12 415.012 191.808 415C191.496 415 191.202 415 190.926 415C190.662 415 190.356 415 190.008 415C189.672 415.012 189.348 415.018 189.036 415.018C188.736 415.03 188.496 415.042 188.316 415.054C188.316 414.826 188.322 414.616 188.334 414.424C188.358 414.232 188.394 414.076 188.442 413.956C188.91 413.956 189.228 413.848 189.396 413.632C189.564 413.404 189.648 412.99 189.648 412.39V409.672L192.204 407.566C192.204 407.71 192.186 407.878 192.15 408.07C192.126 408.25 192.084 408.442 192.024 408.646C192.096 408.502 192.168 408.358 192.24 408.214C192.312 408.07 192.408 407.932 192.528 407.8C192.768 407.524 193.104 407.272 193.536 407.044C193.968 406.804 194.472 406.684 195.048 406.684C195.54 406.684 196.002 406.78 196.434 406.972C196.878 407.164 197.232 407.476 197.496 407.908C197.772 408.34 197.91 408.91 197.91 409.618V412.39ZM189.648 404.992C189.648 404.704 189.612 404.47 189.54 404.29C189.48 404.11 189.354 403.978 189.162 403.894C188.97 403.798 188.682 403.738 188.298 403.714C188.298 403.534 188.31 403.36 188.334 403.192C188.37 403.012 188.424 402.844 188.496 402.688C188.904 402.688 189.318 402.658 189.738 402.598C190.17 402.538 190.56 402.466 190.908 402.382C191.256 402.286 191.514 402.19 191.682 402.094C191.838 402.154 191.964 402.262 192.06 402.418C192.156 402.562 192.204 402.772 192.204 403.048V405.334H189.648V404.992ZM189.648 404.722H192.204V407.566L189.648 410.14V404.722ZM204.24 415.162C203.22 415.162 202.392 414.976 201.756 414.604C201.12 414.232 200.652 413.728 200.352 413.092C200.052 412.444 199.902 411.724 199.902 410.932C199.902 410.08 200.07 409.33 200.406 408.682C200.742 408.034 201.222 407.524 201.846 407.152C202.482 406.78 203.22 406.594 204.06 406.594C204.924 406.594 205.626 406.762 206.166 407.098C206.718 407.422 207.126 407.878 207.39 408.466C207.654 409.042 207.804 409.696 207.84 410.428C207.756 410.776 207.606 411.058 207.39 411.274C207.09 411.274 206.724 411.28 206.292 411.292C205.86 411.292 205.392 411.298 204.888 411.31C204.396 411.31 203.892 411.322 203.376 411.346C202.872 411.358 202.392 411.382 201.936 411.418V410.23H205.392C205.392 409.426 205.272 408.808 205.032 408.376C204.804 407.932 204.468 407.71 204.024 407.71C203.736 407.71 203.478 407.806 203.25 407.998C203.022 408.178 202.842 408.472 202.71 408.88C202.578 409.276 202.512 409.798 202.512 410.446C202.512 411.058 202.59 411.622 202.746 412.138C202.902 412.654 203.16 413.062 203.52 413.362C203.892 413.662 204.396 413.812 205.032 413.812C205.44 413.812 205.848 413.734 206.256 413.578C206.664 413.422 207.012 413.218 207.3 412.966C207.408 413.026 207.51 413.146 207.606 413.326C207.702 413.506 207.75 413.686 207.75 413.866C207.306 414.31 206.796 414.64 206.22 414.856C205.644 415.06 204.984 415.162 204.24 415.162ZM212.984 411.886C212.984 412.402 213.038 412.804 213.146 413.092C213.266 413.38 213.452 413.59 213.704 413.722C213.968 413.842 214.322 413.92 214.766 413.956C214.826 414.1 214.862 414.268 214.874 414.46C214.886 414.652 214.892 414.85 214.892 415.054C214.688 415.042 214.43 415.03 214.118 415.018C213.818 415.018 213.494 415.012 213.146 415C212.798 415 212.456 415 212.12 415C211.58 415 211.022 415 210.446 415C209.87 415.012 209.414 415.03 209.078 415.054C209.078 414.802 209.084 414.592 209.096 414.424C209.12 414.244 209.15 414.088 209.186 413.956C209.51 413.932 209.762 413.872 209.942 413.776C210.122 413.68 210.242 413.506 210.302 413.254C210.374 412.99 210.41 412.624 210.41 412.156V410.914H212.984V411.886ZM212.984 409.69V411.238H210.41V409.276L212.984 407.566C212.984 407.866 212.948 408.172 212.876 408.484C212.816 408.784 212.738 409.144 212.642 409.564L212.984 409.69ZM212.588 409.636C212.684 409.36 212.78 409.084 212.876 408.808C212.972 408.532 213.062 408.322 213.146 408.178C213.41 407.758 213.734 407.41 214.118 407.134C214.502 406.858 214.934 406.72 215.414 406.72C215.882 406.72 216.308 406.864 216.692 407.152C216.656 407.392 216.62 407.668 216.584 407.98C216.56 408.28 216.542 408.586 216.53 408.898C216.53 409.21 216.536 409.498 216.548 409.762C216.368 409.834 216.128 409.888 215.828 409.924C215.54 409.96 215.282 409.978 215.054 409.978C215.042 409.498 214.97 409.168 214.838 408.988C214.706 408.796 214.52 408.7 214.28 408.7C214.1 408.7 213.908 408.808 213.704 409.024C213.5 409.228 213.326 409.504 213.182 409.852C213.05 410.188 212.984 410.554 212.984 410.95L212.588 409.636ZM210.41 411.238V409.672C210.41 409.324 210.38 409.054 210.32 408.862C210.272 408.658 210.152 408.508 209.96 408.412C209.78 408.304 209.492 408.238 209.096 408.214C209.096 408.034 209.108 407.86 209.132 407.692C209.168 407.512 209.228 407.344 209.312 407.188C209.948 407.188 210.56 407.128 211.148 407.008C211.748 406.876 212.186 406.738 212.462 406.594C212.63 406.654 212.756 406.762 212.84 406.918C212.936 407.062 212.984 407.278 212.984 407.566L210.41 411.238ZM221.977 415.162C220.957 415.162 220.129 414.976 219.493 414.604C218.857 414.232 218.389 413.728 218.089 413.092C217.789 412.444 217.639 411.724 217.639 410.932C217.639 410.08 217.807 409.33 218.143 408.682C218.479 408.034 218.959 407.524 219.583 407.152C220.219 406.78 220.957 406.594 221.797 406.594C222.661 406.594 223.363 406.762 223.903 407.098C224.455 407.422 224.863 407.878 225.127 408.466C225.391 409.042 225.541 409.696 225.577 410.428C225.493 410.776 225.343 411.058 225.127 411.274C224.827 411.274 224.461 411.28 224.029 411.292C223.597 411.292 223.129 411.298 222.625 411.31C222.133 411.31 221.629 411.322 221.113 411.346C220.609 411.358 220.129 411.382 219.673 411.418V410.23H223.129C223.129 409.426 223.009 408.808 222.769 408.376C222.541 407.932 222.205 407.71 221.761 407.71C221.473 407.71 221.215 407.806 220.987 407.998C220.759 408.178 220.579 408.472 220.447 408.88C220.315 409.276 220.249 409.798 220.249 410.446C220.249 411.058 220.327 411.622 220.483 412.138C220.639 412.654 220.897 413.062 221.257 413.362C221.629 413.662 222.133 413.812 222.769 413.812C223.177 413.812 223.585 413.734 223.993 413.578C224.401 413.422 224.749 413.218 225.037 412.966C225.145 413.026 225.247 413.146 225.343 413.326C225.439 413.506 225.487 413.686 225.487 413.866C225.043 414.31 224.533 414.64 223.957 414.856C223.381 415.06 222.721 415.162 221.977 415.162Z" fill="black"/>
<path d="M62.3083 173.192L51.5563 158.888C51.3803 158.632 51.1883 158.464 50.9803 158.384C50.7723 158.288 50.4363 158.216 49.9723 158.168C49.9243 157.944 49.8843 157.704 49.8523 157.448C49.8363 157.192 49.8283 156.944 49.8283 156.704C50.0043 156.72 50.2443 156.736 50.5483 156.752C50.8683 156.752 51.1883 156.76 51.5083 156.776C51.8283 156.776 52.1003 156.776 52.3243 156.776C52.6923 156.776 53.0843 156.776 53.5003 156.776C53.9163 156.76 54.2523 156.736 54.5083 156.704L62.7643 167.816L62.3083 173.192ZM49.8283 173.072C49.8283 172.768 49.8363 172.496 49.8523 172.256C49.8683 172.016 49.9083 171.8 49.9723 171.608C50.4363 171.576 50.7963 171.464 51.0523 171.272C51.3243 171.064 51.5083 170.712 51.6043 170.216C51.7163 169.72 51.7723 169.024 51.7723 168.128V158.288L53.3083 158.408V168.128C53.3083 169.024 53.3563 169.72 53.4523 170.216C53.5483 170.712 53.7243 171.064 53.9803 171.272C54.2523 171.464 54.6203 171.576 55.0843 171.608C55.1483 171.8 55.1883 172.024 55.2043 172.28C55.2203 172.536 55.2283 172.8 55.2283 173.072C55.0043 173.056 54.7323 173.04 54.4123 173.024C54.0923 173.024 53.7723 173.016 53.4523 173C53.1323 173 52.8443 173 52.5883 173C52.3323 173 52.0203 173 51.6523 173C51.3003 173.016 50.9563 173.024 50.6203 173.024C50.2843 173.04 50.0203 173.056 49.8283 173.072ZM62.3083 173.192L62.4283 169.664V161.6C62.4283 160.704 62.3803 160.016 62.2843 159.536C62.1883 159.056 62.0043 158.72 61.7323 158.528C61.4603 158.32 61.0763 158.2 60.5803 158.168C60.5163 157.896 60.4683 157.64 60.4363 157.4C60.4203 157.144 60.4123 156.912 60.4123 156.704C60.6523 156.72 60.9323 156.736 61.2523 156.752C61.5883 156.752 61.9243 156.76 62.2603 156.776C62.5963 156.776 62.8923 156.776 63.1483 156.776C63.5163 156.776 63.9323 156.768 64.3963 156.752C64.8763 156.736 65.2683 156.72 65.5723 156.704C65.5723 156.944 65.5643 157.192 65.5483 157.448C65.5323 157.688 65.4923 157.928 65.4283 158.168C65.0283 158.2 64.7243 158.312 64.5163 158.504C64.3083 158.696 64.1563 159.032 64.0603 159.512C63.9803 159.992 63.9403 160.688 63.9403 161.6V173C63.7163 173.08 63.4683 173.128 63.1963 173.144C62.9243 173.176 62.6283 173.192 62.3083 173.192ZM75.1383 173.216C74.8663 173.104 74.6743 172.944 74.5623 172.736C74.4503 172.512 74.3943 172.208 74.3943 171.824C74.3943 171.632 74.4103 171.408 74.4423 171.152C74.4743 170.88 74.5303 170.624 74.6103 170.384L74.6823 170.312C74.5703 170.728 74.4103 171.112 74.2023 171.464C73.9943 171.8 73.7463 172.08 73.4583 172.304C73.1383 172.592 72.7463 172.808 72.2823 172.952C71.8343 173.096 71.2983 173.168 70.6743 173.168C69.6023 173.168 68.7703 172.936 68.1783 172.472C67.5863 172.008 67.2903 171.344 67.2903 170.48C67.2903 169.872 67.4263 169.352 67.6983 168.92C67.9863 168.472 68.3703 168.096 68.8503 167.792C69.3303 167.488 69.8663 167.24 70.4583 167.048C71.0503 166.856 71.6503 166.704 72.2583 166.592C72.8823 166.48 73.4663 166.384 74.0103 166.304C74.0103 165.84 73.9943 165.456 73.9623 165.152C73.9463 164.832 73.8983 164.568 73.8183 164.36C73.7543 164.136 73.6423 163.944 73.4823 163.784C73.3063 163.56 73.0983 163.408 72.8583 163.328C72.6343 163.232 72.3943 163.184 72.1383 163.184C71.6903 163.184 71.3303 163.32 71.0583 163.592C70.8023 163.848 70.6103 164.184 70.4823 164.6C70.3543 165.016 70.2743 165.44 70.2423 165.872C69.8583 165.872 69.4983 165.856 69.1623 165.824C68.8263 165.792 68.5303 165.728 68.2743 165.632C68.3063 165.2 68.3143 164.736 68.2983 164.24C68.2823 163.744 68.2263 163.248 68.1303 162.752C68.8023 162.448 69.5703 162.208 70.4343 162.032C71.3143 161.856 72.1383 161.768 72.9063 161.768C73.8183 161.768 74.5543 161.88 75.1143 162.104C75.6743 162.312 76.0983 162.56 76.3863 162.848C76.7223 163.2 76.9783 163.68 77.1543 164.288C77.3463 164.88 77.4423 165.736 77.4423 166.856V168.944C77.4423 169.456 77.4743 169.856 77.5383 170.144C77.6023 170.416 77.7303 170.608 77.9223 170.72C78.1303 170.832 78.4423 170.896 78.8583 170.912C78.8903 171.168 78.8903 171.432 78.8583 171.704C78.8263 171.96 78.7543 172.2 78.6423 172.424C78.0663 172.44 77.4663 172.52 76.8423 172.664C76.2343 172.792 75.6663 172.976 75.1383 173.216ZM71.8743 171.176C72.1943 171.176 72.5223 171.072 72.8583 170.864C73.1943 170.64 73.4663 170.312 73.6743 169.88C73.8983 169.448 74.0103 168.896 74.0103 168.224V167.576C73.5463 167.656 73.1063 167.752 72.6903 167.864C72.2903 167.976 71.9383 168.12 71.6343 168.296C71.3463 168.456 71.1223 168.664 70.9623 168.92C70.8023 169.16 70.7223 169.464 70.7223 169.832C70.7223 170.312 70.8343 170.656 71.0583 170.864C71.2983 171.072 71.5703 171.176 71.8743 171.176ZM84.5613 173.216C84.3853 172.768 84.1613 172.248 83.8893 171.656C83.6333 171.064 83.3533 170.44 83.0493 169.784C82.7613 169.112 82.4653 168.464 82.1613 167.84C81.8733 167.2 81.6013 166.624 81.3453 166.112C81.1053 165.584 80.9053 165.168 80.7453 164.864C80.5693 164.48 80.4093 164.192 80.2653 164C80.1213 163.808 79.9693 163.672 79.8093 163.592C79.6653 163.496 79.4893 163.432 79.2813 163.4C79.2173 163.192 79.1613 162.968 79.1133 162.728C79.0813 162.472 79.0653 162.208 79.0653 161.936C79.4173 161.952 79.8733 161.968 80.4333 161.984C81.0093 162 81.6093 162.008 82.2333 162.008C82.6493 162.008 83.0813 162.008 83.5293 162.008C83.9773 161.992 84.3933 161.984 84.7773 161.984C85.1773 161.968 85.5053 161.952 85.7613 161.936C85.7613 162.176 85.7373 162.432 85.6893 162.704C85.6413 162.976 85.5853 163.2 85.5213 163.376C84.8653 163.44 84.4813 163.576 84.3693 163.784C84.2573 163.976 84.3453 164.376 84.6333 164.984C84.7933 165.304 84.9613 165.68 85.1373 166.112C85.3133 166.528 85.4973 166.984 85.6893 167.48C85.8973 167.976 86.0973 168.48 86.2893 168.992C86.4813 169.504 86.6573 170.008 86.8173 170.504H86.1933C86.5453 169.512 86.8813 168.632 87.2013 167.864C87.5213 167.096 87.8413 166.336 88.1613 165.584C88.4813 164.784 88.5693 164.232 88.4253 163.928C88.2813 163.624 87.9373 163.448 87.3933 163.4C87.3133 163.208 87.2493 162.976 87.2013 162.704C87.1533 162.432 87.1293 162.176 87.1293 161.936C87.4493 161.952 87.8093 161.968 88.2093 161.984C88.6093 162 89.0253 162.008 89.4573 162.008C89.8893 162.008 90.3133 162 90.7293 161.984C91.1453 161.968 91.5133 161.952 91.8333 161.936C91.8333 162.192 91.8093 162.456 91.7613 162.728C91.7293 163 91.6653 163.224 91.5693 163.4C91.3133 163.464 91.0893 163.568 90.8973 163.712C90.7053 163.84 90.5213 164.04 90.3453 164.312C90.1853 164.584 90.0093 164.968 89.8173 165.464L86.5053 172.928C86.2813 173.04 85.9853 173.12 85.6173 173.168C85.2493 173.232 84.8973 173.248 84.5613 173.216ZM92.9527 173.072C92.9527 172.784 92.9607 172.52 92.9767 172.28C93.0087 172.024 93.0567 171.8 93.1207 171.608C93.7607 171.592 94.1847 171.44 94.3927 171.152C94.6167 170.864 94.7287 170.32 94.7287 169.52V165.656C94.7287 165.272 94.6887 164.96 94.6087 164.72C94.5287 164.48 94.3607 164.304 94.1047 164.192C93.8487 164.064 93.4647 163.984 92.9527 163.952C92.9527 163.712 92.9687 163.48 93.0007 163.256C93.0327 163.016 93.1047 162.792 93.2167 162.584C93.7447 162.584 94.2887 162.544 94.8487 162.464C95.4247 162.384 95.9447 162.288 96.4087 162.176C96.8887 162.048 97.2407 161.92 97.4647 161.792C97.6727 161.872 97.8407 162.016 97.9687 162.224C98.0967 162.416 98.1607 162.696 98.1607 163.064V169.52C98.1607 170.32 98.2647 170.864 98.4727 171.152C98.6807 171.44 99.0727 171.592 99.6487 171.608C99.7127 171.8 99.7527 172.032 99.7687 172.304C99.8007 172.56 99.8167 172.816 99.8167 173.072C99.5767 173.056 99.2727 173.04 98.9047 173.024C98.5367 173.024 98.1367 173.016 97.7047 173C97.2727 173 96.8407 173 96.4087 173C95.9767 173 95.5367 173 95.0887 173C94.6407 173.016 94.2327 173.024 93.8647 173.024C93.4967 173.04 93.1927 173.056 92.9527 173.072ZM96.1447 159.896C95.5687 159.896 95.0967 159.744 94.7287 159.44C94.3767 159.12 94.2007 158.712 94.2007 158.216C94.2007 157.64 94.4007 157.192 94.8007 156.872C95.2007 156.552 95.6807 156.392 96.2407 156.392C96.8967 156.392 97.4007 156.552 97.7527 156.872C98.1047 157.192 98.2807 157.632 98.2807 158.192C98.2807 158.672 98.0887 159.08 97.7047 159.416C97.3207 159.736 96.8007 159.896 96.1447 159.896ZM105.902 178.976C104.75 178.976 103.838 178.848 103.166 178.592C102.51 178.336 102.038 177.984 101.75 177.536C101.462 177.104 101.318 176.592 101.318 176C101.318 175.392 101.494 174.864 101.846 174.416C102.198 173.968 102.718 173.64 103.406 173.432L104.99 173.696C104.638 174 104.398 174.272 104.27 174.512C104.158 174.752 104.102 175.032 104.102 175.352C104.102 176.04 104.294 176.552 104.678 176.888C105.078 177.224 105.742 177.392 106.67 177.392C107.678 177.392 108.462 177.192 109.022 176.792C109.598 176.392 109.886 175.912 109.886 175.352C109.886 175.064 109.806 174.84 109.646 174.68C109.502 174.52 109.214 174.4 108.782 174.32C108.366 174.24 107.75 174.2 106.934 174.2C106.23 174.2 105.582 174.168 104.99 174.104C104.398 174.04 103.878 173.92 103.43 173.744C102.982 173.568 102.63 173.312 102.374 172.976C102.134 172.624 102.014 172.168 102.014 171.608C102.014 170.952 102.19 170.384 102.542 169.904C102.894 169.424 103.294 169.008 103.742 168.656L105.374 169.232C105.134 169.392 104.942 169.56 104.798 169.736C104.654 169.896 104.582 170.064 104.582 170.24C104.582 170.528 104.718 170.728 104.99 170.84C105.262 170.952 105.678 171.024 106.238 171.056C106.798 171.072 107.502 171.088 108.35 171.104C109.294 171.104 110.102 171.184 110.774 171.344C111.446 171.504 111.966 171.792 112.334 172.208C112.702 172.608 112.886 173.2 112.886 173.984C112.886 174.656 112.718 175.288 112.382 175.88C112.046 176.488 111.574 177.024 110.966 177.488C110.358 177.952 109.622 178.312 108.758 178.568C107.91 178.84 106.958 178.976 105.902 178.976ZM106.718 169.64C105.694 169.64 104.798 169.496 104.03 169.208C103.278 168.904 102.694 168.464 102.278 167.888C101.862 167.312 101.654 166.6 101.654 165.752C101.654 164.936 101.838 164.24 102.206 163.664C102.59 163.072 103.15 162.616 103.886 162.296C104.622 161.96 105.502 161.792 106.526 161.792C107.486 161.792 108.302 161.92 108.974 162.176C109.646 162.432 110.198 162.768 110.63 163.184C111.062 163.584 111.382 164.024 111.59 164.504C111.798 164.968 111.902 165.416 111.902 165.848C111.902 166.552 111.71 167.192 111.326 167.768C110.942 168.344 110.366 168.8 109.598 169.136C108.83 169.472 107.87 169.64 106.718 169.64ZM107.03 168.224C107.51 168.224 107.878 168.032 108.134 167.648C108.406 167.248 108.542 166.664 108.542 165.896C108.542 165.048 108.374 164.368 108.038 163.856C107.702 163.328 107.23 163.064 106.622 163.064C106.094 163.064 105.702 163.288 105.446 163.736C105.19 164.168 105.062 164.728 105.062 165.416C105.062 166.328 105.23 167.024 105.566 167.504C105.918 167.984 106.406 168.224 107.03 168.224ZM113.126 163.856C112.854 163.76 112.558 163.68 112.238 163.616C111.934 163.552 111.63 163.496 111.326 163.448C111.038 163.4 110.766 163.376 110.51 163.376L108.206 162.008H112.886C112.982 162.248 113.046 162.528 113.078 162.848C113.11 163.168 113.126 163.504 113.126 163.856ZM122.506 173.216C122.234 173.104 122.042 172.944 121.93 172.736C121.818 172.512 121.762 172.208 121.762 171.824C121.762 171.632 121.778 171.408 121.81 171.152C121.842 170.88 121.898 170.624 121.978 170.384L122.05 170.312C121.938 170.728 121.778 171.112 121.57 171.464C121.362 171.8 121.114 172.08 120.826 172.304C120.506 172.592 120.114 172.808 119.65 172.952C119.202 173.096 118.666 173.168 118.042 173.168C116.97 173.168 116.138 172.936 115.546 172.472C114.954 172.008 114.658 171.344 114.658 170.48C114.658 169.872 114.794 169.352 115.066 168.92C115.354 168.472 115.738 168.096 116.218 167.792C116.698 167.488 117.234 167.24 117.826 167.048C118.418 166.856 119.018 166.704 119.626 166.592C120.25 166.48 120.834 166.384 121.378 166.304C121.378 165.84 121.362 165.456 121.33 165.152C121.314 164.832 121.266 164.568 121.186 164.36C121.122 164.136 121.01 163.944 120.85 163.784C120.674 163.56 120.466 163.408 120.226 163.328C120.002 163.232 119.762 163.184 119.506 163.184C119.058 163.184 118.698 163.32 118.426 163.592C118.17 163.848 117.978 164.184 117.85 164.6C117.722 165.016 117.642 165.44 117.61 165.872C117.226 165.872 116.866 165.856 116.53 165.824C116.194 165.792 115.898 165.728 115.642 165.632C115.674 165.2 115.682 164.736 115.666 164.24C115.65 163.744 115.594 163.248 115.498 162.752C116.17 162.448 116.938 162.208 117.802 162.032C118.682 161.856 119.506 161.768 120.274 161.768C121.186 161.768 121.922 161.88 122.482 162.104C123.042 162.312 123.466 162.56 123.754 162.848C124.09 163.2 124.346 163.68 124.522 164.288C124.714 164.88 124.81 165.736 124.81 166.856V168.944C124.81 169.456 124.842 169.856 124.906 170.144C124.97 170.416 125.098 170.608 125.29 170.72C125.498 170.832 125.81 170.896 126.226 170.912C126.258 171.168 126.258 171.432 126.226 171.704C126.194 171.96 126.122 172.2 126.01 172.424C125.434 172.44 124.834 172.52 124.21 172.664C123.602 172.792 123.034 172.976 122.506 173.216ZM119.242 171.176C119.562 171.176 119.89 171.072 120.226 170.864C120.562 170.64 120.834 170.312 121.042 169.88C121.266 169.448 121.378 168.896 121.378 168.224V167.576C120.914 167.656 120.474 167.752 120.058 167.864C119.658 167.976 119.306 168.12 119.002 168.296C118.714 168.456 118.49 168.664 118.33 168.92C118.17 169.16 118.09 169.464 118.09 169.832C118.09 170.312 118.202 170.656 118.426 170.864C118.666 171.072 118.938 171.176 119.242 171.176ZM131.99 173.216C130.886 173.216 130.054 172.928 129.494 172.352C128.934 171.776 128.654 170.808 128.654 169.448V164.048C128.398 163.952 128.134 163.88 127.862 163.832C127.59 163.784 127.262 163.752 126.878 163.736C126.878 163.448 126.894 163.192 126.926 162.968C126.974 162.744 127.054 162.504 127.166 162.248H128.654V159.296C129.182 159.216 129.702 159.072 130.214 158.864C130.726 158.64 131.15 158.392 131.486 158.12C131.71 158.216 131.862 158.352 131.942 158.528C132.022 158.704 132.062 159.056 132.062 159.584V162.248H135.014C135.014 162.536 134.998 162.808 134.966 163.064C134.934 163.304 134.878 163.536 134.798 163.76C134.254 163.76 133.758 163.792 133.31 163.856C132.862 163.92 132.446 164.008 132.062 164.12V169.04C132.062 169.68 132.102 170.184 132.182 170.552C132.278 170.904 132.422 171.152 132.614 171.296C132.806 171.44 133.038 171.512 133.31 171.512C133.582 171.512 133.838 171.48 134.078 171.416C134.334 171.336 134.574 171.232 134.798 171.104C135.022 171.392 135.142 171.784 135.158 172.28C134.838 172.552 134.382 172.776 133.79 172.952C133.214 173.128 132.614 173.216 131.99 173.216ZM136.429 173.072C136.429 172.784 136.437 172.52 136.453 172.28C136.485 172.024 136.533 171.8 136.597 171.608C137.237 171.592 137.661 171.44 137.869 171.152C138.093 170.864 138.205 170.32 138.205 169.52V165.656C138.205 165.272 138.165 164.96 138.085 164.72C138.005 164.48 137.837 164.304 137.581 164.192C137.325 164.064 136.941 163.984 136.429 163.952C136.429 163.712 136.445 163.48 136.477 163.256C136.509 163.016 136.581 162.792 136.693 162.584C137.221 162.584 137.765 162.544 138.325 162.464C138.901 162.384 139.421 162.288 139.885 162.176C140.365 162.048 140.717 161.92 140.941 161.792C141.149 161.872 141.317 162.016 141.445 162.224C141.573 162.416 141.637 162.696 141.637 163.064V169.52C141.637 170.32 141.741 170.864 141.949 171.152C142.157 171.44 142.549 171.592 143.125 171.608C143.189 171.8 143.229 172.032 143.245 172.304C143.277 172.56 143.293 172.816 143.293 173.072C143.053 173.056 142.749 173.04 142.381 173.024C142.013 173.024 141.613 173.016 141.181 173C140.749 173 140.317 173 139.885 173C139.453 173 139.013 173 138.565 173C138.117 173.016 137.709 173.024 137.341 173.024C136.973 173.04 136.669 173.056 136.429 173.072ZM139.621 159.896C139.045 159.896 138.573 159.744 138.205 159.44C137.853 159.12 137.677 158.712 137.677 158.216C137.677 157.64 137.877 157.192 138.277 156.872C138.677 156.552 139.157 156.392 139.717 156.392C140.373 156.392 140.877 156.552 141.229 156.872C141.581 157.192 141.757 157.632 141.757 158.192C141.757 158.672 141.565 159.08 141.181 159.416C140.797 159.736 140.277 159.896 139.621 159.896ZM146.666 167.984V165.896C146.666 165.432 146.626 165.072 146.546 164.816C146.482 164.544 146.322 164.344 146.066 164.216C145.826 164.072 145.442 163.984 144.914 163.952C144.914 163.712 144.93 163.48 144.962 163.256C145.01 163.016 145.09 162.792 145.202 162.584C146.05 162.584 146.866 162.504 147.65 162.344C148.45 162.168 149.034 161.984 149.402 161.792C149.626 161.872 149.794 162.016 149.906 162.224C150.034 162.416 150.098 162.704 150.098 163.088L146.666 167.984ZM157.706 169.52C157.706 170.32 157.794 170.872 157.97 171.176C158.162 171.464 158.474 171.608 158.906 171.608C158.986 171.8 159.034 172.016 159.05 172.256C159.082 172.48 159.098 172.752 159.098 173.072C158.746 173.056 158.29 173.04 157.73 173.024C157.186 173.008 156.65 173 156.122 173C155.77 173 155.37 173 154.922 173C154.49 173.016 154.074 173.024 153.674 173.024C153.274 173.04 152.954 173.056 152.714 173.072C152.714 172.784 152.722 172.52 152.738 172.28C152.754 172.04 152.802 171.816 152.882 171.608C153.33 171.608 153.674 171.448 153.914 171.128C154.154 170.808 154.274 170.224 154.274 169.376V166.76C154.274 165.752 154.114 165.056 153.794 164.672C153.474 164.272 153.018 164.072 152.426 164.072C152.042 164.072 151.666 164.224 151.298 164.528C150.946 164.816 150.658 165.248 150.434 165.824C150.21 166.384 150.098 167.088 150.098 167.936V169.52C150.098 170.336 150.202 170.888 150.41 171.176C150.634 171.464 150.986 171.608 151.466 171.608C151.562 171.832 151.618 172.056 151.634 172.28C151.65 172.504 151.658 172.768 151.658 173.072C151.434 173.056 151.13 173.04 150.746 173.024C150.362 173.024 149.962 173.016 149.546 173C149.146 173 148.762 173 148.394 173C148.026 173 147.618 173 147.17 173C146.722 173.016 146.29 173.024 145.874 173.024C145.458 173.04 145.13 173.056 144.89 173.072C144.89 172.768 144.906 172.488 144.938 172.232C144.97 171.976 145.018 171.768 145.082 171.608C145.706 171.608 146.122 171.464 146.33 171.176C146.554 170.872 146.666 170.32 146.666 169.52V165.896L150.098 163.088C150.098 163.28 150.074 163.504 150.026 163.76C149.994 164 149.938 164.256 149.858 164.528C149.954 164.336 150.05 164.144 150.146 163.952C150.242 163.76 150.37 163.576 150.53 163.4C150.85 163.032 151.298 162.696 151.874 162.392C152.45 162.072 153.114 161.912 153.866 161.912C154.538 161.912 155.162 162.04 155.738 162.296C156.33 162.552 156.802 162.968 157.154 163.544C157.522 164.12 157.706 164.88 157.706 165.824V169.52ZM165.199 178.976C164.047 178.976 163.135 178.848 162.463 178.592C161.807 178.336 161.335 177.984 161.047 177.536C160.759 177.104 160.615 176.592 160.615 176C160.615 175.392 160.791 174.864 161.143 174.416C161.495 173.968 162.015 173.64 162.703 173.432L164.287 173.696C163.935 174 163.695 174.272 163.567 174.512C163.455 174.752 163.399 175.032 163.399 175.352C163.399 176.04 163.591 176.552 163.975 176.888C164.375 177.224 165.039 177.392 165.967 177.392C166.975 177.392 167.759 177.192 168.319 176.792C168.895 176.392 169.183 175.912 169.183 175.352C169.183 175.064 169.103 174.84 168.943 174.68C168.799 174.52 168.511 174.4 168.079 174.32C167.663 174.24 167.047 174.2 166.231 174.2C165.527 174.2 164.879 174.168 164.287 174.104C163.695 174.04 163.175 173.92 162.727 173.744C162.279 173.568 161.927 173.312 161.671 172.976C161.431 172.624 161.311 172.168 161.311 171.608C161.311 170.952 161.487 170.384 161.839 169.904C162.191 169.424 162.591 169.008 163.039 168.656L164.671 169.232C164.431 169.392 164.239 169.56 164.095 169.736C163.951 169.896 163.879 170.064 163.879 170.24C163.879 170.528 164.015 170.728 164.287 170.84C164.559 170.952 164.975 171.024 165.535 171.056C166.095 171.072 166.799 171.088 167.647 171.104C168.591 171.104 169.399 171.184 170.071 171.344C170.743 171.504 171.263 171.792 171.631 172.208C171.999 172.608 172.183 173.2 172.183 173.984C172.183 174.656 172.015 175.288 171.679 175.88C171.343 176.488 170.871 177.024 170.263 177.488C169.655 177.952 168.919 178.312 168.055 178.568C167.207 178.84 166.255 178.976 165.199 178.976ZM166.015 169.64C164.991 169.64 164.095 169.496 163.327 169.208C162.575 168.904 161.991 168.464 161.575 167.888C161.159 167.312 160.951 166.6 160.951 165.752C160.951 164.936 161.135 164.24 161.503 163.664C161.887 163.072 162.447 162.616 163.183 162.296C163.919 161.96 164.799 161.792 165.823 161.792C166.783 161.792 167.599 161.92 168.271 162.176C168.943 162.432 169.495 162.768 169.927 163.184C170.359 163.584 170.679 164.024 170.887 164.504C171.095 164.968 171.199 165.416 171.199 165.848C171.199 166.552 171.007 167.192 170.623 167.768C170.239 168.344 169.663 168.8 168.895 169.136C168.127 169.472 167.167 169.64 166.015 169.64ZM166.327 168.224C166.807 168.224 167.175 168.032 167.431 167.648C167.703 167.248 167.839 166.664 167.839 165.896C167.839 165.048 167.671 164.368 167.335 163.856C166.999 163.328 166.527 163.064 165.919 163.064C165.391 163.064 164.999 163.288 164.743 163.736C164.487 164.168 164.359 164.728 164.359 165.416C164.359 166.328 164.527 167.024 164.863 167.504C165.215 167.984 165.703 168.224 166.327 168.224ZM172.423 163.856C172.151 163.76 171.855 163.68 171.535 163.616C171.231 163.552 170.927 163.496 170.623 163.448C170.335 163.4 170.063 163.376 169.807 163.376L167.503 162.008H172.183C172.279 162.248 172.343 162.528 172.375 162.848C172.407 163.168 172.423 163.504 172.423 163.856ZM183.271 173.216C182.167 173.216 181.335 172.928 180.775 172.352C180.215 171.776 179.935 170.808 179.935 169.448V164.048C179.679 163.952 179.415 163.88 179.143 163.832C178.871 163.784 178.543 163.752 178.159 163.736C178.159 163.448 178.175 163.192 178.207 162.968C178.255 162.744 178.335 162.504 178.447 162.248H179.935V159.296C180.463 159.216 180.983 159.072 181.495 158.864C182.007 158.64 182.431 158.392 182.767 158.12C182.991 158.216 183.143 158.352 183.223 158.528C183.303 158.704 183.343 159.056 183.343 159.584V162.248H186.295C186.295 162.536 186.279 162.808 186.247 163.064C186.215 163.304 186.159 163.536 186.079 163.76C185.535 163.76 185.039 163.792 184.591 163.856C184.143 163.92 183.727 164.008 183.343 164.12V169.04C183.343 169.68 183.383 170.184 183.463 170.552C183.559 170.904 183.703 171.152 183.895 171.296C184.087 171.44 184.319 171.512 184.591 171.512C184.863 171.512 185.119 171.48 185.359 171.416C185.615 171.336 185.855 171.232 186.079 171.104C186.303 171.392 186.423 171.784 186.439 172.28C186.119 172.552 185.663 172.776 185.071 172.952C184.495 173.128 183.895 173.216 183.271 173.216ZM200.359 169.52C200.359 170.32 200.447 170.872 200.623 171.176C200.815 171.464 201.127 171.608 201.559 171.608C201.639 171.8 201.695 172.016 201.727 172.256C201.759 172.48 201.775 172.752 201.775 173.072C201.423 173.056 200.967 173.04 200.407 173.024C199.847 173.008 199.303 173 198.775 173C198.423 173 198.023 173 197.575 173C197.143 173.016 196.727 173.024 196.327 173.024C195.927 173.04 195.607 173.056 195.367 173.072C195.367 172.784 195.375 172.52 195.391 172.28C195.407 172.04 195.463 171.816 195.559 171.608C196.007 171.608 196.351 171.448 196.591 171.128C196.831 170.808 196.951 170.224 196.951 169.376V166.76C196.951 165.752 196.783 165.056 196.447 164.672C196.127 164.272 195.679 164.072 195.103 164.072C194.703 164.072 194.319 164.224 193.951 164.528C193.599 164.816 193.311 165.248 193.087 165.824C192.863 166.384 192.751 167.088 192.751 167.936V169.52C192.751 170.336 192.855 170.888 193.063 171.176C193.287 171.464 193.639 171.608 194.119 171.608C194.215 171.832 194.271 172.056 194.287 172.28C194.319 172.504 194.335 172.768 194.335 173.072C194.095 173.056 193.783 173.04 193.399 173.024C193.031 173.024 192.639 173.016 192.223 173C191.807 173 191.415 173 191.047 173C190.695 173 190.287 173 189.823 173C189.375 173.016 188.943 173.024 188.527 173.024C188.127 173.04 187.807 173.056 187.567 173.072C187.567 172.768 187.575 172.488 187.591 172.232C187.623 171.976 187.671 171.768 187.735 171.608C188.359 171.608 188.783 171.464 189.007 171.176C189.231 170.872 189.343 170.32 189.343 169.52V165.896L192.751 163.088C192.751 163.28 192.727 163.504 192.679 163.76C192.647 164 192.591 164.256 192.511 164.528C192.607 164.336 192.703 164.144 192.799 163.952C192.895 163.76 193.023 163.576 193.183 163.4C193.503 163.032 193.951 162.696 194.527 162.392C195.103 162.072 195.775 161.912 196.543 161.912C197.199 161.912 197.815 162.04 198.391 162.296C198.983 162.552 199.455 162.968 199.807 163.544C200.175 164.12 200.359 164.88 200.359 165.824V169.52ZM189.343 159.656C189.343 159.272 189.295 158.96 189.199 158.72C189.119 158.48 188.951 158.304 188.695 158.192C188.439 158.064 188.055 157.984 187.543 157.952C187.543 157.712 187.559 157.48 187.591 157.256C187.639 157.016 187.711 156.792 187.807 156.584C188.351 156.584 188.903 156.544 189.463 156.464C190.039 156.384 190.559 156.288 191.023 156.176C191.487 156.048 191.831 155.92 192.055 155.792C192.263 155.872 192.431 156.016 192.559 156.224C192.687 156.416 192.751 156.696 192.751 157.064V160.112H189.343V159.656ZM189.343 159.296H192.751V163.088L189.343 166.52V159.296ZM208.8 173.216C207.44 173.216 206.336 172.968 205.488 172.472C204.64 171.976 204.016 171.304 203.616 170.456C203.216 169.592 203.016 168.632 203.016 167.576C203.016 166.44 203.24 165.44 203.688 164.576C204.136 163.712 204.776 163.032 205.608 162.536C206.456 162.04 207.44 161.792 208.56 161.792C209.712 161.792 210.648 162.016 211.368 162.464C212.104 162.896 212.648 163.504 213 164.288C213.352 165.056 213.552 165.928 213.6 166.904C213.488 167.368 213.288 167.744 213 168.032C212.6 168.032 212.112 168.04 211.536 168.056C210.96 168.056 210.336 168.064 209.664 168.08C209.008 168.08 208.336 168.096 207.648 168.128C206.976 168.144 206.336 168.176 205.728 168.224V166.64H210.336C210.336 165.568 210.176 164.744 209.856 164.168C209.552 163.576 209.104 163.28 208.512 163.28C208.128 163.28 207.784 163.408 207.48 163.664C207.176 163.904 206.936 164.296 206.76 164.84C206.584 165.368 206.496 166.064 206.496 166.928C206.496 167.744 206.6 168.496 206.808 169.184C207.016 169.872 207.36 170.416 207.84 170.816C208.336 171.216 209.008 171.416 209.856 171.416C210.4 171.416 210.944 171.312 211.488 171.104C212.032 170.896 212.496 170.624 212.88 170.288C213.024 170.368 213.16 170.528 213.288 170.768C213.416 171.008 213.48 171.248 213.48 171.488C212.888 172.08 212.208 172.52 211.44 172.808C210.672 173.08 209.792 173.216 208.8 173.216ZM227.926 171.536C228.63 171.536 229.206 171.432 229.654 171.224C230.102 171.016 230.47 170.68 230.758 170.216C231.062 169.752 231.326 169.144 231.55 168.392C231.95 168.456 232.302 168.552 232.606 168.68C232.91 168.792 233.158 168.928 233.35 169.088C233.174 169.632 233.022 170.264 232.894 170.984C232.766 171.688 232.67 172.376 232.606 173.048C232.206 173.032 231.694 173.024 231.07 173.024C230.462 173.024 229.806 173.016 229.102 173C228.398 173 227.734 173 227.11 173C226.678 173 226.134 173 225.478 173C224.822 173.016 224.15 173.024 223.462 173.024C222.774 173.04 222.134 173.048 221.542 173.048C220.966 173.064 220.534 173.072 220.246 173.072C220.246 172.784 220.254 172.512 220.27 172.256C220.302 172 220.35 171.784 220.414 171.608C220.846 171.576 221.174 171.496 221.398 171.368C221.638 171.224 221.806 170.976 221.902 170.624C221.998 170.272 222.046 169.752 222.046 169.064V160.544C222.046 159.92 221.998 159.448 221.902 159.128C221.822 158.792 221.662 158.56 221.422 158.432C221.182 158.304 220.846 158.216 220.414 158.168C220.35 157.992 220.31 157.76 220.294 157.472C220.278 157.184 220.27 156.928 220.27 156.704C220.686 156.72 221.086 156.736 221.47 156.752C221.854 156.752 222.238 156.76 222.622 156.776C223.022 156.776 223.43 156.776 223.846 156.776C224.214 156.776 224.606 156.776 225.022 156.776C225.454 156.76 225.878 156.752 226.294 156.752C226.71 156.736 227.078 156.72 227.398 156.704C227.398 156.976 227.39 157.24 227.374 157.496C227.358 157.752 227.31 157.976 227.23 158.168C226.814 158.2 226.486 158.288 226.246 158.432C226.006 158.56 225.838 158.792 225.742 159.128C225.662 159.464 225.622 159.952 225.622 160.592V169.016C225.622 169.672 225.678 170.184 225.79 170.552C225.902 170.92 226.102 171.176 226.39 171.32C226.694 171.464 227.11 171.536 227.638 171.536H227.926ZM240.228 173.216C239.188 173.216 238.228 173.088 237.348 172.832C236.484 172.576 235.636 172.224 234.804 171.776C234.932 171.136 235.012 170.488 235.044 169.832C235.076 169.176 235.092 168.576 235.092 168.032C235.412 167.936 235.764 167.872 236.148 167.84C236.532 167.808 236.9 167.792 237.252 167.792C237.316 168.704 237.444 169.448 237.636 170.024C237.844 170.584 238.164 170.992 238.596 171.248C239.028 171.504 239.604 171.632 240.324 171.632C241.268 171.632 241.948 171.432 242.364 171.032C242.78 170.616 242.988 170.144 242.988 169.616C242.988 169.056 242.796 168.592 242.412 168.224C242.028 167.84 241.54 167.504 240.948 167.216C240.356 166.928 239.724 166.632 239.052 166.328C238.396 166.024 237.764 165.656 237.156 165.224C236.564 164.792 236.076 164.256 235.692 163.616C235.324 162.976 235.14 162.176 235.14 161.216C235.14 160.16 235.372 159.288 235.836 158.6C236.316 157.912 236.956 157.4 237.756 157.064C238.572 156.728 239.484 156.56 240.492 156.56C241.084 156.56 241.668 156.608 242.244 156.704C242.82 156.8 243.348 156.928 243.828 157.088C244.308 157.232 244.7 157.408 245.004 157.616C245.004 158.192 245.012 158.808 245.028 159.464C245.044 160.104 245.084 160.624 245.148 161.024C244.892 161.168 244.556 161.272 244.14 161.336C243.74 161.384 243.38 161.408 243.06 161.408C242.916 160.512 242.716 159.824 242.46 159.344C242.22 158.864 241.916 158.536 241.548 158.36C241.196 158.168 240.78 158.072 240.3 158.072C239.644 158.072 239.108 158.232 238.692 158.552C238.276 158.856 238.068 159.312 238.068 159.92C238.068 160.512 238.26 161.008 238.644 161.408C239.044 161.808 239.548 162.16 240.156 162.464C240.78 162.768 241.436 163.08 242.124 163.4C242.828 163.72 243.484 164.096 244.092 164.528C244.716 164.944 245.228 165.464 245.628 166.088C246.028 166.712 246.228 167.488 246.228 168.416C246.228 169.328 246.004 170.152 245.556 170.888C245.108 171.608 244.444 172.176 243.564 172.592C242.684 173.008 241.572 173.216 240.228 173.216ZM252.871 173.072C252.871 172.736 252.879 172.456 252.895 172.232C252.927 171.992 252.967 171.784 253.015 171.608C253.447 171.576 253.783 171.496 254.023 171.368C254.263 171.24 254.423 171.008 254.503 170.672C254.599 170.32 254.647 169.832 254.647 169.208V160.544C254.647 159.92 254.607 159.448 254.527 159.128C254.447 158.792 254.287 158.56 254.047 158.432C253.823 158.304 253.495 158.216 253.063 158.168C252.999 157.992 252.951 157.784 252.919 157.544C252.887 157.288 252.871 157.008 252.871 156.704C253.575 156.72 254.231 156.736 254.839 156.752C255.463 156.768 256.015 156.776 256.495 156.776C256.863 156.776 257.311 156.776 257.839 156.776C258.367 156.76 258.871 156.752 259.351 156.752C259.831 156.736 260.183 156.728 260.407 156.728C261.927 156.728 263.119 156.944 263.983 157.376C264.847 157.808 265.455 158.392 265.807 159.128C266.175 159.848 266.359 160.664 266.359 161.576C266.359 162.648 266.135 163.624 265.687 164.504C265.255 165.384 264.615 166.088 263.767 166.616C262.919 167.144 261.863 167.408 260.599 167.408C259.927 167.408 259.375 167.32 258.943 167.144C258.895 166.888 258.879 166.648 258.895 166.424C258.927 166.184 258.983 165.968 259.063 165.776C259.207 165.808 259.351 165.832 259.495 165.848C259.655 165.864 259.807 165.872 259.951 165.872C260.415 165.872 260.847 165.768 261.247 165.56C261.663 165.336 261.999 164.968 262.255 164.456C262.511 163.928 262.639 163.2 262.639 162.272C262.639 161.072 262.375 160.096 261.847 159.344C261.319 158.592 260.479 158.216 259.327 158.216C259.135 158.216 258.927 158.232 258.703 158.264C258.495 158.296 258.247 158.36 257.959 158.456L258.247 158.072V168.848C258.247 169.536 258.319 170.072 258.463 170.456C258.623 170.84 258.871 171.12 259.207 171.296C259.559 171.456 260.031 171.56 260.623 171.608C260.703 171.8 260.751 172.024 260.767 172.28C260.783 172.536 260.791 172.8 260.791 173.072C260.519 173.056 260.167 173.04 259.735 173.024C259.319 173.024 258.863 173.016 258.367 173C257.887 173 257.407 173 256.927 173C256.479 173 255.991 173 255.463 173C254.951 173.016 254.463 173.024 253.999 173.024C253.551 173.04 253.175 173.056 252.871 173.072ZM273.515 173.216C272.251 173.216 271.171 172.992 270.275 172.544C269.379 172.08 268.699 171.432 268.235 170.6C267.787 169.752 267.563 168.76 267.563 167.624C267.563 166.392 267.827 165.344 268.355 164.48C268.883 163.6 269.603 162.936 270.515 162.488C271.443 162.024 272.475 161.792 273.611 161.792C274.923 161.792 276.019 162.032 276.899 162.512C277.795 162.992 278.467 163.656 278.915 164.504C279.379 165.336 279.611 166.304 279.611 167.408C279.611 168.576 279.363 169.6 278.867 170.48C278.371 171.344 277.667 172.016 276.755 172.496C275.843 172.976 274.763 173.216 273.515 173.216ZM273.827 171.704C274.579 171.704 275.139 171.352 275.507 170.648C275.891 169.928 276.083 169.032 276.083 167.96C276.083 166.936 275.955 166.072 275.699 165.368C275.443 164.664 275.107 164.136 274.691 163.784C274.275 163.432 273.819 163.256 273.323 163.256C272.571 163.256 272.011 163.608 271.643 164.312C271.275 165 271.091 165.864 271.091 166.904C271.091 167.832 271.195 168.664 271.403 169.4C271.627 170.12 271.947 170.688 272.363 171.104C272.779 171.504 273.267 171.704 273.827 171.704ZM286.364 168.848C286.364 169.536 286.436 170.072 286.58 170.456C286.74 170.84 286.988 171.12 287.324 171.296C287.676 171.456 288.148 171.56 288.74 171.608C288.82 171.8 288.868 172.024 288.884 172.28C288.9 172.536 288.908 172.8 288.908 173.072C288.636 173.056 288.292 173.04 287.876 173.024C287.476 173.024 287.044 173.016 286.58 173C286.116 173 285.66 173 285.212 173C284.492 173 283.748 173 282.98 173C282.212 173.016 281.604 173.04 281.156 173.072C281.156 172.736 281.164 172.456 281.18 172.232C281.212 171.992 281.252 171.784 281.3 171.608C281.732 171.576 282.068 171.496 282.308 171.368C282.548 171.24 282.708 171.008 282.788 170.672C282.884 170.32 282.932 169.832 282.932 169.208V167.552H286.364V168.848ZM286.364 165.92V167.984H282.932V165.368L286.364 163.088C286.364 163.488 286.316 163.896 286.22 164.312C286.14 164.712 286.036 165.192 285.908 165.752L286.364 165.92ZM285.836 165.848C285.964 165.48 286.092 165.112 286.22 164.744C286.348 164.376 286.468 164.096 286.58 163.904C286.932 163.344 287.364 162.88 287.876 162.512C288.388 162.144 288.964 161.96 289.604 161.96C290.228 161.96 290.796 162.152 291.308 162.536C291.26 162.856 291.212 163.224 291.164 163.64C291.132 164.04 291.108 164.448 291.092 164.864C291.092 165.28 291.1 165.664 291.116 166.016C290.876 166.112 290.556 166.184 290.156 166.232C289.772 166.28 289.428 166.304 289.124 166.304C289.108 165.664 289.012 165.224 288.836 164.984C288.66 164.728 288.412 164.6 288.092 164.6C287.852 164.6 287.596 164.744 287.324 165.032C287.052 165.304 286.82 165.672 286.628 166.136C286.452 166.584 286.364 167.072 286.364 167.6L285.836 165.848ZM282.932 167.984V165.896C282.932 165.432 282.892 165.072 282.812 164.816C282.748 164.544 282.588 164.344 282.332 164.216C282.092 164.072 281.708 163.984 281.18 163.952C281.18 163.712 281.196 163.48 281.228 163.256C281.276 163.016 281.356 162.792 281.468 162.584C282.316 162.584 283.132 162.504 283.916 162.344C284.716 162.168 285.3 161.984 285.668 161.792C285.892 161.872 286.06 162.016 286.172 162.224C286.3 162.416 286.364 162.704 286.364 163.088L282.932 167.984ZM297.13 173.216C296.026 173.216 295.194 172.928 294.634 172.352C294.074 171.776 293.794 170.808 293.794 169.448V164.048C293.538 163.952 293.274 163.88 293.002 163.832C292.73 163.784 292.402 163.752 292.018 163.736C292.018 163.448 292.034 163.192 292.066 162.968C292.114 162.744 292.194 162.504 292.306 162.248H293.794V159.296C294.322 159.216 294.842 159.072 295.354 158.864C295.866 158.64 296.29 158.392 296.626 158.12C296.85 158.216 297.002 158.352 297.082 158.528C297.162 158.704 297.202 159.056 297.202 159.584V162.248H300.154C300.154 162.536 300.138 162.808 300.106 163.064C300.074 163.304 300.018 163.536 299.938 163.76C299.394 163.76 298.898 163.792 298.45 163.856C298.002 163.92 297.586 164.008 297.202 164.12V169.04C297.202 169.68 297.242 170.184 297.322 170.552C297.418 170.904 297.562 171.152 297.754 171.296C297.946 171.44 298.178 171.512 298.45 171.512C298.722 171.512 298.978 171.48 299.218 171.416C299.474 171.336 299.714 171.232 299.938 171.104C300.162 171.392 300.282 171.784 300.298 172.28C299.978 172.552 299.522 172.776 298.93 172.952C298.354 173.128 297.754 173.216 297.13 173.216ZM309.49 173.216C309.218 173.104 309.026 172.944 308.914 172.736C308.802 172.512 308.746 172.208 308.746 171.824C308.746 171.632 308.762 171.408 308.794 171.152C308.826 170.88 308.882 170.624 308.962 170.384L309.034 170.312C308.922 170.728 308.762 171.112 308.554 171.464C308.346 171.8 308.098 172.08 307.81 172.304C307.49 172.592 307.098 172.808 306.634 172.952C306.186 173.096 305.65 173.168 305.026 173.168C303.954 173.168 303.122 172.936 302.53 172.472C301.938 172.008 301.642 171.344 301.642 170.48C301.642 169.872 301.778 169.352 302.05 168.92C302.338 168.472 302.722 168.096 303.202 167.792C303.682 167.488 304.218 167.24 304.81 167.048C305.402 166.856 306.002 166.704 306.61 166.592C307.234 166.48 307.818 166.384 308.362 166.304C308.362 165.84 308.346 165.456 308.314 165.152C308.298 164.832 308.25 164.568 308.17 164.36C308.106 164.136 307.994 163.944 307.834 163.784C307.658 163.56 307.45 163.408 307.21 163.328C306.986 163.232 306.746 163.184 306.49 163.184C306.042 163.184 305.682 163.32 305.41 163.592C305.154 163.848 304.962 164.184 304.834 164.6C304.706 165.016 304.626 165.44 304.594 165.872C304.21 165.872 303.85 165.856 303.514 165.824C303.178 165.792 302.882 165.728 302.626 165.632C302.658 165.2 302.666 164.736 302.65 164.24C302.634 163.744 302.578 163.248 302.482 162.752C303.154 162.448 303.922 162.208 304.786 162.032C305.666 161.856 306.49 161.768 307.258 161.768C308.17 161.768 308.906 161.88 309.466 162.104C310.026 162.312 310.45 162.56 310.738 162.848C311.074 163.2 311.33 163.68 311.506 164.288C311.698 164.88 311.794 165.736 311.794 166.856V168.944C311.794 169.456 311.826 169.856 311.89 170.144C311.954 170.416 312.082 170.608 312.274 170.72C312.482 170.832 312.794 170.896 313.21 170.912C313.242 171.168 313.242 171.432 313.21 171.704C313.178 171.96 313.106 172.2 312.994 172.424C312.418 172.44 311.818 172.52 311.194 172.664C310.586 172.792 310.018 172.976 309.49 173.216ZM306.226 171.176C306.546 171.176 306.874 171.072 307.21 170.864C307.546 170.64 307.818 170.312 308.026 169.88C308.25 169.448 308.362 168.896 308.362 168.224V167.576C307.898 167.656 307.458 167.752 307.042 167.864C306.642 167.976 306.29 168.12 305.986 168.296C305.698 168.456 305.474 168.664 305.314 168.92C305.154 169.16 305.074 169.464 305.074 169.832C305.074 170.312 305.186 170.656 305.41 170.864C305.65 171.072 305.922 171.176 306.226 171.176ZM314.527 173.072C314.527 172.784 314.535 172.52 314.551 172.28C314.583 172.024 314.631 171.8 314.695 171.608C315.335 171.592 315.759 171.44 315.967 171.152C316.191 170.864 316.303 170.32 316.303 169.52V159.536C316.303 159.184 316.255 158.904 316.159 158.696C316.063 158.472 315.887 158.304 315.631 158.192C315.375 158.064 314.999 157.984 314.503 157.952C314.503 157.712 314.519 157.48 314.551 157.256C314.599 157.016 314.671 156.792 314.767 156.584C315.311 156.584 315.863 156.544 316.423 156.464C316.999 156.384 317.519 156.288 317.983 156.176C318.447 156.048 318.791 155.92 319.015 155.792C319.223 155.872 319.391 156.016 319.519 156.224C319.647 156.416 319.711 156.696 319.711 157.064V169.52C319.711 170.32 319.815 170.864 320.023 171.152C320.231 171.44 320.631 171.592 321.223 171.608C321.287 171.8 321.327 172.032 321.343 172.304C321.359 172.56 321.367 172.816 321.367 173.072C321.143 173.056 320.839 173.04 320.455 173.024C320.087 173.024 319.687 173.016 319.255 173C318.823 173 318.391 173 317.959 173C317.527 173 317.087 173 316.639 173C316.191 173.016 315.783 173.024 315.415 173.024C315.047 173.04 314.751 173.056 314.527 173.072Z" fill="#2F3E46"/>
<rect x="0.5" y="0.5" width="370" height="454" stroke="black"/>
</g>
<defs>
<filter id="filter0_d_9_16" x="0" y="0" width="379" height="463" filterUnits="userSpaceOnUse" color-interpolation-filters="sRGB">
<feFlood flood-opacity="0" result="BackgroundImageFix"/>
<feColorMatrix in="SourceAlpha" type="matrix" values="0 0 0 0 0 0 0 0 0 0 0 0 0 0 0 0 0 0 127 0" result="hardAlpha"/>
<feOffset dx="8" dy="8"/>
<feComposite in2="hardAlpha" operator="out"/>
<feColorMatrix type="matrix" values="0 0 0 0 0.207843 0 0 0 0 0.309804 0 0 0 0 0.321569 0 0 0 1 0"/>
<feBlend mode="normal" in2="BackgroundImageFix" result="effect1_dropShadow_9_16"/>
<feBlend mode="normal" in="SourceGraphic" in2="effect1_dropShadow_9_16" result="shape"/>
</filter>
</defs>
</svg>
