<svg width="379" height="463" viewBox="0 0 379 463" fill="none" xmlns="http://www.w3.org/2000/svg">
<g filter="url(#filter0_d_9_7)">
<rect width="371" height="455" fill="white"/>
<rect x="0.5" y="0.5" width="370" height="31" fill="white" stroke="black"/>
<circle cx="27" cy="16" r="8" fill="#DC2525"/>
<circle cx="55" cy="16" r="8" fill="#CDC615"/>
<circle cx="83" cy="16" r="8" fill="#0F8C0D"/>
<path d="M88.0619 220.384L66.5579 191.776C66.2059 191.264 65.8219 190.928 65.4059 190.768C64.9899 190.576 64.3179 190.432 63.3899 190.336C63.2939 189.888 63.2139 189.408 63.1499 188.896C63.1179 188.384 63.1019 187.888 63.1019 187.408C63.4539 187.44 63.9339 187.472 64.5419 187.504C65.1819 187.504 65.8219 187.52 66.4619 187.552C67.1019 187.552 67.6459 187.552 68.0939 187.552C68.8299 187.552 69.6139 187.552 70.4459 187.552C71.2779 187.52 71.9499 187.472 72.4619 187.408L88.9739 209.632L88.0619 220.384ZM63.1019 220.144C63.1019 219.536 63.1179 218.992 63.1499 218.512C63.1819 218.032 63.2619 217.6 63.3899 217.216C64.3179 217.152 65.0379 216.928 65.5499 216.544C66.0939 216.128 66.4619 215.424 66.6539 214.432C66.8779 213.44 66.9899 212.048 66.9899 210.256V190.576L70.0619 190.816V210.256C70.0619 212.048 70.1579 213.44 70.3499 214.432C70.5419 215.424 70.8939 216.128 71.4059 216.544C71.9499 216.928 72.6859 217.152 73.6139 217.216C73.7419 217.6 73.8219 218.048 73.8539 218.56C73.8859 219.072 73.9019 219.6 73.9019 220.144C73.4539 220.112 72.9099 220.08 72.2699 220.048C71.6299 220.048 70.9899 220.032 70.3499 220C69.7099 220 69.1339 220 68.6219 220C68.1099 220 67.4859 220 66.7499 220C66.0459 220.032 65.3579 220.048 64.6859 220.048C64.0139 220.08 63.4859 220.112 63.1019 220.144ZM88.0619 220.384L88.3019 213.328V197.2C88.3019 195.408 88.2059 194.032 88.0139 193.072C87.8219 192.112 87.4539 191.44 86.9099 191.056C86.3659 190.64 85.5979 190.4 84.6059 190.336C84.4779 189.792 84.3819 189.28 84.3179 188.8C84.2859 188.288 84.2699 187.824 84.2699 187.408C84.7499 187.44 85.3099 187.472 85.9499 187.504C86.6219 187.504 87.2939 187.52 87.9659 187.552C88.6379 187.552 89.2299 187.552 89.7419 187.552C90.4779 187.552 91.3099 187.536 92.2379 187.504C93.1979 187.472 93.9819 187.44 94.5899 187.408C94.5899 187.888 94.5739 188.384 94.5419 188.896C94.5099 189.376 94.4299 189.856 94.3019 190.336C93.5019 190.4 92.8939 190.624 92.4779 191.008C92.0619 191.392 91.7579 192.064 91.5659 193.024C91.4059 193.984 91.3259 195.376 91.3259 197.2V220C90.8779 220.16 90.3819 220.256 89.8379 220.288C89.2939 220.352 88.7019 220.384 88.0619 220.384ZM113.722 220.432C113.178 220.208 112.794 219.888 112.57 219.472C112.346 219.024 112.234 218.416 112.234 217.648C112.234 217.264 112.266 216.816 112.33 216.304C112.394 215.76 112.506 215.248 112.666 214.768L112.81 214.624C112.586 215.456 112.266 216.224 111.85 216.928C111.434 217.6 110.938 218.16 110.362 218.608C109.722 219.184 108.938 219.616 108.01 219.904C107.114 220.192 106.042 220.336 104.794 220.336C102.65 220.336 100.986 219.872 99.802 218.944C98.618 218.016 98.026 216.688 98.026 214.96C98.026 213.744 98.298 212.704 98.842 211.84C99.418 210.944 100.186 210.192 101.146 209.584C102.106 208.976 103.178 208.48 104.362 208.096C105.546 207.712 106.746 207.408 107.962 207.184C109.21 206.96 110.378 206.768 111.466 206.608C111.466 205.68 111.434 204.912 111.37 204.304C111.338 203.664 111.242 203.136 111.082 202.72C110.954 202.272 110.73 201.888 110.41 201.568C110.058 201.12 109.642 200.816 109.162 200.656C108.714 200.464 108.234 200.368 107.722 200.368C106.826 200.368 106.106 200.64 105.562 201.184C105.05 201.696 104.666 202.368 104.41 203.2C104.154 204.032 103.994 204.88 103.93 205.744C103.162 205.744 102.442 205.712 101.77 205.648C101.098 205.584 100.506 205.456 99.994 205.264C100.058 204.4 100.074 203.472 100.042 202.48C100.01 201.488 99.898 200.496 99.706 199.504C101.05 198.896 102.586 198.416 104.314 198.064C106.074 197.712 107.722 197.536 109.258 197.536C111.082 197.536 112.554 197.76 113.674 198.208C114.794 198.624 115.642 199.12 116.218 199.696C116.89 200.4 117.402 201.36 117.754 202.576C118.138 203.76 118.33 205.472 118.33 207.712V211.888C118.33 212.912 118.394 213.712 118.522 214.288C118.65 214.832 118.906 215.216 119.29 215.44C119.706 215.664 120.33 215.792 121.162 215.824C121.226 216.336 121.226 216.864 121.162 217.408C121.098 217.92 120.954 218.4 120.73 218.848C119.578 218.88 118.378 219.04 117.13 219.328C115.914 219.584 114.778 219.952 113.722 220.432ZM107.194 216.352C107.834 216.352 108.49 216.144 109.162 215.728C109.834 215.28 110.378 214.624 110.794 213.76C111.242 212.896 111.466 211.792 111.466 210.448V209.152C110.538 209.312 109.658 209.504 108.826 209.728C108.026 209.952 107.322 210.24 106.714 210.592C106.138 210.912 105.69 211.328 105.37 211.84C105.05 212.32 104.89 212.928 104.89 213.664C104.89 214.624 105.114 215.312 105.562 215.728C106.042 216.144 106.586 216.352 107.194 216.352ZM132.568 220.432C132.216 219.536 131.768 218.496 131.224 217.312C130.712 216.128 130.152 214.88 129.544 213.568C128.968 212.224 128.376 210.928 127.768 209.68C127.192 208.4 126.648 207.248 126.136 206.224C125.656 205.168 125.256 204.336 124.936 203.728C124.584 202.96 124.264 202.384 123.976 202C123.688 201.616 123.384 201.344 123.064 201.184C122.776 200.992 122.424 200.864 122.008 200.8C121.88 200.384 121.768 199.936 121.672 199.456C121.608 198.944 121.576 198.416 121.576 197.872C122.28 197.904 123.192 197.936 124.312 197.968C125.464 198 126.664 198.016 127.912 198.016C128.744 198.016 129.608 198.016 130.504 198.016C131.4 197.984 132.232 197.968 133 197.968C133.8 197.936 134.456 197.904 134.968 197.872C134.968 198.352 134.92 198.864 134.824 199.408C134.728 199.952 134.616 200.4 134.488 200.752C133.176 200.88 132.408 201.152 132.184 201.568C131.96 201.952 132.136 202.752 132.712 203.968C133.032 204.608 133.368 205.36 133.72 206.224C134.072 207.056 134.44 207.968 134.824 208.96C135.24 209.952 135.64 210.96 136.024 211.984C136.408 213.008 136.76 214.016 137.08 215.008H135.832C136.536 213.024 137.208 211.264 137.848 209.728C138.488 208.192 139.128 206.672 139.768 205.168C140.408 203.568 140.584 202.464 140.296 201.856C140.008 201.248 139.32 200.896 138.232 200.8C138.072 200.416 137.944 199.952 137.848 199.408C137.752 198.864 137.704 198.352 137.704 197.872C138.344 197.904 139.064 197.936 139.864 197.968C140.664 198 141.496 198.016 142.36 198.016C143.224 198.016 144.072 198 144.904 197.968C145.736 197.936 146.472 197.904 147.112 197.872C147.112 198.384 147.064 198.912 146.968 199.456C146.904 200 146.776 200.448 146.584 200.8C146.072 200.928 145.624 201.136 145.24 201.424C144.856 201.68 144.488 202.08 144.136 202.624C143.816 203.168 143.464 203.936 143.08 204.928L136.456 219.856C136.008 220.08 135.416 220.24 134.68 220.336C133.944 220.464 133.24 220.496 132.568 220.432ZM149.351 220.144C149.351 219.568 149.367 219.04 149.399 218.56C149.463 218.048 149.559 217.6 149.687 217.216C150.967 217.184 151.815 216.88 152.231 216.304C152.679 215.728 152.903 214.64 152.903 213.04V205.312C152.903 204.544 152.823 203.92 152.663 203.44C152.503 202.96 152.167 202.608 151.655 202.384C151.143 202.128 150.375 201.968 149.351 201.904C149.351 201.424 149.383 200.96 149.447 200.512C149.511 200.032 149.655 199.584 149.879 199.168C150.935 199.168 152.023 199.088 153.143 198.928C154.295 198.768 155.335 198.576 156.263 198.352C157.223 198.096 157.927 197.84 158.375 197.584C158.791 197.744 159.127 198.032 159.383 198.448C159.639 198.832 159.767 199.392 159.767 200.128V213.04C159.767 214.64 159.975 215.728 160.391 216.304C160.807 216.88 161.591 217.184 162.743 217.216C162.871 217.6 162.951 218.064 162.983 218.608C163.047 219.12 163.079 219.632 163.079 220.144C162.599 220.112 161.991 220.08 161.255 220.048C160.519 220.048 159.719 220.032 158.855 220C157.991 220 157.127 220 156.263 220C155.399 220 154.519 220 153.623 220C152.727 220.032 151.911 220.048 151.175 220.048C150.439 220.08 149.831 220.112 149.351 220.144ZM155.735 193.792C154.583 193.792 153.639 193.488 152.903 192.88C152.199 192.24 151.847 191.424 151.847 190.432C151.847 189.28 152.247 188.384 153.047 187.744C153.847 187.104 154.807 186.784 155.927 186.784C157.239 186.784 158.247 187.104 158.951 187.744C159.655 188.384 160.007 189.264 160.007 190.384C160.007 191.344 159.623 192.16 158.855 192.832C158.087 193.472 157.047 193.792 155.735 193.792ZM175.249 231.952C172.945 231.952 171.121 231.696 169.777 231.184C168.465 230.672 167.521 229.968 166.945 229.072C166.369 228.208 166.081 227.184 166.081 226C166.081 224.784 166.433 223.728 167.137 222.832C167.841 221.936 168.881 221.28 170.257 220.864L173.425 221.392C172.721 222 172.241 222.544 171.985 223.024C171.761 223.504 171.649 224.064 171.649 224.704C171.649 226.08 172.033 227.104 172.801 227.776C173.601 228.448 174.929 228.784 176.785 228.784C178.801 228.784 180.369 228.384 181.489 227.584C182.641 226.784 183.217 225.824 183.217 224.704C183.217 224.128 183.057 223.68 182.737 223.36C182.449 223.04 181.873 222.8 181.009 222.64C180.177 222.48 178.945 222.4 177.313 222.4C175.905 222.4 174.609 222.336 173.425 222.208C172.241 222.08 171.201 221.84 170.305 221.488C169.409 221.136 168.705 220.624 168.193 219.952C167.713 219.248 167.473 218.336 167.473 217.216C167.473 215.904 167.825 214.768 168.529 213.808C169.233 212.848 170.033 212.016 170.929 211.312L174.193 212.464C173.713 212.784 173.329 213.12 173.041 213.472C172.753 213.792 172.609 214.128 172.609 214.48C172.609 215.056 172.881 215.456 173.425 215.68C173.969 215.904 174.801 216.048 175.921 216.112C177.041 216.144 178.449 216.176 180.145 216.208C182.033 216.208 183.649 216.368 184.993 216.688C186.337 217.008 187.377 217.584 188.113 218.416C188.849 219.216 189.217 220.4 189.217 221.968C189.217 223.312 188.881 224.576 188.209 225.76C187.537 226.976 186.593 228.048 185.377 228.976C184.161 229.904 182.689 230.624 180.961 231.136C179.265 231.68 177.361 231.952 175.249 231.952ZM176.881 213.28C174.833 213.28 173.041 212.992 171.505 212.416C170.001 211.808 168.833 210.928 168.001 209.776C167.169 208.624 166.753 207.2 166.753 205.504C166.753 203.872 167.121 202.48 167.857 201.328C168.625 200.144 169.745 199.232 171.217 198.592C172.689 197.92 174.449 197.584 176.497 197.584C178.417 197.584 180.049 197.84 181.393 198.352C182.737 198.864 183.841 199.536 184.705 200.368C185.569 201.168 186.209 202.048 186.625 203.008C187.041 203.936 187.249 204.832 187.249 205.696C187.249 207.104 186.865 208.384 186.097 209.536C185.329 210.688 184.177 211.6 182.641 212.272C181.105 212.944 179.185 213.28 176.881 213.28ZM177.505 210.448C178.465 210.448 179.201 210.064 179.713 209.296C180.257 208.496 180.529 207.328 180.529 205.792C180.529 204.096 180.193 202.736 179.521 201.712C178.849 200.656 177.905 200.128 176.689 200.128C175.633 200.128 174.849 200.576 174.337 201.472C173.825 202.336 173.569 203.456 173.569 204.832C173.569 206.656 173.905 208.048 174.577 209.008C175.281 209.968 176.257 210.448 177.505 210.448ZM189.697 201.712C189.153 201.52 188.561 201.36 187.921 201.232C187.313 201.104 186.705 200.992 186.097 200.896C185.521 200.8 184.977 200.752 184.465 200.752L179.857 198.016H189.217C189.409 198.496 189.537 199.056 189.601 199.696C189.665 200.336 189.697 201.008 189.697 201.712ZM208.456 220.432C207.912 220.208 207.528 219.888 207.304 219.472C207.08 219.024 206.968 218.416 206.968 217.648C206.968 217.264 207 216.816 207.064 216.304C207.128 215.76 207.24 215.248 207.4 214.768L207.544 214.624C207.32 215.456 207 216.224 206.584 216.928C206.168 217.6 205.672 218.16 205.096 218.608C204.456 219.184 203.672 219.616 202.744 219.904C201.848 220.192 200.776 220.336 199.528 220.336C197.384 220.336 195.72 219.872 194.536 218.944C193.352 218.016 192.76 216.688 192.76 214.96C192.76 213.744 193.032 212.704 193.576 211.84C194.152 210.944 194.92 210.192 195.88 209.584C196.84 208.976 197.912 208.48 199.096 208.096C200.28 207.712 201.48 207.408 202.696 207.184C203.944 206.96 205.112 206.768 206.2 206.608C206.2 205.68 206.168 204.912 206.104 204.304C206.072 203.664 205.976 203.136 205.816 202.72C205.688 202.272 205.464 201.888 205.144 201.568C204.792 201.12 204.376 200.816 203.896 200.656C203.448 200.464 202.968 200.368 202.456 200.368C201.56 200.368 200.84 200.64 200.296 201.184C199.784 201.696 199.4 202.368 199.144 203.2C198.888 204.032 198.728 204.88 198.664 205.744C197.896 205.744 197.176 205.712 196.504 205.648C195.832 205.584 195.24 205.456 194.728 205.264C194.792 204.4 194.808 203.472 194.776 202.48C194.744 201.488 194.632 200.496 194.44 199.504C195.784 198.896 197.32 198.416 199.048 198.064C200.808 197.712 202.456 197.536 203.992 197.536C205.816 197.536 207.288 197.76 208.408 198.208C209.528 198.624 210.376 199.12 210.952 199.696C211.624 200.4 212.136 201.36 212.488 202.576C212.872 203.76 213.064 205.472 213.064 207.712V211.888C213.064 212.912 213.128 213.712 213.256 214.288C213.384 214.832 213.64 215.216 214.024 215.44C214.44 215.664 215.064 215.792 215.896 215.824C215.96 216.336 215.96 216.864 215.896 217.408C215.832 217.92 215.688 218.4 215.464 218.848C214.312 218.88 213.112 219.04 211.864 219.328C210.648 219.584 209.512 219.952 208.456 220.432ZM201.928 216.352C202.568 216.352 203.224 216.144 203.896 215.728C204.568 215.28 205.112 214.624 205.528 213.76C205.976 212.896 206.2 211.792 206.2 210.448V209.152C205.272 209.312 204.392 209.504 203.56 209.728C202.76 209.952 202.056 210.24 201.448 210.592C200.872 210.912 200.424 211.328 200.104 211.84C199.784 212.32 199.624 212.928 199.624 213.664C199.624 214.624 199.848 215.312 200.296 215.728C200.776 216.144 201.32 216.352 201.928 216.352ZM227.425 220.432C225.217 220.432 223.553 219.856 222.433 218.704C221.313 217.552 220.753 215.616 220.753 212.896V202.096C220.241 201.904 219.713 201.76 219.169 201.664C218.625 201.568 217.969 201.504 217.201 201.472C217.201 200.896 217.233 200.384 217.297 199.936C217.393 199.488 217.553 199.008 217.777 198.496H220.753V192.592C221.809 192.432 222.849 192.144 223.873 191.728C224.897 191.28 225.745 190.784 226.417 190.24C226.865 190.432 227.169 190.704 227.329 191.056C227.489 191.408 227.569 192.112 227.569 193.168V198.496H233.473C233.473 199.072 233.441 199.616 233.377 200.128C233.313 200.608 233.201 201.072 233.041 201.52C231.953 201.52 230.961 201.584 230.065 201.712C229.169 201.84 228.337 202.016 227.569 202.24V212.08C227.569 213.36 227.649 214.368 227.809 215.104C228.001 215.808 228.289 216.304 228.673 216.592C229.057 216.88 229.521 217.024 230.065 217.024C230.609 217.024 231.121 216.96 231.601 216.832C232.113 216.672 232.593 216.464 233.041 216.208C233.489 216.784 233.729 217.568 233.761 218.56C233.121 219.104 232.209 219.552 231.025 219.904C229.873 220.256 228.673 220.432 227.425 220.432ZM236.304 220.144C236.304 219.568 236.32 219.04 236.352 218.56C236.416 218.048 236.512 217.6 236.64 217.216C237.92 217.184 238.768 216.88 239.184 216.304C239.632 215.728 239.856 214.64 239.856 213.04V205.312C239.856 204.544 239.776 203.92 239.616 203.44C239.456 202.96 239.12 202.608 238.608 202.384C238.096 202.128 237.328 201.968 236.304 201.904C236.304 201.424 236.336 200.96 236.4 200.512C236.464 200.032 236.608 199.584 236.832 199.168C237.888 199.168 238.976 199.088 240.096 198.928C241.248 198.768 242.288 198.576 243.216 198.352C244.176 198.096 244.88 197.84 245.328 197.584C245.744 197.744 246.08 198.032 246.336 198.448C246.592 198.832 246.72 199.392 246.72 200.128V213.04C246.72 214.64 246.928 215.728 247.344 216.304C247.76 216.88 248.544 217.184 249.696 217.216C249.824 217.6 249.904 218.064 249.936 218.608C250 219.12 250.032 219.632 250.032 220.144C249.552 220.112 248.944 220.08 248.208 220.048C247.472 220.048 246.672 220.032 245.808 220C244.944 220 244.08 220 243.216 220C242.352 220 241.472 220 240.576 220C239.68 220.032 238.864 220.048 238.128 220.048C237.392 220.08 236.784 220.112 236.304 220.144ZM242.688 193.792C241.536 193.792 240.592 193.488 239.856 192.88C239.152 192.24 238.8 191.424 238.8 190.432C238.8 189.28 239.2 188.384 240 187.744C240.8 187.104 241.76 186.784 242.88 186.784C244.192 186.784 245.2 187.104 245.904 187.744C246.608 188.384 246.96 189.264 246.96 190.384C246.96 191.344 246.576 192.16 245.808 192.832C245.04 193.472 244 193.792 242.688 193.792ZM256.778 209.968V205.792C256.778 204.864 256.698 204.144 256.538 203.632C256.41 203.088 256.09 202.688 255.578 202.432C255.098 202.144 254.33 201.968 253.274 201.904C253.274 201.424 253.306 200.96 253.37 200.512C253.466 200.032 253.626 199.584 253.85 199.168C255.546 199.168 257.178 199.008 258.746 198.688C260.346 198.336 261.514 197.968 262.25 197.584C262.698 197.744 263.034 198.032 263.258 198.448C263.514 198.832 263.642 199.408 263.642 200.176L256.778 209.968ZM278.858 213.04C278.858 214.64 279.034 215.744 279.386 216.352C279.77 216.928 280.394 217.216 281.258 217.216C281.418 217.6 281.514 218.032 281.546 218.512C281.61 218.96 281.642 219.504 281.642 220.144C280.938 220.112 280.026 220.08 278.906 220.048C277.818 220.016 276.746 220 275.69 220C274.986 220 274.186 220 273.29 220C272.426 220.032 271.594 220.048 270.794 220.048C269.994 220.08 269.354 220.112 268.874 220.144C268.874 219.568 268.89 219.04 268.922 218.56C268.954 218.08 269.05 217.632 269.21 217.216C270.106 217.216 270.794 216.896 271.274 216.256C271.754 215.616 271.994 214.448 271.994 212.752V207.52C271.994 205.504 271.674 204.112 271.034 203.344C270.394 202.544 269.482 202.144 268.298 202.144C267.53 202.144 266.778 202.448 266.042 203.056C265.338 203.632 264.762 204.496 264.314 205.648C263.866 206.768 263.642 208.176 263.642 209.872V213.04C263.642 214.672 263.85 215.776 264.266 216.352C264.714 216.928 265.418 217.216 266.378 217.216C266.57 217.664 266.682 218.112 266.714 218.56C266.746 219.008 266.762 219.536 266.762 220.144C266.314 220.112 265.706 220.08 264.938 220.048C264.17 220.048 263.37 220.032 262.538 220C261.738 220 260.97 220 260.234 220C259.498 220 258.682 220 257.786 220C256.89 220.032 256.026 220.048 255.194 220.048C254.362 220.08 253.706 220.112 253.226 220.144C253.226 219.536 253.258 218.976 253.322 218.464C253.386 217.952 253.482 217.536 253.61 217.216C254.858 217.216 255.69 216.928 256.106 216.352C256.554 215.744 256.778 214.64 256.778 213.04V205.792L263.642 200.176C263.642 200.56 263.594 201.008 263.498 201.52C263.434 202 263.322 202.512 263.162 203.056C263.354 202.672 263.546 202.288 263.738 201.904C263.93 201.52 264.186 201.152 264.506 200.8C265.146 200.064 266.042 199.392 267.194 198.784C268.346 198.144 269.674 197.824 271.178 197.824C272.522 197.824 273.77 198.08 274.922 198.592C276.106 199.104 277.05 199.936 277.754 201.088C278.49 202.24 278.858 203.76 278.858 205.648V213.04ZM293.842 231.952C291.538 231.952 289.714 231.696 288.37 231.184C287.058 230.672 286.114 229.968 285.538 229.072C284.962 228.208 284.674 227.184 284.674 226C284.674 224.784 285.026 223.728 285.73 222.832C286.434 221.936 287.474 221.28 288.85 220.864L292.018 221.392C291.314 222 290.834 222.544 290.578 223.024C290.354 223.504 290.242 224.064 290.242 224.704C290.242 226.08 290.626 227.104 291.394 227.776C292.194 228.448 293.522 228.784 295.378 228.784C297.394 228.784 298.962 228.384 300.082 227.584C301.234 226.784 301.81 225.824 301.81 224.704C301.81 224.128 301.65 223.68 301.33 223.36C301.042 223.04 300.466 222.8 299.602 222.64C298.77 222.48 297.538 222.4 295.906 222.4C294.498 222.4 293.202 222.336 292.018 222.208C290.834 222.08 289.794 221.84 288.898 221.488C288.002 221.136 287.298 220.624 286.786 219.952C286.306 219.248 286.066 218.336 286.066 217.216C286.066 215.904 286.418 214.768 287.122 213.808C287.826 212.848 288.626 212.016 289.522 211.312L292.786 212.464C292.306 212.784 291.922 213.12 291.634 213.472C291.346 213.792 291.202 214.128 291.202 214.48C291.202 215.056 291.474 215.456 292.018 215.68C292.562 215.904 293.394 216.048 294.514 216.112C295.634 216.144 297.042 216.176 298.738 216.208C300.626 216.208 302.242 216.368 303.586 216.688C304.93 217.008 305.97 217.584 306.706 218.416C307.442 219.216 307.81 220.4 307.81 221.968C307.81 223.312 307.474 224.576 306.802 225.76C306.13 226.976 305.186 228.048 303.97 228.976C302.754 229.904 301.282 230.624 299.554 231.136C297.858 231.68 295.954 231.952 293.842 231.952ZM295.474 213.28C293.426 213.28 291.634 212.992 290.098 212.416C288.594 211.808 287.426 210.928 286.594 209.776C285.762 208.624 285.346 207.2 285.346 205.504C285.346 203.872 285.714 202.48 286.45 201.328C287.218 200.144 288.338 199.232 289.81 198.592C291.282 197.92 293.042 197.584 295.09 197.584C297.01 197.584 298.642 197.84 299.986 198.352C301.33 198.864 302.434 199.536 303.298 200.368C304.162 201.168 304.802 202.048 305.218 203.008C305.634 203.936 305.842 204.832 305.842 205.696C305.842 207.104 305.458 208.384 304.69 209.536C303.922 210.688 302.77 211.6 301.234 212.272C299.698 212.944 297.778 213.28 295.474 213.28ZM296.098 210.448C297.058 210.448 297.794 210.064 298.306 209.296C298.85 208.496 299.122 207.328 299.122 205.792C299.122 204.096 298.786 202.736 298.114 201.712C297.442 200.656 296.498 200.128 295.282 200.128C294.226 200.128 293.442 200.576 292.93 201.472C292.418 202.336 292.162 203.456 292.162 204.832C292.162 206.656 292.498 208.048 293.17 209.008C293.874 209.968 294.85 210.448 296.098 210.448ZM308.29 201.712C307.746 201.52 307.154 201.36 306.514 201.232C305.906 201.104 305.298 200.992 304.69 200.896C304.114 200.8 303.57 200.752 303.058 200.752L298.45 198.016H307.81C308.002 198.496 308.13 199.056 308.194 199.696C308.258 200.336 308.29 201.008 308.29 201.712ZM52.1594 287.432C49.9514 287.432 48.2874 286.856 47.1674 285.704C46.0474 284.552 45.4874 282.616 45.4874 279.896V269.096C44.9754 268.904 44.4474 268.76 43.9034 268.664C43.3594 268.568 42.7034 268.504 41.9354 268.472C41.9354 267.896 41.9674 267.384 42.0314 266.936C42.1274 266.488 42.2874 266.008 42.5114 265.496H45.4874V259.592C46.5434 259.432 47.5834 259.144 48.6074 258.728C49.6314 258.28 50.4794 257.784 51.1514 257.24C51.5994 257.432 51.9034 257.704 52.0634 258.056C52.2234 258.408 52.3034 259.112 52.3034 260.168V265.496H58.2074C58.2074 266.072 58.1754 266.616 58.1114 267.128C58.0474 267.608 57.9354 268.072 57.7754 268.52C56.6874 268.52 55.6954 268.584 54.7994 268.712C53.9034 268.84 53.0714 269.016 52.3034 269.24V279.08C52.3034 280.36 52.3834 281.368 52.5434 282.104C52.7354 282.808 53.0234 283.304 53.4074 283.592C53.7914 283.88 54.2554 284.024 54.7994 284.024C55.3434 284.024 55.8554 283.96 56.3354 283.832C56.8474 283.672 57.3274 283.464 57.7754 283.208C58.2234 283.784 58.4634 284.568 58.4954 285.56C57.8554 286.104 56.9434 286.552 55.7594 286.904C54.6074 287.256 53.4074 287.432 52.1594 287.432ZM86.3343 280.04C86.3343 281.64 86.5103 282.744 86.8623 283.352C87.2463 283.928 87.8703 284.216 88.7343 284.216C88.8943 284.6 89.0063 285.032 89.0703 285.512C89.1343 285.96 89.1663 286.504 89.1663 287.144C88.4623 287.112 87.5503 287.08 86.4303 287.048C85.3103 287.016 84.2223 287 83.1663 287C82.4623 287 81.6623 287 80.7663 287C79.9023 287.032 79.0703 287.048 78.2703 287.048C77.4703 287.08 76.8303 287.112 76.3503 287.144C76.3503 286.568 76.3663 286.04 76.3983 285.56C76.4303 285.08 76.5423 284.632 76.7343 284.216C77.6303 284.216 78.3183 283.896 78.7983 283.256C79.2783 282.616 79.5183 281.448 79.5183 279.752V274.52C79.5183 272.504 79.1823 271.112 78.5103 270.344C77.8703 269.544 76.9743 269.144 75.8223 269.144C75.0223 269.144 74.2543 269.448 73.5182 270.056C72.8143 270.632 72.2383 271.496 71.7903 272.648C71.3423 273.768 71.1183 275.176 71.1183 276.872V280.04C71.1183 281.672 71.3263 282.776 71.7422 283.352C72.1903 283.928 72.8943 284.216 73.8543 284.216C74.0463 284.664 74.1583 285.112 74.1903 285.56C74.2543 286.008 74.2863 286.536 74.2863 287.144C73.8063 287.112 73.1823 287.08 72.4143 287.048C71.6783 287.048 70.8943 287.032 70.0623 287C69.2303 287 68.4463 287 67.7103 287C67.0063 287 66.1903 287 65.2623 287C64.3663 287.032 63.5023 287.048 62.6703 287.048C61.8703 287.08 61.2303 287.112 60.7503 287.144C60.7503 286.536 60.7663 285.976 60.7983 285.464C60.8623 284.952 60.9583 284.536 61.0863 284.216C62.3343 284.216 63.1823 283.928 63.6303 283.352C64.0783 282.744 64.3023 281.64 64.3023 280.04V272.792L71.1183 267.176C71.1183 267.56 71.0703 268.008 70.9743 268.52C70.9103 269 70.7983 269.512 70.6383 270.056C70.8303 269.672 71.0223 269.288 71.2143 268.904C71.4063 268.52 71.6623 268.152 71.9823 267.8C72.6223 267.064 73.5183 266.392 74.6703 265.784C75.8223 265.144 77.1663 264.824 78.7023 264.824C80.0143 264.824 81.2463 265.08 82.3983 265.592C83.5823 266.104 84.5263 266.936 85.2303 268.088C85.9663 269.24 86.3343 270.76 86.3343 272.648V280.04ZM64.3023 260.312C64.3023 259.544 64.2063 258.92 64.0143 258.44C63.8543 257.96 63.5183 257.608 63.0063 257.384C62.4943 257.128 61.7263 256.968 60.7023 256.904C60.7023 256.424 60.7343 255.96 60.7983 255.512C60.8943 255.032 61.0383 254.584 61.2303 254.168C62.3183 254.168 63.4223 254.088 64.5423 253.928C65.6943 253.768 66.7343 253.576 67.6623 253.352C68.5903 253.096 69.2783 252.84 69.7263 252.584C70.1423 252.744 70.4783 253.032 70.7343 253.448C70.9903 253.832 71.1183 254.392 71.1183 255.128V261.224H64.3023V260.312ZM64.3023 259.592H71.1183V267.176L64.3023 274.04V259.592ZM103.217 287.432C100.497 287.432 98.2888 286.936 96.5928 285.944C94.8968 284.952 93.6488 283.608 92.8488 281.912C92.0488 280.184 91.6488 278.264 91.6488 276.152C91.6488 273.88 92.0968 271.88 92.9928 270.152C93.8888 268.424 95.1688 267.064 96.8328 266.072C98.5288 265.08 100.497 264.584 102.737 264.584C105.041 264.584 106.913 265.032 108.353 265.928C109.825 266.792 110.913 268.008 111.617 269.576C112.321 271.112 112.721 272.856 112.817 274.808C112.593 275.736 112.193 276.488 111.617 277.064C110.817 277.064 109.841 277.08 108.689 277.112C107.537 277.112 106.289 277.128 104.945 277.16C103.633 277.16 102.289 277.192 100.913 277.256C99.5688 277.288 98.2888 277.352 97.0728 277.448V274.28H106.289C106.289 272.136 105.969 270.488 105.329 269.336C104.721 268.152 103.825 267.56 102.641 267.56C101.873 267.56 101.185 267.816 100.577 268.328C99.9688 268.808 99.4888 269.592 99.1368 270.68C98.7848 271.736 98.6088 273.128 98.6088 274.856C98.6088 276.488 98.8168 277.992 99.2328 279.368C99.6488 280.744 100.337 281.832 101.297 282.632C102.289 283.432 103.633 283.832 105.329 283.832C106.417 283.832 107.505 283.624 108.593 283.208C109.681 282.792 110.609 282.248 111.377 281.576C111.665 281.736 111.937 282.056 112.193 282.536C112.449 283.016 112.577 283.496 112.577 283.976C111.393 285.16 110.033 286.04 108.497 286.616C106.961 287.16 105.201 287.432 103.217 287.432ZM141.47 284.072C142.878 284.072 144.03 283.864 144.926 283.448C145.822 283.032 146.558 282.36 147.134 281.432C147.742 280.504 148.27 279.288 148.718 277.784C149.518 277.912 150.222 278.104 150.83 278.36C151.438 278.584 151.934 278.856 152.318 279.176C151.966 280.264 151.662 281.528 151.406 282.968C151.15 284.376 150.958 285.752 150.83 287.096C150.03 287.064 149.006 287.048 147.758 287.048C146.542 287.048 145.23 287.032 143.822 287C142.414 287 141.086 287 139.838 287C138.974 287 137.886 287 136.574 287C135.262 287.032 133.918 287.048 132.542 287.048C131.166 287.08 129.886 287.096 128.702 287.096C127.55 287.128 126.686 287.144 126.11 287.144C126.11 286.568 126.126 286.024 126.158 285.512C126.222 285 126.318 284.568 126.446 284.216C127.31 284.152 127.966 283.992 128.414 283.736C128.894 283.448 129.23 282.952 129.422 282.248C129.614 281.544 129.71 280.504 129.71 279.128V262.088C129.71 260.84 129.614 259.896 129.422 259.256C129.262 258.584 128.942 258.12 128.462 257.864C127.982 257.608 127.31 257.432 126.446 257.336C126.318 256.984 126.238 256.52 126.206 255.944C126.174 255.368 126.158 254.856 126.158 254.408C126.99 254.44 127.79 254.472 128.558 254.504C129.326 254.504 130.094 254.52 130.862 254.552C131.662 254.552 132.478 254.552 133.31 254.552C134.046 254.552 134.83 254.552 135.662 254.552C136.526 254.52 137.374 254.504 138.206 254.504C139.038 254.472 139.774 254.44 140.414 254.408C140.414 254.952 140.398 255.48 140.366 255.992C140.334 256.504 140.238 256.952 140.078 257.336C139.246 257.4 138.59 257.576 138.11 257.864C137.63 258.12 137.294 258.584 137.102 259.256C136.942 259.928 136.862 260.904 136.862 262.184V279.032C136.862 280.344 136.974 281.368 137.198 282.104C137.422 282.84 137.822 283.352 138.398 283.64C139.006 283.928 139.838 284.072 140.894 284.072H141.47ZM166.073 287.432C163.993 287.432 162.073 287.176 160.313 286.664C158.585 286.152 156.889 285.448 155.225 284.552C155.481 283.272 155.641 281.976 155.705 280.664C155.769 279.352 155.801 278.152 155.801 277.064C156.441 276.872 157.145 276.744 157.913 276.68C158.681 276.616 159.417 276.584 160.121 276.584C160.249 278.408 160.505 279.896 160.889 281.048C161.305 282.168 161.945 282.984 162.809 283.496C163.673 284.008 164.825 284.264 166.265 284.264C168.153 284.264 169.513 283.864 170.345 283.064C171.177 282.232 171.593 281.288 171.593 280.232C171.593 279.112 171.209 278.184 170.441 277.448C169.673 276.68 168.697 276.008 167.513 275.432C166.329 274.856 165.065 274.264 163.721 273.656C162.409 273.048 161.145 272.312 159.929 271.448C158.745 270.584 157.769 269.512 157.001 268.232C156.265 266.952 155.897 265.352 155.897 263.432C155.897 261.32 156.361 259.576 157.289 258.2C158.249 256.824 159.529 255.8 161.129 255.128C162.761 254.456 164.585 254.12 166.601 254.12C167.785 254.12 168.953 254.216 170.105 254.408C171.257 254.6 172.313 254.856 173.273 255.176C174.233 255.464 175.017 255.816 175.625 256.232C175.625 257.384 175.641 258.616 175.673 259.928C175.705 261.208 175.785 262.248 175.913 263.048C175.401 263.336 174.729 263.544 173.897 263.672C173.097 263.768 172.377 263.816 171.737 263.816C171.449 262.024 171.049 260.648 170.537 259.688C170.057 258.728 169.449 258.072 168.713 257.72C168.009 257.336 167.177 257.144 166.217 257.144C164.905 257.144 163.833 257.464 163.001 258.104C162.169 258.712 161.753 259.624 161.753 260.84C161.753 262.024 162.137 263.016 162.905 263.816C163.705 264.616 164.713 265.32 165.929 265.928C167.177 266.536 168.489 267.16 169.865 267.8C171.273 268.44 172.585 269.192 173.801 270.056C175.049 270.888 176.073 271.928 176.873 273.176C177.673 274.424 178.073 275.976 178.073 277.832C178.073 279.656 177.625 281.304 176.729 282.776C175.833 284.216 174.505 285.352 172.745 286.184C170.985 287.016 168.761 287.432 166.073 287.432ZM191.36 287.144C191.36 286.472 191.376 285.912 191.408 285.464C191.472 284.984 191.552 284.568 191.648 284.216C192.512 284.152 193.184 283.992 193.664 283.736C194.144 283.48 194.464 283.016 194.624 282.344C194.816 281.64 194.912 280.664 194.912 279.416V262.088C194.912 260.84 194.832 259.896 194.672 259.256C194.512 258.584 194.192 258.12 193.712 257.864C193.264 257.608 192.608 257.432 191.744 257.336C191.616 256.984 191.52 256.568 191.456 256.088C191.392 255.576 191.36 255.016 191.36 254.408C192.768 254.44 194.08 254.472 195.296 254.504C196.544 254.536 197.648 254.552 198.608 254.552C199.344 254.552 200.24 254.552 201.296 254.552C202.352 254.52 203.36 254.504 204.32 254.504C205.28 254.472 205.984 254.456 206.432 254.456C209.472 254.456 211.856 254.888 213.584 255.752C215.312 256.616 216.528 257.784 217.232 259.256C217.968 260.696 218.336 262.328 218.336 264.152C218.336 266.296 217.888 268.248 216.992 270.008C216.128 271.768 214.848 273.176 213.152 274.232C211.456 275.288 209.344 275.816 206.816 275.816C205.472 275.816 204.368 275.64 203.504 275.288C203.408 274.776 203.376 274.296 203.408 273.848C203.472 273.368 203.584 272.936 203.744 272.552C204.032 272.616 204.32 272.664 204.608 272.696C204.928 272.728 205.232 272.744 205.52 272.744C206.448 272.744 207.312 272.536 208.112 272.12C208.944 271.672 209.616 270.936 210.128 269.912C210.64 268.856 210.896 267.4 210.896 265.544C210.896 263.144 210.368 261.192 209.312 259.688C208.256 258.184 206.576 257.432 204.272 257.432C203.888 257.432 203.472 257.464 203.024 257.528C202.608 257.592 202.112 257.72 201.536 257.912L202.112 257.144V278.696C202.112 280.072 202.256 281.144 202.544 281.912C202.864 282.68 203.36 283.24 204.032 283.592C204.736 283.912 205.68 284.12 206.864 284.216C207.024 284.6 207.12 285.048 207.152 285.56C207.184 286.072 207.2 286.6 207.2 287.144C206.656 287.112 205.952 287.08 205.088 287.048C204.256 287.048 203.344 287.032 202.352 287C201.392 287 200.432 287 199.472 287C198.576 287 197.6 287 196.544 287C195.52 287.032 194.544 287.048 193.616 287.048C192.72 287.08 191.968 287.112 191.36 287.144ZM232.647 287.432C230.119 287.432 227.959 286.984 226.167 286.088C224.375 285.16 223.015 283.864 222.087 282.2C221.191 280.504 220.743 278.52 220.743 276.248C220.743 273.784 221.271 271.688 222.327 269.96C223.383 268.2 224.823 266.872 226.647 265.976C228.503 265.048 230.567 264.584 232.839 264.584C235.463 264.584 237.655 265.064 239.415 266.024C241.207 266.984 242.551 268.312 243.447 270.008C244.375 271.672 244.839 273.608 244.839 275.816C244.839 278.152 244.343 280.2 243.351 281.96C242.359 283.688 240.951 285.032 239.127 285.992C237.303 286.952 235.143 287.432 232.647 287.432ZM233.271 284.408C234.775 284.408 235.895 283.704 236.631 282.296C237.399 280.856 237.783 279.064 237.783 276.92C237.783 274.872 237.527 273.144 237.015 271.736C236.503 270.328 235.831 269.272 234.999 268.568C234.167 267.864 233.255 267.512 232.263 267.512C230.759 267.512 229.639 268.216 228.903 269.624C228.167 271 227.799 272.728 227.799 274.808C227.799 276.664 228.007 278.328 228.423 279.8C228.871 281.24 229.511 282.376 230.343 283.208C231.175 284.008 232.151 284.408 233.271 284.408ZM258.345 278.696C258.345 280.072 258.489 281.144 258.777 281.912C259.097 282.68 259.593 283.24 260.265 283.592C260.969 283.912 261.913 284.12 263.097 284.216C263.257 284.6 263.353 285.048 263.385 285.56C263.417 286.072 263.433 286.6 263.433 287.144C262.889 287.112 262.201 287.08 261.369 287.048C260.569 287.048 259.705 287.032 258.777 287C257.849 287 256.937 287 256.041 287C254.601 287 253.113 287 251.577 287C250.041 287.032 248.825 287.08 247.929 287.144C247.929 286.472 247.945 285.912 247.977 285.464C248.041 284.984 248.121 284.568 248.217 284.216C249.081 284.152 249.753 283.992 250.233 283.736C250.713 283.48 251.033 283.016 251.193 282.344C251.385 281.64 251.481 280.664 251.481 279.416V276.104H258.345V278.696ZM258.345 272.84V276.968H251.481V271.736L258.345 267.176C258.345 267.976 258.249 268.792 258.057 269.624C257.897 270.424 257.689 271.384 257.433 272.504L258.345 272.84ZM257.289 272.696C257.545 271.96 257.801 271.224 258.057 270.488C258.313 269.752 258.553 269.192 258.777 268.808C259.481 267.688 260.345 266.76 261.369 266.024C262.393 265.288 263.545 264.92 264.825 264.92C266.073 264.92 267.209 265.304 268.233 266.072C268.137 266.712 268.041 267.448 267.945 268.28C267.881 269.08 267.833 269.896 267.801 270.728C267.801 271.56 267.817 272.328 267.849 273.032C267.369 273.224 266.729 273.368 265.929 273.464C265.161 273.56 264.473 273.608 263.865 273.608C263.833 272.328 263.641 271.448 263.289 270.968C262.937 270.456 262.441 270.2 261.801 270.2C261.321 270.2 260.809 270.488 260.265 271.064C259.721 271.608 259.257 272.344 258.873 273.272C258.521 274.168 258.345 275.144 258.345 276.2L257.289 272.696ZM251.481 276.968V272.792C251.481 271.864 251.401 271.144 251.241 270.632C251.113 270.088 250.793 269.688 250.281 269.432C249.801 269.144 249.033 268.968 247.977 268.904C247.977 268.424 248.009 267.96 248.073 267.512C248.169 267.032 248.329 266.584 248.553 266.168C250.249 266.168 251.881 266.008 253.449 265.688C255.049 265.336 256.217 264.968 256.953 264.584C257.401 264.744 257.737 265.032 257.961 265.448C258.217 265.832 258.345 266.408 258.345 267.176L251.481 276.968ZM279.878 287.432C277.67 287.432 276.006 286.856 274.886 285.704C273.766 284.552 273.206 282.616 273.206 279.896V269.096C272.694 268.904 272.166 268.76 271.622 268.664C271.078 268.568 270.422 268.504 269.654 268.472C269.654 267.896 269.686 267.384 269.75 266.936C269.846 266.488 270.006 266.008 270.23 265.496H273.206V259.592C274.262 259.432 275.302 259.144 276.326 258.728C277.35 258.28 278.198 257.784 278.87 257.24C279.318 257.432 279.622 257.704 279.782 258.056C279.942 258.408 280.022 259.112 280.022 260.168V265.496H285.926C285.926 266.072 285.894 266.616 285.83 267.128C285.766 267.608 285.654 268.072 285.494 268.52C284.406 268.52 283.414 268.584 282.518 268.712C281.622 268.84 280.79 269.016 280.022 269.24V279.08C280.022 280.36 280.102 281.368 280.262 282.104C280.454 282.808 280.742 283.304 281.126 283.592C281.51 283.88 281.974 284.024 282.518 284.024C283.062 284.024 283.574 283.96 284.054 283.832C284.566 283.672 285.046 283.464 285.494 283.208C285.942 283.784 286.182 284.568 286.214 285.56C285.574 286.104 284.662 286.552 283.478 286.904C282.326 287.256 281.126 287.432 279.878 287.432ZM304.597 287.432C304.053 287.208 303.669 286.888 303.445 286.472C303.221 286.024 303.109 285.416 303.109 284.648C303.109 284.264 303.141 283.816 303.205 283.304C303.269 282.76 303.381 282.248 303.541 281.768L303.685 281.624C303.461 282.456 303.141 283.224 302.725 283.928C302.309 284.6 301.813 285.16 301.237 285.608C300.597 286.184 299.813 286.616 298.885 286.904C297.989 287.192 296.917 287.336 295.669 287.336C293.525 287.336 291.861 286.872 290.677 285.944C289.493 285.016 288.901 283.688 288.901 281.96C288.901 280.744 289.173 279.704 289.717 278.84C290.293 277.944 291.061 277.192 292.021 276.584C292.981 275.976 294.053 275.48 295.237 275.096C296.421 274.712 297.621 274.408 298.837 274.184C300.085 273.96 301.253 273.768 302.341 273.608C302.341 272.68 302.309 271.912 302.245 271.304C302.213 270.664 302.117 270.136 301.957 269.72C301.829 269.272 301.605 268.888 301.285 268.568C300.933 268.12 300.517 267.816 300.037 267.656C299.589 267.464 299.109 267.368 298.597 267.368C297.701 267.368 296.981 267.64 296.437 268.184C295.925 268.696 295.541 269.368 295.285 270.2C295.029 271.032 294.869 271.88 294.805 272.744C294.037 272.744 293.317 272.712 292.645 272.648C291.973 272.584 291.381 272.456 290.869 272.264C290.933 271.4 290.949 270.472 290.917 269.48C290.885 268.488 290.773 267.496 290.581 266.504C291.925 265.896 293.461 265.416 295.189 265.064C296.949 264.712 298.597 264.536 300.133 264.536C301.957 264.536 303.429 264.76 304.549 265.208C305.669 265.624 306.517 266.12 307.093 266.696C307.765 267.4 308.277 268.36 308.629 269.576C309.013 270.76 309.205 272.472 309.205 274.712V278.888C309.205 279.912 309.269 280.712 309.397 281.288C309.525 281.832 309.781 282.216 310.165 282.44C310.581 282.664 311.205 282.792 312.037 282.824C312.101 283.336 312.101 283.864 312.037 284.408C311.973 284.92 311.829 285.4 311.605 285.848C310.453 285.88 309.253 286.04 308.005 286.328C306.789 286.584 305.653 286.952 304.597 287.432ZM298.069 283.352C298.709 283.352 299.365 283.144 300.037 282.728C300.709 282.28 301.253 281.624 301.669 280.76C302.117 279.896 302.341 278.792 302.341 277.448V276.152C301.413 276.312 300.533 276.504 299.701 276.728C298.901 276.952 298.197 277.24 297.589 277.592C297.013 277.912 296.565 278.328 296.245 278.84C295.925 279.32 295.765 279.928 295.765 280.664C295.765 281.624 295.989 282.312 296.437 282.728C296.917 283.144 297.461 283.352 298.069 283.352ZM314.672 287.144C314.672 286.568 314.688 286.04 314.72 285.56C314.784 285.048 314.88 284.6 315.008 284.216C316.288 284.184 317.136 283.88 317.552 283.304C318 282.728 318.224 281.64 318.224 280.04V260.072C318.224 259.368 318.128 258.808 317.936 258.392C317.744 257.944 317.392 257.608 316.88 257.384C316.368 257.128 315.616 256.968 314.624 256.904C314.624 256.424 314.656 255.96 314.72 255.512C314.816 255.032 314.96 254.584 315.152 254.168C316.24 254.168 317.344 254.088 318.464 253.928C319.616 253.768 320.656 253.576 321.584 253.352C322.512 253.096 323.2 252.84 323.648 252.584C324.064 252.744 324.4 253.032 324.656 253.448C324.912 253.832 325.04 254.392 325.04 255.128V280.04C325.04 281.64 325.248 282.728 325.664 283.304C326.08 283.88 326.88 284.184 328.064 284.216C328.192 284.6 328.272 285.064 328.304 285.608C328.336 286.12 328.352 286.632 328.352 287.144C327.904 287.112 327.296 287.08 326.528 287.048C325.792 287.048 324.992 287.032 324.128 287C323.264 287 322.4 287 321.536 287C320.672 287 319.792 287 318.896 287C318 287.032 317.184 287.048 316.448 287.048C315.712 287.08 315.12 287.112 314.672 287.144Z" fill="#354F52"/>
<rect x="105.5" y="393.5" width="160" height="35" fill="#CAD2C5" stroke="black"/>
<path d="M152.754 413.938C152.43 414.334 152.01 414.64 151.494 414.856C150.978 415.06 150.384 415.162 149.712 415.162C148.896 415.162 148.164 415.006 147.516 414.694C146.88 414.382 146.37 413.914 145.986 413.29C145.614 412.666 145.428 411.874 145.428 410.914C145.428 410.194 145.584 409.504 145.896 408.844C146.208 408.184 146.67 407.644 147.282 407.224C147.906 406.804 148.674 406.594 149.586 406.594C150.234 406.594 150.798 406.66 151.278 406.792C151.77 406.912 152.208 407.098 152.592 407.35C152.52 407.686 152.472 408.034 152.448 408.394C152.424 408.742 152.412 409.132 152.412 409.564C152.22 409.648 151.998 409.708 151.746 409.744C151.494 409.78 151.254 409.798 151.026 409.798C150.99 409.102 150.84 408.574 150.576 408.214C150.324 407.854 149.988 407.674 149.568 407.674C149.064 407.674 148.674 407.944 148.398 408.484C148.122 409.024 147.984 409.75 147.984 410.662C147.984 411.178 148.068 411.682 148.236 412.174C148.416 412.654 148.686 413.05 149.046 413.362C149.406 413.662 149.868 413.812 150.432 413.812C150.816 413.812 151.164 413.752 151.476 413.632C151.8 413.5 152.082 413.32 152.322 413.092C152.43 413.188 152.52 413.308 152.592 413.452C152.676 413.596 152.73 413.758 152.754 413.938ZM153.458 415.054C153.458 414.838 153.464 414.64 153.476 414.46C153.5 414.268 153.536 414.1 153.584 413.956C154.064 413.944 154.382 413.83 154.538 413.614C154.706 413.398 154.79 412.99 154.79 412.39V404.902C154.79 404.638 154.754 404.428 154.682 404.272C154.61 404.104 154.478 403.978 154.286 403.894C154.094 403.798 153.812 403.738 153.44 403.714C153.44 403.534 153.452 403.36 153.476 403.192C153.512 403.012 153.566 402.844 153.638 402.688C154.046 402.688 154.46 402.658 154.88 402.598C155.312 402.538 155.702 402.466 156.05 402.382C156.398 402.286 156.656 402.19 156.824 402.094C156.98 402.154 157.106 402.262 157.202 402.418C157.298 402.562 157.346 402.772 157.346 403.048V412.39C157.346 412.99 157.424 413.398 157.58 413.614C157.736 413.83 158.036 413.944 158.48 413.956C158.528 414.1 158.558 414.274 158.57 414.478C158.582 414.67 158.588 414.862 158.588 415.054C158.42 415.042 158.192 415.03 157.904 415.018C157.628 415.018 157.328 415.012 157.004 415C156.68 415 156.356 415 156.032 415C155.708 415 155.378 415 155.042 415C154.706 415.012 154.4 415.018 154.124 415.018C153.848 415.03 153.626 415.042 153.458 415.054ZM159.683 415.054C159.683 414.838 159.689 414.64 159.701 414.46C159.725 414.268 159.761 414.1 159.809 413.956C160.289 413.944 160.607 413.83 160.763 413.614C160.931 413.398 161.015 412.99 161.015 412.39V409.492C161.015 409.204 160.985 408.97 160.925 408.79C160.865 408.61 160.739 408.478 160.547 408.394C160.355 408.298 160.067 408.238 159.683 408.214C159.683 408.034 159.695 407.86 159.719 407.692C159.743 407.512 159.797 407.344 159.881 407.188C160.277 407.188 160.685 407.158 161.105 407.098C161.537 407.038 161.927 406.966 162.275 406.882C162.635 406.786 162.899 406.69 163.067 406.594C163.223 406.654 163.349 406.762 163.445 406.918C163.541 407.062 163.589 407.272 163.589 407.548V412.39C163.589 412.99 163.667 413.398 163.823 413.614C163.979 413.83 164.273 413.944 164.705 413.956C164.753 414.1 164.783 414.274 164.795 414.478C164.819 414.67 164.831 414.862 164.831 415.054C164.651 415.042 164.423 415.03 164.147 415.018C163.871 415.018 163.571 415.012 163.247 415C162.923 415 162.599 415 162.275 415C161.951 415 161.621 415 161.285 415C160.949 415.012 160.643 415.018 160.367 415.018C160.091 415.03 159.863 415.042 159.683 415.054ZM162.077 405.172C161.645 405.172 161.291 405.058 161.015 404.83C160.751 404.59 160.619 404.284 160.619 403.912C160.619 403.48 160.769 403.144 161.069 402.904C161.369 402.664 161.729 402.544 162.149 402.544C162.641 402.544 163.019 402.664 163.283 402.904C163.547 403.144 163.679 403.474 163.679 403.894C163.679 404.254 163.535 404.56 163.247 404.812C162.959 405.052 162.569 405.172 162.077 405.172ZM173.092 413.938C172.768 414.334 172.348 414.64 171.832 414.856C171.316 415.06 170.722 415.162 170.05 415.162C169.234 415.162 168.502 415.006 167.854 414.694C167.218 414.382 166.708 413.914 166.324 413.29C165.952 412.666 165.766 411.874 165.766 410.914C165.766 410.194 165.922 409.504 166.234 408.844C166.546 408.184 167.008 407.644 167.62 407.224C168.244 406.804 169.012 406.594 169.924 406.594C170.572 406.594 171.136 406.66 171.616 406.792C172.108 406.912 172.546 407.098 172.93 407.35C172.858 407.686 172.81 408.034 172.786 408.394C172.762 408.742 172.75 409.132 172.75 409.564C172.558 409.648 172.336 409.708 172.084 409.744C171.832 409.78 171.592 409.798 171.364 409.798C171.328 409.102 171.178 408.574 170.914 408.214C170.662 407.854 170.326 407.674 169.906 407.674C169.402 407.674 169.012 407.944 168.736 408.484C168.46 409.024 168.322 409.75 168.322 410.662C168.322 411.178 168.406 411.682 168.574 412.174C168.754 412.654 169.024 413.05 169.384 413.362C169.744 413.662 170.206 413.812 170.77 413.812C171.154 413.812 171.502 413.752 171.814 413.632C172.138 413.5 172.42 413.32 172.66 413.092C172.768 413.188 172.858 413.308 172.93 413.452C173.014 413.596 173.068 413.758 173.092 413.938ZM173.796 415.054C173.796 414.838 173.802 414.64 173.814 414.46C173.838 414.268 173.874 414.1 173.922 413.956C174.402 413.944 174.72 413.83 174.876 413.614C175.044 413.398 175.128 412.99 175.128 412.39V404.992C175.128 404.704 175.092 404.47 175.02 404.29C174.96 404.11 174.834 403.978 174.642 403.894C174.45 403.798 174.162 403.738 173.778 403.714C173.778 403.534 173.79 403.36 173.814 403.192C173.85 403.012 173.904 402.844 173.976 402.688C174.384 402.688 174.798 402.658 175.218 402.598C175.65 402.538 176.04 402.466 176.388 402.382C176.736 402.286 176.994 402.19 177.162 402.094C177.318 402.154 177.444 402.262 177.54 402.418C177.636 402.562 177.684 402.772 177.684 403.048V412.39C177.684 412.978 177.75 413.38 177.882 413.596C178.014 413.812 178.26 413.932 178.62 413.956C178.668 414.1 178.698 414.274 178.71 414.478C178.722 414.67 178.728 414.862 178.728 415.054C178.464 415.03 178.11 415.012 177.666 415C177.222 415 176.772 415 176.316 415C176.004 415 175.686 415 175.362 415C175.038 415.012 174.738 415.018 174.462 415.018C174.186 415.03 173.964 415.042 173.796 415.054ZM180.834 415.162C180.654 414.874 180.42 414.544 180.132 414.172C179.856 413.788 179.556 413.392 179.232 412.984C178.908 412.564 178.578 412.156 178.242 411.76C177.906 411.364 177.588 411.01 177.288 410.698L178.944 409.204C179.28 408.892 179.508 408.652 179.628 408.484C179.76 408.316 179.826 408.184 179.826 408.088C179.826 407.992 179.79 407.92 179.718 407.872C179.646 407.824 179.52 407.8 179.34 407.8C179.28 407.62 179.232 407.44 179.196 407.26C179.172 407.08 179.16 406.9 179.16 406.72C179.364 406.72 179.604 406.726 179.88 406.738C180.156 406.738 180.45 406.744 180.762 406.756C181.074 406.756 181.368 406.756 181.644 406.756C181.92 406.756 182.202 406.756 182.49 406.756C182.79 406.744 183.072 406.732 183.336 406.72C183.336 406.912 183.324 407.098 183.3 407.278C183.276 407.458 183.234 407.632 183.174 407.8C182.886 407.812 182.622 407.854 182.382 407.926C182.154 407.998 181.92 408.112 181.68 408.268C181.452 408.412 181.188 408.622 180.888 408.898L179.34 410.302L179.16 409.438C179.724 409.93 180.258 410.458 180.762 411.022C181.278 411.586 181.812 412.234 182.364 412.966C182.544 413.206 182.706 413.392 182.85 413.524C183.006 413.656 183.162 413.752 183.318 413.812C183.474 413.86 183.666 413.896 183.894 413.92C183.894 414.112 183.882 414.304 183.858 414.496C183.834 414.676 183.786 414.844 183.714 415C183.414 415 183.09 415.006 182.742 415.018C182.406 415.03 182.07 415.042 181.734 415.054C181.398 415.078 181.098 415.114 180.834 415.162ZM197.91 412.39C197.91 412.99 197.976 413.404 198.108 413.632C198.252 413.848 198.486 413.956 198.81 413.956C198.87 414.1 198.912 414.262 198.936 414.442C198.96 414.61 198.972 414.814 198.972 415.054C198.708 415.042 198.366 415.03 197.946 415.018C197.526 415.006 197.118 415 196.722 415C196.458 415 196.158 415 195.822 415C195.498 415.012 195.186 415.018 194.886 415.018C194.586 415.03 194.346 415.042 194.166 415.054C194.166 414.838 194.172 414.64 194.184 414.46C194.196 414.28 194.238 414.112 194.31 413.956C194.646 413.956 194.904 413.836 195.084 413.596C195.264 413.356 195.354 412.918 195.354 412.282V410.32C195.354 409.564 195.228 409.042 194.976 408.754C194.736 408.454 194.4 408.304 193.968 408.304C193.668 408.304 193.38 408.418 193.104 408.646C192.84 408.862 192.624 409.186 192.456 409.618C192.288 410.038 192.204 410.566 192.204 411.202V412.39C192.204 413.002 192.282 413.416 192.438 413.632C192.606 413.848 192.87 413.956 193.23 413.956C193.302 414.124 193.344 414.292 193.356 414.46C193.38 414.628 193.392 414.826 193.392 415.054C193.212 415.042 192.978 415.03 192.69 415.018C192.414 415.018 192.12 415.012 191.808 415C191.496 415 191.202 415 190.926 415C190.662 415 190.356 415 190.008 415C189.672 415.012 189.348 415.018 189.036 415.018C188.736 415.03 188.496 415.042 188.316 415.054C188.316 414.826 188.322 414.616 188.334 414.424C188.358 414.232 188.394 414.076 188.442 413.956C188.91 413.956 189.228 413.848 189.396 413.632C189.564 413.404 189.648 412.99 189.648 412.39V409.672L192.204 407.566C192.204 407.71 192.186 407.878 192.15 408.07C192.126 408.25 192.084 408.442 192.024 408.646C192.096 408.502 192.168 408.358 192.24 408.214C192.312 408.07 192.408 407.932 192.528 407.8C192.768 407.524 193.104 407.272 193.536 407.044C193.968 406.804 194.472 406.684 195.048 406.684C195.54 406.684 196.002 406.78 196.434 406.972C196.878 407.164 197.232 407.476 197.496 407.908C197.772 408.34 197.91 408.91 197.91 409.618V412.39ZM189.648 404.992C189.648 404.704 189.612 404.47 189.54 404.29C189.48 404.11 189.354 403.978 189.162 403.894C188.97 403.798 188.682 403.738 188.298 403.714C188.298 403.534 188.31 403.36 188.334 403.192C188.37 403.012 188.424 402.844 188.496 402.688C188.904 402.688 189.318 402.658 189.738 402.598C190.17 402.538 190.56 402.466 190.908 402.382C191.256 402.286 191.514 402.19 191.682 402.094C191.838 402.154 191.964 402.262 192.06 402.418C192.156 402.562 192.204 402.772 192.204 403.048V405.334H189.648V404.992ZM189.648 404.722H192.204V407.566L189.648 410.14V404.722ZM204.24 415.162C203.22 415.162 202.392 414.976 201.756 414.604C201.12 414.232 200.652 413.728 200.352 413.092C200.052 412.444 199.902 411.724 199.902 410.932C199.902 410.08 200.07 409.33 200.406 408.682C200.742 408.034 201.222 407.524 201.846 407.152C202.482 406.78 203.22 406.594 204.06 406.594C204.924 406.594 205.626 406.762 206.166 407.098C206.718 407.422 207.126 407.878 207.39 408.466C207.654 409.042 207.804 409.696 207.84 410.428C207.756 410.776 207.606 411.058 207.39 411.274C207.09 411.274 206.724 411.28 206.292 411.292C205.86 411.292 205.392 411.298 204.888 411.31C204.396 411.31 203.892 411.322 203.376 411.346C202.872 411.358 202.392 411.382 201.936 411.418V410.23H205.392C205.392 409.426 205.272 408.808 205.032 408.376C204.804 407.932 204.468 407.71 204.024 407.71C203.736 407.71 203.478 407.806 203.25 407.998C203.022 408.178 202.842 408.472 202.71 408.88C202.578 409.276 202.512 409.798 202.512 410.446C202.512 411.058 202.59 411.622 202.746 412.138C202.902 412.654 203.16 413.062 203.52 413.362C203.892 413.662 204.396 413.812 205.032 413.812C205.44 413.812 205.848 413.734 206.256 413.578C206.664 413.422 207.012 413.218 207.3 412.966C207.408 413.026 207.51 413.146 207.606 413.326C207.702 413.506 207.75 413.686 207.75 413.866C207.306 414.31 206.796 414.64 206.22 414.856C205.644 415.06 204.984 415.162 204.24 415.162ZM212.984 411.886C212.984 412.402 213.038 412.804 213.146 413.092C213.266 413.38 213.452 413.59 213.704 413.722C213.968 413.842 214.322 413.92 214.766 413.956C214.826 414.1 214.862 414.268 214.874 414.46C214.886 414.652 214.892 414.85 214.892 415.054C214.688 415.042 214.43 415.03 214.118 415.018C213.818 415.018 213.494 415.012 213.146 415C212.798 415 212.456 415 212.12 415C211.58 415 211.022 415 210.446 415C209.87 415.012 209.414 415.03 209.078 415.054C209.078 414.802 209.084 414.592 209.096 414.424C209.12 414.244 209.15 414.088 209.186 413.956C209.51 413.932 209.762 413.872 209.942 413.776C210.122 413.68 210.242 413.506 210.302 413.254C210.374 412.99 210.41 412.624 210.41 412.156V410.914H212.984V411.886ZM212.984 409.69V411.238H210.41V409.276L212.984 407.566C212.984 407.866 212.948 408.172 212.876 408.484C212.816 408.784 212.738 409.144 212.642 409.564L212.984 409.69ZM212.588 409.636C212.684 409.36 212.78 409.084 212.876 408.808C212.972 408.532 213.062 408.322 213.146 408.178C213.41 407.758 213.734 407.41 214.118 407.134C214.502 406.858 214.934 406.72 215.414 406.72C215.882 406.72 216.308 406.864 216.692 407.152C216.656 407.392 216.62 407.668 216.584 407.98C216.56 408.28 216.542 408.586 216.53 408.898C216.53 409.21 216.536 409.498 216.548 409.762C216.368 409.834 216.128 409.888 215.828 409.924C215.54 409.96 215.282 409.978 215.054 409.978C215.042 409.498 214.97 409.168 214.838 408.988C214.706 408.796 214.52 408.7 214.28 408.7C214.1 408.7 213.908 408.808 213.704 409.024C213.5 409.228 213.326 409.504 213.182 409.852C213.05 410.188 212.984 410.554 212.984 410.95L212.588 409.636ZM210.41 411.238V409.672C210.41 409.324 210.38 409.054 210.32 408.862C210.272 408.658 210.152 408.508 209.96 408.412C209.78 408.304 209.492 408.238 209.096 408.214C209.096 408.034 209.108 407.86 209.132 407.692C209.168 407.512 209.228 407.344 209.312 407.188C209.948 407.188 210.56 407.128 211.148 407.008C211.748 406.876 212.186 406.738 212.462 406.594C212.63 406.654 212.756 406.762 212.84 406.918C212.936 407.062 212.984 407.278 212.984 407.566L210.41 411.238ZM221.977 415.162C220.957 415.162 220.129 414.976 219.493 414.604C218.857 414.232 218.389 413.728 218.089 413.092C217.789 412.444 217.639 411.724 217.639 410.932C217.639 410.08 217.807 409.33 218.143 408.682C218.479 408.034 218.959 407.524 219.583 407.152C220.219 406.78 220.957 406.594 221.797 406.594C222.661 406.594 223.363 406.762 223.903 407.098C224.455 407.422 224.863 407.878 225.127 408.466C225.391 409.042 225.541 409.696 225.577 410.428C225.493 410.776 225.343 411.058 225.127 411.274C224.827 411.274 224.461 411.28 224.029 411.292C223.597 411.292 223.129 411.298 222.625 411.31C222.133 411.31 221.629 411.322 221.113 411.346C220.609 411.358 220.129 411.382 219.673 411.418V410.23H223.129C223.129 409.426 223.009 408.808 222.769 408.376C222.541 407.932 222.205 407.71 221.761 407.71C221.473 407.71 221.215 407.806 220.987 407.998C220.759 408.178 220.579 408.472 220.447 408.88C220.315 409.276 220.249 409.798 220.249 410.446C220.249 411.058 220.327 411.622 220.483 412.138C220.639 412.654 220.897 413.062 221.257 413.362C221.629 413.662 222.133 413.812 222.769 413.812C223.177 413.812 223.585 413.734 223.993 413.578C224.401 413.422 224.749 413.218 225.037 412.966C225.145 413.026 225.247 413.146 225.343 413.326C225.439 413.506 225.487 413.686 225.487 413.866C225.043 414.31 224.533 414.64 223.957 414.856C223.381 415.06 222.721 415.162 221.977 415.162Z" fill="black"/>
<rect x="0.5" y="0.5" width="370" height="454" stroke="black"/>
</g>
<defs>
<filter id="filter0_d_9_7" x="0" y="0" width="379" height="463" filterUnits="userSpaceOnUse" color-interpolation-filters="sRGB">
<feFlood flood-opacity="0" result="BackgroundImageFix"/>
<feColorMatrix in="SourceAlpha" type="matrix" values="0 0 0 0 0 0 0 0 0 0 0 0 0 0 0 0 0 0 127 0" result="hardAlpha"/>
<feOffset dx="8" dy="8"/>
<feComposite in2="hardAlpha" operator="out"/>
<feColorMatrix type="matrix" values="0 0 0 0 0.207843 0 0 0 0 0.309804 0 0 0 0 0.321569 0 0 0 1 0"/>
<feBlend mode="normal" in2="BackgroundImageFix" result="effect1_dropShadow_9_7"/>
<feBlend mode="normal" in="SourceGraphic" in2="effect1_dropShadow_9_7" result="shape"/>
</filter>
</defs>
</svg>
