<svg width="379" height="463" viewBox="0 0 379 463" fill="none" xmlns="http://www.w3.org/2000/svg">
<g filter="url(#filter0_d_9_25)">
<rect width="371" height="455" fill="white"/>
<rect x="0.5" y="0.5" width="370" height="31" fill="white" stroke="black"/>
<circle cx="27" cy="16" r="8" fill="#DC2525"/>
<circle cx="55" cy="16" r="8" fill="#CDC615"/>
<circle cx="83" cy="16" r="8" fill="#0F8C0D"/>
<path d="M112.046 203.36C110.926 203.36 110.032 203.56 109.366 203.96C108.726 204.36 108.232 204.933 107.886 205.68C107.539 206.4 107.246 207.293 107.006 208.36C106.472 208.36 105.926 208.333 105.366 208.28C104.806 208.227 104.326 208.093 103.926 207.88C104.192 206.787 104.392 205.6 104.526 204.32C104.686 203.013 104.766 201.853 104.766 200.84C105.699 200.867 106.712 200.893 107.806 200.92C108.899 200.947 110.112 200.96 111.446 200.96C112.806 200.96 114.379 200.96 116.166 200.96C117.819 200.96 119.326 200.96 120.686 200.96C122.046 200.933 123.286 200.92 124.406 200.92C125.552 200.893 126.579 200.867 127.486 200.84C127.486 201.88 127.539 203 127.646 204.2C127.752 205.4 127.912 206.627 128.126 207.88C127.699 208.04 127.219 208.173 126.686 208.28C126.179 208.36 125.606 208.387 124.966 208.36C124.779 206.68 124.339 205.427 123.646 204.6C122.979 203.773 121.912 203.36 120.446 203.36H112.046ZM113.046 202.2H119.046V221.68C119.046 222.72 119.126 223.533 119.286 224.12C119.472 224.68 119.819 225.067 120.326 225.28C120.832 225.493 121.579 225.627 122.566 225.68C122.672 225.947 122.752 226.307 122.806 226.76C122.859 227.213 122.886 227.667 122.886 228.12C122.086 228.067 121.112 228.027 119.966 228C118.819 228 117.592 228 116.286 228C115.432 228 114.539 228 113.606 228C112.672 228.027 111.806 228.04 111.006 228.04C110.206 228.067 109.526 228.093 108.966 228.12C108.966 227.693 108.992 227.253 109.046 226.8C109.126 226.347 109.219 225.973 109.326 225.68C110.312 225.627 111.072 225.493 111.606 225.28C112.166 225.067 112.539 224.68 112.726 224.12C112.939 223.533 113.046 222.72 113.046 221.68V202.2ZM136.739 228.36C134.473 228.36 132.633 227.947 131.219 227.12C129.806 226.293 128.766 225.173 128.099 223.76C127.433 222.32 127.099 220.72 127.099 218.96C127.099 217.067 127.473 215.4 128.219 213.96C128.966 212.52 130.033 211.387 131.419 210.56C132.833 209.733 134.473 209.32 136.339 209.32C138.259 209.32 139.819 209.693 141.019 210.44C142.246 211.16 143.153 212.173 143.739 213.48C144.326 214.76 144.659 216.213 144.739 217.84C144.553 218.613 144.219 219.24 143.739 219.72C143.073 219.72 142.259 219.733 141.299 219.76C140.339 219.76 139.299 219.773 138.179 219.8C137.086 219.8 135.966 219.827 134.819 219.88C133.699 219.907 132.633 219.96 131.619 220.04V217.4H139.299C139.299 215.613 139.033 214.24 138.499 213.28C137.993 212.293 137.246 211.8 136.259 211.8C135.619 211.8 135.046 212.013 134.539 212.44C134.033 212.84 133.633 213.493 133.339 214.4C133.046 215.28 132.899 216.44 132.899 217.88C132.899 219.24 133.073 220.493 133.419 221.64C133.766 222.787 134.339 223.693 135.139 224.36C135.966 225.027 137.086 225.36 138.499 225.36C139.406 225.36 140.313 225.187 141.219 224.84C142.126 224.493 142.899 224.04 143.539 223.48C143.779 223.613 144.006 223.88 144.219 224.28C144.433 224.68 144.539 225.08 144.539 225.48C143.553 226.467 142.419 227.2 141.139 227.68C139.859 228.133 138.393 228.36 136.739 228.36ZM147.489 228.12C147.489 227.64 147.502 227.2 147.529 226.8C147.582 226.373 147.676 226 147.809 225.68C148.902 225.627 149.609 225.373 149.929 224.92C150.276 224.44 150.449 223.533 150.449 222.2V216.48C150.449 215.6 150.382 214.92 150.249 214.44C150.142 213.933 149.876 213.573 149.449 213.36C149.049 213.12 148.409 212.973 147.529 212.92C147.529 212.547 147.556 212.173 147.609 211.8C147.689 211.4 147.822 211.013 148.009 210.64C148.809 210.64 149.649 210.587 150.529 210.48C151.436 210.347 152.276 210.187 153.049 210C153.849 209.787 154.476 209.56 154.929 209.32C155.249 209.427 155.516 209.653 155.729 210C155.942 210.32 156.049 210.8 156.049 211.44C156.049 211.893 155.996 212.4 155.889 212.96C155.809 213.52 155.636 214.387 155.369 215.56H155.049C155.529 214.333 155.889 213.48 156.129 213C156.396 212.493 156.636 212.133 156.849 211.92C157.409 211.28 158.169 210.693 159.129 210.16C160.089 209.627 161.182 209.36 162.409 209.36C163.662 209.36 164.769 209.627 165.729 210.16C166.716 210.693 167.449 211.493 167.929 212.56C168.222 213.093 168.369 213.667 168.369 214.28H168.209C168.609 213.213 169.062 212.427 169.569 211.92C170.102 211.333 170.809 210.8 171.689 210.32C172.596 209.84 173.636 209.6 174.809 209.6C176.116 209.6 177.236 209.827 178.169 210.28C179.102 210.707 179.822 211.413 180.329 212.4C180.862 213.387 181.129 214.707 181.129 216.36V221.2C181.129 222.453 181.182 223.4 181.289 224.04C181.422 224.653 181.636 225.067 181.929 225.28C182.222 225.493 182.649 225.627 183.209 225.68C183.316 226.027 183.382 226.4 183.409 226.8C183.462 227.2 183.489 227.64 183.489 228.12C182.849 228.067 182.089 228.027 181.209 228C180.329 228 179.422 228 178.489 228C177.876 228 177.222 228 176.529 228C175.836 228.027 175.169 228.04 174.529 228.04C173.889 228.067 173.329 228.093 172.849 228.12C172.849 227.587 172.862 227.133 172.889 226.76C172.942 226.387 173.022 226.027 173.129 225.68C173.689 225.627 174.142 225.493 174.489 225.28C174.836 225.04 175.076 224.613 175.209 224C175.369 223.387 175.449 222.52 175.449 221.4V217.56C175.449 215.827 175.182 214.653 174.649 214.04C174.142 213.427 173.462 213.12 172.609 213.12C171.889 213.12 171.222 213.36 170.609 213.84C169.996 214.32 169.516 215.04 169.169 216C168.822 216.933 168.649 218.12 168.649 219.56V222.08C168.649 223.44 168.809 224.373 169.129 224.88C169.476 225.36 170.102 225.627 171.009 225.68C171.116 225.973 171.196 226.333 171.249 226.76C171.302 227.187 171.329 227.64 171.329 228.12C170.689 228.067 169.862 228.027 168.849 228C167.836 228 166.836 228 165.849 228C164.889 228 163.902 228 162.889 228C161.902 228.027 161.049 228.067 160.329 228.12C160.329 227.64 160.342 227.187 160.369 226.76C160.422 226.333 160.502 225.973 160.609 225.68C161.249 225.627 161.742 225.493 162.089 225.28C162.436 225.067 162.676 224.64 162.809 224C162.942 223.36 163.009 222.427 163.009 221.2V217.24C163.009 215.64 162.742 214.547 162.209 213.96C161.702 213.347 160.969 213.04 160.009 213.04C159.342 213.04 158.702 213.293 158.089 213.8C157.502 214.307 157.022 215.04 156.649 216C156.302 216.96 156.129 218.12 156.129 219.48V222.08C156.129 223.467 156.289 224.4 156.609 224.88C156.929 225.36 157.556 225.627 158.489 225.68C158.596 226 158.662 226.373 158.689 226.8C158.742 227.2 158.769 227.64 158.769 228.12C158.342 228.067 157.782 228.027 157.089 228C156.422 228 155.729 228 155.009 228C154.289 228 153.636 228 153.049 228C152.489 228 151.849 228 151.129 228C150.409 228 149.716 228 149.049 228C148.409 228.027 147.889 228.067 147.489 228.12ZM186.161 237.8C186.161 237.24 186.174 236.76 186.201 236.36C186.254 235.987 186.321 235.653 186.401 235.36C187.121 235.307 187.681 235.173 188.081 234.96C188.481 234.747 188.747 234.347 188.881 233.76C189.041 233.2 189.121 232.4 189.121 231.36V216.16C189.121 215.387 189.054 214.787 188.921 214.36C188.814 213.907 188.547 213.573 188.121 213.36C187.721 213.12 187.081 212.973 186.201 212.92C186.201 212.52 186.227 212.133 186.281 211.76C186.361 211.36 186.494 210.987 186.681 210.64C188.094 210.64 189.454 210.507 190.761 210.24C192.094 209.947 193.067 209.64 193.681 209.32C194.054 209.453 194.334 209.693 194.521 210.04C194.734 210.36 194.841 210.84 194.841 211.48C194.841 211.88 194.761 212.32 194.601 212.8C194.467 213.253 194.267 213.827 194.001 214.52L194.841 215.36V230.76C194.841 231.907 194.961 232.8 195.201 233.44C195.467 234.08 195.881 234.533 196.441 234.8C197.027 235.093 197.814 235.28 198.801 235.36C198.934 235.68 199.014 236.053 199.041 236.48C199.067 236.907 199.081 237.347 199.081 237.8C198.627 237.773 198.054 237.747 197.361 237.72C196.694 237.72 195.974 237.707 195.201 237.68C194.427 237.68 193.667 237.68 192.921 237.68C191.721 237.68 190.481 237.68 189.201 237.68C187.921 237.707 186.907 237.747 186.161 237.8ZM197.761 228.36C197.147 228.36 196.587 228.307 196.081 228.2C195.574 228.12 195.014 228 194.401 227.84V224.12C194.854 224.707 195.347 225.173 195.881 225.52C196.414 225.84 197.067 226 197.841 226C198.321 226 198.841 225.907 199.401 225.72C199.987 225.507 200.534 225.147 201.041 224.64C201.574 224.107 202.001 223.36 202.321 222.4C202.641 221.413 202.801 220.16 202.801 218.64C202.801 217.52 202.654 216.507 202.361 215.6C202.094 214.667 201.681 213.933 201.121 213.4C200.561 212.84 199.854 212.56 199.001 212.56C198.334 212.56 197.681 212.787 197.041 213.24C196.401 213.667 195.867 214.387 195.441 215.4C195.041 216.387 194.841 217.707 194.841 219.36L193.281 215.28C193.707 214.24 194.107 213.44 194.481 212.88C194.854 212.293 195.201 211.853 195.521 211.56C195.814 211.213 196.214 210.88 196.721 210.56C197.254 210.213 197.867 209.92 198.561 209.68C199.254 209.44 200.001 209.32 200.801 209.32C202.374 209.32 203.734 209.613 204.881 210.2C206.054 210.787 206.974 211.693 207.641 212.92C208.334 214.12 208.681 215.68 208.681 217.6C208.681 219.707 208.214 221.573 207.281 223.2C206.374 224.827 205.107 226.093 203.481 227C201.854 227.907 199.947 228.36 197.761 228.36ZM210.96 228.12C210.96 227.64 210.973 227.2 211 226.8C211.053 226.373 211.133 226 211.24 225.68C212.307 225.653 213.013 225.4 213.36 224.92C213.733 224.44 213.92 223.533 213.92 222.2V205.56C213.92 204.973 213.84 204.507 213.68 204.16C213.52 203.787 213.227 203.507 212.8 203.32C212.373 203.107 211.747 202.973 210.92 202.92C210.92 202.52 210.947 202.133 211 201.76C211.08 201.36 211.2 200.987 211.36 200.64C212.267 200.64 213.187 200.573 214.12 200.44C215.08 200.307 215.947 200.147 216.72 199.96C217.493 199.747 218.067 199.533 218.44 199.32C218.787 199.453 219.067 199.693 219.28 200.04C219.493 200.36 219.6 200.827 219.6 201.44V222.2C219.6 223.533 219.773 224.44 220.12 224.92C220.467 225.4 221.133 225.653 222.12 225.68C222.227 226 222.293 226.387 222.32 226.84C222.347 227.267 222.36 227.693 222.36 228.12C221.987 228.093 221.48 228.067 220.84 228.04C220.227 228.04 219.56 228.027 218.84 228C218.12 228 217.4 228 216.68 228C215.96 228 215.227 228 214.48 228C213.733 228.027 213.053 228.04 212.44 228.04C211.827 228.067 211.333 228.093 210.96 228.12ZM237.994 228.36C237.54 228.173 237.22 227.907 237.034 227.56C236.847 227.187 236.754 226.68 236.754 226.04C236.754 225.72 236.78 225.347 236.834 224.92C236.887 224.467 236.98 224.04 237.114 223.64L237.234 223.52C237.047 224.213 236.78 224.853 236.434 225.44C236.087 226 235.674 226.467 235.194 226.84C234.66 227.32 234.007 227.68 233.234 227.92C232.487 228.16 231.594 228.28 230.554 228.28C228.767 228.28 227.38 227.893 226.394 227.12C225.407 226.347 224.914 225.24 224.914 223.8C224.914 222.787 225.14 221.92 225.594 221.2C226.074 220.453 226.714 219.827 227.514 219.32C228.314 218.813 229.207 218.4 230.194 218.08C231.18 217.76 232.18 217.507 233.194 217.32C234.234 217.133 235.207 216.973 236.114 216.84C236.114 216.067 236.087 215.427 236.034 214.92C236.007 214.387 235.927 213.947 235.794 213.6C235.687 213.227 235.5 212.907 235.234 212.64C234.94 212.267 234.594 212.013 234.194 211.88C233.82 211.72 233.42 211.64 232.994 211.64C232.247 211.64 231.647 211.867 231.194 212.32C230.767 212.747 230.447 213.307 230.234 214C230.02 214.693 229.887 215.4 229.834 216.12C229.194 216.12 228.594 216.093 228.034 216.04C227.474 215.987 226.98 215.88 226.554 215.72C226.607 215 226.62 214.227 226.594 213.4C226.567 212.573 226.474 211.747 226.314 210.92C227.434 210.413 228.714 210.013 230.154 209.72C231.62 209.427 232.994 209.28 234.274 209.28C235.794 209.28 237.02 209.467 237.954 209.84C238.887 210.187 239.594 210.6 240.074 211.08C240.634 211.667 241.06 212.467 241.354 213.48C241.674 214.467 241.834 215.893 241.834 217.76V221.24C241.834 222.093 241.887 222.76 241.994 223.24C242.1 223.693 242.314 224.013 242.634 224.2C242.98 224.387 243.5 224.493 244.194 224.52C244.247 224.947 244.247 225.387 244.194 225.84C244.14 226.267 244.02 226.667 243.834 227.04C242.874 227.067 241.874 227.2 240.834 227.44C239.82 227.653 238.874 227.96 237.994 228.36ZM232.554 224.96C233.087 224.96 233.634 224.787 234.194 224.44C234.754 224.067 235.207 223.52 235.554 222.8C235.927 222.08 236.114 221.16 236.114 220.04V218.96C235.34 219.093 234.607 219.253 233.914 219.44C233.247 219.627 232.66 219.867 232.154 220.16C231.674 220.427 231.3 220.773 231.034 221.2C230.767 221.6 230.634 222.107 230.634 222.72C230.634 223.52 230.82 224.093 231.194 224.44C231.594 224.787 232.047 224.96 232.554 224.96ZM253.801 228.36C251.961 228.36 250.574 227.88 249.641 226.92C248.707 225.96 248.241 224.347 248.241 222.08V213.08C247.814 212.92 247.374 212.8 246.921 212.72C246.467 212.64 245.921 212.587 245.281 212.56C245.281 212.08 245.307 211.653 245.361 211.28C245.441 210.907 245.574 210.507 245.761 210.08H248.241V205.16C249.121 205.027 249.987 204.787 250.841 204.44C251.694 204.067 252.401 203.653 252.961 203.2C253.334 203.36 253.587 203.587 253.721 203.88C253.854 204.173 253.921 204.76 253.921 205.64V210.08H258.841C258.841 210.56 258.814 211.013 258.761 211.44C258.707 211.84 258.614 212.227 258.481 212.6C257.574 212.6 256.747 212.653 256.001 212.76C255.254 212.867 254.561 213.013 253.921 213.2V221.4C253.921 222.467 253.987 223.307 254.121 223.92C254.281 224.507 254.521 224.92 254.841 225.16C255.161 225.4 255.547 225.52 256.001 225.52C256.454 225.52 256.881 225.467 257.281 225.36C257.707 225.227 258.107 225.053 258.481 224.84C258.854 225.32 259.054 225.973 259.081 226.8C258.547 227.253 257.787 227.627 256.801 227.92C255.841 228.213 254.841 228.36 253.801 228.36ZM270.685 228.36C268.418 228.36 266.578 227.947 265.165 227.12C263.751 226.293 262.711 225.173 262.045 223.76C261.378 222.32 261.045 220.72 261.045 218.96C261.045 217.067 261.418 215.4 262.165 213.96C262.911 212.52 263.978 211.387 265.365 210.56C266.778 209.733 268.418 209.32 270.285 209.32C272.205 209.32 273.765 209.693 274.965 210.44C276.191 211.16 277.098 212.173 277.685 213.48C278.271 214.76 278.605 216.213 278.685 217.84C278.498 218.613 278.165 219.24 277.685 219.72C277.018 219.72 276.205 219.733 275.245 219.76C274.285 219.76 273.245 219.773 272.125 219.8C271.031 219.8 269.911 219.827 268.765 219.88C267.645 219.907 266.578 219.96 265.565 220.04V217.4H273.245C273.245 215.613 272.978 214.24 272.445 213.28C271.938 212.293 271.191 211.8 270.205 211.8C269.565 211.8 268.991 212.013 268.485 212.44C267.978 212.84 267.578 213.493 267.285 214.4C266.991 215.28 266.845 216.44 266.845 217.88C266.845 219.24 267.018 220.493 267.365 221.64C267.711 222.787 268.285 223.693 269.085 224.36C269.911 225.027 271.031 225.36 272.445 225.36C273.351 225.36 274.258 225.187 275.165 224.84C276.071 224.493 276.845 224.04 277.485 223.48C277.725 223.613 277.951 223.88 278.165 224.28C278.378 224.68 278.485 225.08 278.485 225.48C277.498 226.467 276.365 227.2 275.085 227.68C273.805 228.133 272.338 228.36 270.685 228.36ZM42.0459 256.72L51.2059 277.32C51.7659 278.493 52.2059 279.387 52.5259 280C52.8726 280.613 53.1926 281.027 53.4859 281.24C53.8059 281.453 54.1659 281.6 54.5659 281.68C54.6726 282.027 54.7393 282.4 54.7659 282.8C54.8193 283.2 54.8459 283.64 54.8459 284.12C54.4193 284.067 53.8593 284.027 53.1659 284C52.4726 284 51.7659 284 51.0459 284C50.3526 284 49.7926 284 49.3659 284C49.0459 284 48.6193 284 48.0859 284C47.5526 284 46.9926 284 46.4059 284C45.8193 284.027 45.2593 284.04 44.7259 284.04C44.2193 284.067 43.8193 284.093 43.5259 284.12C43.5259 283.587 43.5526 283.133 43.6059 282.76C43.6593 282.36 43.7393 282 43.8459 281.68C44.8326 281.493 45.4193 281.2 45.6059 280.8C45.7926 280.373 45.6459 279.64 45.1659 278.6L41.0059 268.92C40.4459 267.693 39.9926 266.56 39.6459 265.52C39.2993 264.48 38.9793 263.4 38.6859 262.28H39.5659C39.2459 263.427 38.9126 264.547 38.5659 265.64C38.2193 266.707 37.8193 267.8 37.3659 268.92L33.8459 278C33.4459 279.067 33.3526 279.92 33.5659 280.56C33.7793 281.2 34.3659 281.573 35.3259 281.68C35.4326 282 35.4993 282.373 35.5259 282.8C35.5793 283.2 35.6059 283.64 35.6059 284.12C35.3126 284.093 34.9126 284.067 34.4059 284.04C33.9259 284.04 33.4059 284.027 32.8459 284C32.3126 284 31.8193 284 31.3659 284C30.6993 284 30.0326 284 29.3659 284C28.6993 284.027 28.1659 284.067 27.7659 284.12C27.7659 283.667 27.7926 283.24 27.8459 282.84C27.8993 282.44 27.9926 282.053 28.1259 281.68C28.5793 281.6 28.9659 281.44 29.2859 281.2C29.6059 280.933 29.9126 280.507 30.2059 279.92C30.5259 279.333 30.8993 278.533 31.3259 277.52L39.6859 256.92C40.1126 256.813 40.4859 256.76 40.8059 256.76C41.1526 256.733 41.5659 256.72 42.0459 256.72ZM44.1659 274.12L44.7659 276.32C42.9793 276.32 41.0993 276.347 39.1259 276.4C37.1793 276.453 35.2993 276.547 33.4859 276.68L34.1259 274.12H44.1659ZM72.2269 281.64C71.5069 282.52 70.5735 283.2 69.4269 283.68C68.2802 284.133 66.9602 284.36 65.4669 284.36C63.6535 284.36 62.0269 284.013 60.5869 283.32C59.1735 282.627 58.0402 281.587 57.1869 280.2C56.3602 278.813 55.9469 277.053 55.9469 274.92C55.9469 273.32 56.2935 271.787 56.9869 270.32C57.6802 268.853 58.7069 267.653 60.0669 266.72C61.4535 265.787 63.1602 265.32 65.1869 265.32C66.6269 265.32 67.8802 265.467 68.9469 265.76C70.0402 266.027 71.0135 266.44 71.8669 267C71.7069 267.747 71.6002 268.52 71.5469 269.32C71.4935 270.093 71.4669 270.96 71.4669 271.92C71.0402 272.107 70.5469 272.24 69.9869 272.32C69.4269 272.4 68.8935 272.44 68.3869 272.44C68.3069 270.893 67.9735 269.72 67.3869 268.92C66.8269 268.12 66.0802 267.72 65.1469 267.72C64.0269 267.72 63.1602 268.32 62.5469 269.52C61.9335 270.72 61.6269 272.333 61.6269 274.36C61.6269 275.507 61.8135 276.627 62.1869 277.72C62.5869 278.787 63.1869 279.667 63.9869 280.36C64.7869 281.027 65.8135 281.36 67.0669 281.36C67.9202 281.36 68.6935 281.227 69.3869 280.96C70.1069 280.667 70.7335 280.267 71.2669 279.76C71.5069 279.973 71.7069 280.24 71.8669 280.56C72.0535 280.88 72.1735 281.24 72.2269 281.64ZM90.8597 281.64C90.1397 282.52 89.2064 283.2 88.0597 283.68C86.913 284.133 85.593 284.36 84.0997 284.36C82.2864 284.36 80.6597 284.013 79.2197 283.32C77.8064 282.627 76.673 281.587 75.8197 280.2C74.993 278.813 74.5797 277.053 74.5797 274.92C74.5797 273.32 74.9264 271.787 75.6197 270.32C76.313 268.853 77.3397 267.653 78.6997 266.72C80.0864 265.787 81.793 265.32 83.8197 265.32C85.2597 265.32 86.513 265.467 87.5797 265.76C88.673 266.027 89.6464 266.44 90.4997 267C90.3397 267.747 90.233 268.52 90.1797 269.32C90.1264 270.093 90.0997 270.96 90.0997 271.92C89.673 272.107 89.1797 272.24 88.6197 272.32C88.0597 272.4 87.5264 272.44 87.0197 272.44C86.9397 270.893 86.6064 269.72 86.0197 268.92C85.4597 268.12 84.713 267.72 83.7797 267.72C82.6597 267.72 81.793 268.32 81.1797 269.52C80.5664 270.72 80.2597 272.333 80.2597 274.36C80.2597 275.507 80.4464 276.627 80.8197 277.72C81.2197 278.787 81.8197 279.667 82.6197 280.36C83.4197 281.027 84.4464 281.36 85.6997 281.36C86.553 281.36 87.3264 281.227 88.0197 280.96C88.7397 280.667 89.3664 280.267 89.8997 279.76C90.1397 279.973 90.3397 280.24 90.4997 280.56C90.6864 280.88 90.8064 281.24 90.8597 281.64ZM103.133 284.36C101.026 284.36 99.2258 283.987 97.7325 283.24C96.2392 282.467 95.1058 281.387 94.3325 280C93.5858 278.587 93.2125 276.933 93.2125 275.04C93.2125 272.987 93.6525 271.24 94.5325 269.8C95.4125 268.333 96.6125 267.227 98.1325 266.48C99.6792 265.707 101.399 265.32 103.293 265.32C105.479 265.32 107.306 265.72 108.773 266.52C110.266 267.32 111.386 268.427 112.133 269.84C112.906 271.227 113.293 272.84 113.293 274.68C113.293 276.627 112.879 278.333 112.053 279.8C111.226 281.24 110.053 282.36 108.533 283.16C107.013 283.96 105.213 284.36 103.133 284.36ZM103.653 281.84C104.906 281.84 105.839 281.253 106.453 280.08C107.093 278.88 107.413 277.387 107.413 275.6C107.413 273.893 107.199 272.453 106.773 271.28C106.346 270.107 105.786 269.227 105.093 268.64C104.399 268.053 103.639 267.76 102.813 267.76C101.559 267.76 100.626 268.347 100.013 269.52C99.3992 270.667 99.0925 272.107 99.0925 273.84C99.0925 275.387 99.2658 276.773 99.6125 278C99.9858 279.2 100.519 280.147 101.213 280.84C101.906 281.507 102.719 281.84 103.653 281.84ZM115.868 284.12C115.868 283.64 115.881 283.2 115.908 282.8C115.961 282.373 116.054 282 116.188 281.68C117.281 281.627 117.988 281.373 118.308 280.92C118.654 280.44 118.828 279.533 118.828 278.2V272.48C118.828 271.6 118.761 270.92 118.628 270.44C118.521 269.933 118.254 269.573 117.828 269.36C117.428 269.12 116.788 268.973 115.908 268.92C115.908 268.547 115.934 268.173 115.988 267.8C116.068 267.4 116.201 267.013 116.388 266.64C117.188 266.64 118.028 266.587 118.908 266.48C119.814 266.347 120.654 266.187 121.428 266C122.228 265.787 122.854 265.56 123.308 265.32C123.628 265.427 123.894 265.653 124.108 266C124.321 266.32 124.428 266.8 124.428 267.44C124.428 267.893 124.374 268.4 124.268 268.96C124.188 269.52 124.014 270.387 123.748 271.56H123.428C123.908 270.333 124.268 269.48 124.508 269C124.774 268.493 125.014 268.133 125.228 267.92C125.788 267.28 126.548 266.693 127.508 266.16C128.468 265.627 129.561 265.36 130.788 265.36C132.041 265.36 133.148 265.627 134.108 266.16C135.094 266.693 135.828 267.493 136.308 268.56C136.601 269.093 136.748 269.667 136.748 270.28H136.588C136.988 269.213 137.441 268.427 137.948 267.92C138.481 267.333 139.188 266.8 140.068 266.32C140.974 265.84 142.014 265.6 143.188 265.6C144.494 265.6 145.614 265.827 146.548 266.28C147.481 266.707 148.201 267.413 148.708 268.4C149.241 269.387 149.508 270.707 149.508 272.36V277.2C149.508 278.453 149.561 279.4 149.668 280.04C149.801 280.653 150.014 281.067 150.308 281.28C150.601 281.493 151.028 281.627 151.588 281.68C151.694 282.027 151.761 282.4 151.788 282.8C151.841 283.2 151.868 283.64 151.868 284.12C151.228 284.067 150.468 284.027 149.588 284C148.708 284 147.801 284 146.868 284C146.254 284 145.601 284 144.908 284C144.214 284.027 143.548 284.04 142.908 284.04C142.268 284.067 141.708 284.093 141.228 284.12C141.228 283.587 141.241 283.133 141.268 282.76C141.321 282.387 141.401 282.027 141.508 281.68C142.068 281.627 142.521 281.493 142.868 281.28C143.214 281.04 143.454 280.613 143.588 280C143.748 279.387 143.828 278.52 143.828 277.4V273.56C143.828 271.827 143.561 270.653 143.028 270.04C142.521 269.427 141.841 269.12 140.988 269.12C140.268 269.12 139.601 269.36 138.988 269.84C138.374 270.32 137.894 271.04 137.548 272C137.201 272.933 137.028 274.12 137.028 275.56V278.08C137.028 279.44 137.188 280.373 137.508 280.88C137.854 281.36 138.481 281.627 139.388 281.68C139.494 281.973 139.574 282.333 139.628 282.76C139.681 283.187 139.708 283.64 139.708 284.12C139.068 284.067 138.241 284.027 137.228 284C136.214 284 135.214 284 134.228 284C133.268 284 132.281 284 131.268 284C130.281 284.027 129.428 284.067 128.708 284.12C128.708 283.64 128.721 283.187 128.748 282.76C128.801 282.333 128.881 281.973 128.988 281.68C129.628 281.627 130.121 281.493 130.468 281.28C130.814 281.067 131.054 280.64 131.188 280C131.321 279.36 131.388 278.427 131.388 277.2V273.24C131.388 271.64 131.121 270.547 130.588 269.96C130.081 269.347 129.348 269.04 128.388 269.04C127.721 269.04 127.081 269.293 126.468 269.8C125.881 270.307 125.401 271.04 125.028 272C124.681 272.96 124.508 274.12 124.508 275.48V278.08C124.508 279.467 124.668 280.4 124.988 280.88C125.308 281.36 125.934 281.627 126.868 281.68C126.974 282 127.041 282.373 127.068 282.8C127.121 283.2 127.148 283.64 127.148 284.12C126.721 284.067 126.161 284.027 125.468 284C124.801 284 124.108 284 123.388 284C122.668 284 122.014 284 121.428 284C120.868 284 120.228 284 119.508 284C118.788 284 118.094 284 117.428 284C116.788 284.027 116.268 284.067 115.868 284.12ZM154.54 284.12C154.54 283.64 154.553 283.2 154.58 282.8C154.633 282.373 154.726 282 154.86 281.68C155.953 281.627 156.66 281.373 156.98 280.92C157.326 280.44 157.5 279.533 157.5 278.2V272.48C157.5 271.6 157.433 270.92 157.3 270.44C157.193 269.933 156.926 269.573 156.5 269.36C156.1 269.12 155.46 268.973 154.58 268.92C154.58 268.547 154.606 268.173 154.66 267.8C154.74 267.4 154.873 267.013 155.06 266.64C155.86 266.64 156.7 266.587 157.58 266.48C158.486 266.347 159.326 266.187 160.1 266C160.9 265.787 161.526 265.56 161.98 265.32C162.3 265.427 162.566 265.653 162.78 266C162.993 266.32 163.1 266.8 163.1 267.44C163.1 267.893 163.046 268.4 162.94 268.96C162.86 269.52 162.686 270.387 162.42 271.56H162.1C162.58 270.333 162.94 269.48 163.18 269C163.446 268.493 163.686 268.133 163.9 267.92C164.46 267.28 165.22 266.693 166.18 266.16C167.14 265.627 168.233 265.36 169.46 265.36C170.713 265.36 171.82 265.627 172.78 266.16C173.766 266.693 174.5 267.493 174.98 268.56C175.273 269.093 175.42 269.667 175.42 270.28H175.26C175.66 269.213 176.113 268.427 176.62 267.92C177.153 267.333 177.86 266.8 178.74 266.32C179.646 265.84 180.686 265.6 181.86 265.6C183.166 265.6 184.286 265.827 185.22 266.28C186.153 266.707 186.873 267.413 187.38 268.4C187.913 269.387 188.18 270.707 188.18 272.36V277.2C188.18 278.453 188.233 279.4 188.34 280.04C188.473 280.653 188.686 281.067 188.98 281.28C189.273 281.493 189.7 281.627 190.26 281.68C190.366 282.027 190.433 282.4 190.46 282.8C190.513 283.2 190.54 283.64 190.54 284.12C189.9 284.067 189.14 284.027 188.26 284C187.38 284 186.473 284 185.54 284C184.926 284 184.273 284 183.58 284C182.886 284.027 182.22 284.04 181.58 284.04C180.94 284.067 180.38 284.093 179.9 284.12C179.9 283.587 179.913 283.133 179.94 282.76C179.993 282.387 180.073 282.027 180.18 281.68C180.74 281.627 181.193 281.493 181.54 281.28C181.886 281.04 182.126 280.613 182.26 280C182.42 279.387 182.5 278.52 182.5 277.4V273.56C182.5 271.827 182.233 270.653 181.7 270.04C181.193 269.427 180.513 269.12 179.66 269.12C178.94 269.12 178.273 269.36 177.66 269.84C177.046 270.32 176.566 271.04 176.22 272C175.873 272.933 175.7 274.12 175.7 275.56V278.08C175.7 279.44 175.86 280.373 176.18 280.88C176.526 281.36 177.153 281.627 178.06 281.68C178.166 281.973 178.246 282.333 178.3 282.76C178.353 283.187 178.38 283.64 178.38 284.12C177.74 284.067 176.913 284.027 175.9 284C174.886 284 173.886 284 172.9 284C171.94 284 170.953 284 169.94 284C168.953 284.027 168.1 284.067 167.38 284.12C167.38 283.64 167.393 283.187 167.42 282.76C167.473 282.333 167.553 281.973 167.66 281.68C168.3 281.627 168.793 281.493 169.14 281.28C169.486 281.067 169.726 280.64 169.86 280C169.993 279.36 170.06 278.427 170.06 277.2V273.24C170.06 271.64 169.793 270.547 169.26 269.96C168.753 269.347 168.02 269.04 167.06 269.04C166.393 269.04 165.753 269.293 165.14 269.8C164.553 270.307 164.073 271.04 163.7 272C163.353 272.96 163.18 274.12 163.18 275.48V278.08C163.18 279.467 163.34 280.4 163.66 280.88C163.98 281.36 164.606 281.627 165.54 281.68C165.646 282 165.713 282.373 165.74 282.8C165.793 283.2 165.82 283.64 165.82 284.12C165.393 284.067 164.833 284.027 164.14 284C163.473 284 162.78 284 162.06 284C161.34 284 160.686 284 160.1 284C159.54 284 158.9 284 158.18 284C157.46 284 156.766 284 156.1 284C155.46 284.027 154.94 284.067 154.54 284.12ZM202.547 284.36C200.44 284.36 198.64 283.987 197.147 283.24C195.653 282.467 194.52 281.387 193.747 280C193 278.587 192.627 276.933 192.627 275.04C192.627 272.987 193.067 271.24 193.947 269.8C194.827 268.333 196.027 267.227 197.547 266.48C199.093 265.707 200.813 265.32 202.707 265.32C204.893 265.32 206.72 265.72 208.187 266.52C209.68 267.32 210.8 268.427 211.547 269.84C212.32 271.227 212.707 272.84 212.707 274.68C212.707 276.627 212.293 278.333 211.467 279.8C210.64 281.24 209.467 282.36 207.947 283.16C206.427 283.96 204.627 284.36 202.547 284.36ZM203.067 281.84C204.32 281.84 205.253 281.253 205.867 280.08C206.507 278.88 206.827 277.387 206.827 275.6C206.827 273.893 206.613 272.453 206.187 271.28C205.76 270.107 205.2 269.227 204.507 268.64C203.813 268.053 203.053 267.76 202.227 267.76C200.973 267.76 200.04 268.347 199.427 269.52C198.813 270.667 198.507 272.107 198.507 273.84C198.507 275.387 198.68 276.773 199.027 278C199.4 279.2 199.933 280.147 200.627 280.84C201.32 281.507 202.133 281.84 203.067 281.84ZM226.437 265.32C227.051 265.32 227.611 265.373 228.117 265.48C228.651 265.56 229.211 265.68 229.797 265.84V269.56C229.317 268.973 228.811 268.52 228.277 268.2C227.771 267.853 227.131 267.68 226.357 267.68C225.851 267.68 225.304 267.787 224.717 268C224.157 268.187 223.624 268.547 223.117 269.08C222.611 269.587 222.197 270.333 221.877 271.32C221.557 272.28 221.397 273.52 221.397 275.04C221.397 276.293 221.557 277.373 221.877 278.28C222.224 279.187 222.677 279.893 223.237 280.4C223.797 280.88 224.437 281.12 225.157 281.12C225.851 281.12 226.517 280.907 227.157 280.48C227.797 280.027 228.317 279.307 228.717 278.32C229.144 277.307 229.357 275.973 229.357 274.32L230.917 278.4C230.491 279.44 230.091 280.253 229.717 280.84C229.344 281.4 228.984 281.827 228.637 282.12C228.371 282.44 227.971 282.773 227.437 283.12C226.931 283.467 226.331 283.76 225.637 284C224.944 284.24 224.184 284.36 223.357 284.36C221.837 284.36 220.477 284.067 219.277 283.48C218.104 282.893 217.184 281.973 216.517 280.72C215.851 279.467 215.517 277.853 215.517 275.88C215.517 273.853 215.971 272.04 216.877 270.44C217.784 268.84 219.051 267.587 220.677 266.68C222.331 265.773 224.251 265.32 226.437 265.32ZM235.037 277.32C235.037 278.147 235.091 278.8 235.197 279.28C235.304 279.733 235.531 280.053 235.877 280.24C236.224 280.427 236.731 280.52 237.397 280.52C237.451 280.947 237.451 281.387 237.397 281.84C237.344 282.267 237.224 282.667 237.037 283.04C236.077 283.067 235.064 283.2 233.997 283.44C232.957 283.653 231.997 283.96 231.117 284.36C230.691 284.173 230.371 283.92 230.157 283.6C229.944 283.28 229.837 282.773 229.837 282.08C229.837 281.547 229.891 281.013 229.997 280.48C230.131 279.947 230.304 279.32 230.517 278.6L235.037 277.32ZM235.037 261.16V278.8H229.357V261.16H235.037ZM233.877 255.32C234.224 255.453 234.504 255.693 234.717 256.04C234.931 256.36 235.037 256.827 235.037 257.44V262.52H229.357V261.76C229.357 261.12 229.277 260.6 229.117 260.2C228.984 259.8 228.704 259.507 228.277 259.32C227.851 259.107 227.211 258.973 226.357 258.92C226.357 258.52 226.384 258.133 226.437 257.76C226.517 257.36 226.637 256.987 226.797 256.64C227.704 256.64 228.624 256.573 229.557 256.44C230.491 256.307 231.344 256.147 232.117 255.96C232.917 255.747 233.504 255.533 233.877 255.32ZM253.052 284.36C252.599 284.173 252.279 283.907 252.092 283.56C251.906 283.187 251.812 282.68 251.812 282.04C251.812 281.72 251.839 281.347 251.892 280.92C251.946 280.467 252.039 280.04 252.172 279.64L252.292 279.52C252.106 280.213 251.839 280.853 251.492 281.44C251.146 282 250.732 282.467 250.252 282.84C249.719 283.32 249.066 283.68 248.292 283.92C247.546 284.16 246.652 284.28 245.612 284.28C243.826 284.28 242.439 283.893 241.452 283.12C240.466 282.347 239.972 281.24 239.972 279.8C239.972 278.787 240.199 277.92 240.652 277.2C241.132 276.453 241.772 275.827 242.572 275.32C243.372 274.813 244.266 274.4 245.252 274.08C246.239 273.76 247.239 273.507 248.252 273.32C249.292 273.133 250.266 272.973 251.172 272.84C251.172 272.067 251.146 271.427 251.092 270.92C251.066 270.387 250.986 269.947 250.852 269.6C250.746 269.227 250.559 268.907 250.292 268.64C249.999 268.267 249.652 268.013 249.252 267.88C248.879 267.72 248.479 267.64 248.052 267.64C247.306 267.64 246.706 267.867 246.252 268.32C245.826 268.747 245.506 269.307 245.292 270C245.079 270.693 244.946 271.4 244.892 272.12C244.252 272.12 243.652 272.093 243.092 272.04C242.532 271.987 242.039 271.88 241.612 271.72C241.666 271 241.679 270.227 241.652 269.4C241.626 268.573 241.532 267.747 241.372 266.92C242.492 266.413 243.772 266.013 245.212 265.72C246.679 265.427 248.052 265.28 249.332 265.28C250.852 265.28 252.079 265.467 253.012 265.84C253.946 266.187 254.652 266.6 255.132 267.08C255.692 267.667 256.119 268.467 256.412 269.48C256.732 270.467 256.892 271.893 256.892 273.76V277.24C256.892 278.093 256.946 278.76 257.052 279.24C257.159 279.693 257.372 280.013 257.692 280.2C258.039 280.387 258.559 280.493 259.252 280.52C259.306 280.947 259.306 281.387 259.252 281.84C259.199 282.267 259.079 282.667 258.892 283.04C257.932 283.067 256.932 283.2 255.892 283.44C254.879 283.653 253.932 283.96 253.052 284.36ZM247.612 280.96C248.146 280.96 248.692 280.787 249.252 280.44C249.812 280.067 250.266 279.52 250.612 278.8C250.986 278.08 251.172 277.16 251.172 276.04V274.96C250.399 275.093 249.666 275.253 248.972 275.44C248.306 275.627 247.719 275.867 247.212 276.16C246.732 276.427 246.359 276.773 246.092 277.2C245.826 277.6 245.692 278.107 245.692 278.72C245.692 279.52 245.879 280.093 246.252 280.44C246.652 280.787 247.106 280.96 247.612 280.96ZM268.859 284.36C267.019 284.36 265.633 283.88 264.699 282.92C263.766 281.96 263.299 280.347 263.299 278.08V269.08C262.873 268.92 262.433 268.8 261.979 268.72C261.526 268.64 260.979 268.587 260.339 268.56C260.339 268.08 260.366 267.653 260.419 267.28C260.499 266.907 260.633 266.507 260.819 266.08H263.299V261.16C264.179 261.027 265.046 260.787 265.899 260.44C266.753 260.067 267.459 259.653 268.019 259.2C268.393 259.36 268.646 259.587 268.779 259.88C268.913 260.173 268.979 260.76 268.979 261.64V266.08H273.899C273.899 266.56 273.873 267.013 273.819 267.44C273.766 267.84 273.673 268.227 273.539 268.6C272.633 268.6 271.806 268.653 271.059 268.76C270.313 268.867 269.619 269.013 268.979 269.2V277.4C268.979 278.467 269.046 279.307 269.179 279.92C269.339 280.507 269.579 280.92 269.899 281.16C270.219 281.4 270.606 281.52 271.059 281.52C271.513 281.52 271.939 281.467 272.339 281.36C272.766 281.227 273.166 281.053 273.539 280.84C273.913 281.32 274.113 281.973 274.139 282.8C273.606 283.253 272.846 283.627 271.859 283.92C270.899 284.213 269.899 284.36 268.859 284.36ZM276.258 284.12C276.258 283.64 276.272 283.2 276.298 282.8C276.352 282.373 276.432 282 276.538 281.68C277.605 281.653 278.312 281.4 278.658 280.92C279.032 280.44 279.218 279.533 279.218 278.2V271.76C279.218 271.12 279.152 270.6 279.018 270.2C278.885 269.8 278.605 269.507 278.178 269.32C277.752 269.107 277.112 268.973 276.258 268.92C276.258 268.52 276.285 268.133 276.338 267.76C276.392 267.36 276.512 266.987 276.698 266.64C277.578 266.64 278.485 266.573 279.418 266.44C280.378 266.307 281.245 266.147 282.018 265.96C282.818 265.747 283.405 265.533 283.778 265.32C284.125 265.453 284.405 265.693 284.618 266.04C284.832 266.36 284.938 266.827 284.938 267.44V278.2C284.938 279.533 285.112 280.44 285.458 280.92C285.805 281.4 286.458 281.653 287.418 281.68C287.525 282 287.592 282.387 287.618 282.84C287.672 283.267 287.698 283.693 287.698 284.12C287.298 284.093 286.792 284.067 286.178 284.04C285.565 284.04 284.898 284.027 284.178 284C283.458 284 282.738 284 282.018 284C281.298 284 280.565 284 279.818 284C279.072 284.027 278.392 284.04 277.778 284.04C277.165 284.067 276.658 284.093 276.258 284.12ZM281.578 262.16C280.618 262.16 279.832 261.907 279.218 261.4C278.632 260.867 278.338 260.187 278.338 259.36C278.338 258.4 278.672 257.653 279.338 257.12C280.005 256.587 280.805 256.32 281.738 256.32C282.832 256.32 283.672 256.587 284.258 257.12C284.845 257.653 285.138 258.387 285.138 259.32C285.138 260.12 284.818 260.8 284.178 261.36C283.538 261.893 282.672 262.16 281.578 262.16ZM299.695 284.36C297.588 284.36 295.788 283.987 294.295 283.24C292.802 282.467 291.668 281.387 290.895 280C290.148 278.587 289.775 276.933 289.775 275.04C289.775 272.987 290.215 271.24 291.095 269.8C291.975 268.333 293.175 267.227 294.695 266.48C296.242 265.707 297.962 265.32 299.855 265.32C302.042 265.32 303.868 265.72 305.335 266.52C306.828 267.32 307.948 268.427 308.695 269.84C309.468 271.227 309.855 272.84 309.855 274.68C309.855 276.627 309.442 278.333 308.615 279.8C307.788 281.24 306.615 282.36 305.095 283.16C303.575 283.96 301.775 284.36 299.695 284.36ZM300.215 281.84C301.468 281.84 302.402 281.253 303.015 280.08C303.655 278.88 303.975 277.387 303.975 275.6C303.975 273.893 303.762 272.453 303.335 271.28C302.908 270.107 302.348 269.227 301.655 268.64C300.962 268.053 300.202 267.76 299.375 267.76C298.122 267.76 297.188 268.347 296.575 269.52C295.962 270.667 295.655 272.107 295.655 273.84C295.655 275.387 295.828 276.773 296.175 278C296.548 279.2 297.082 280.147 297.775 280.84C298.468 281.507 299.282 281.84 300.215 281.84ZM315.39 275.64V272.16C315.39 271.387 315.324 270.787 315.19 270.36C315.084 269.907 314.817 269.573 314.39 269.36C313.99 269.12 313.35 268.973 312.47 268.92C312.47 268.52 312.497 268.133 312.55 267.76C312.63 267.36 312.764 266.987 312.95 266.64C314.364 266.64 315.724 266.507 317.03 266.24C318.364 265.947 319.337 265.64 319.95 265.32C320.324 265.453 320.604 265.693 320.79 266.04C321.004 266.36 321.11 266.84 321.11 267.48L315.39 275.64ZM333.79 278.2C333.79 279.533 333.937 280.453 334.23 280.96C334.55 281.44 335.07 281.68 335.79 281.68C335.924 282 336.004 282.36 336.03 282.76C336.084 283.133 336.11 283.587 336.11 284.12C335.524 284.093 334.764 284.067 333.83 284.04C332.924 284.013 332.03 284 331.15 284C330.564 284 329.897 284 329.15 284C328.43 284.027 327.737 284.04 327.07 284.04C326.404 284.067 325.87 284.093 325.47 284.12C325.47 283.64 325.484 283.2 325.51 282.8C325.537 282.4 325.617 282.027 325.75 281.68C326.497 281.68 327.07 281.413 327.47 280.88C327.87 280.347 328.07 279.373 328.07 277.96V273.6C328.07 271.92 327.804 270.76 327.27 270.12C326.737 269.453 325.977 269.12 324.99 269.12C324.35 269.12 323.724 269.373 323.11 269.88C322.524 270.36 322.044 271.08 321.67 272.04C321.297 272.973 321.11 274.147 321.11 275.56V278.2C321.11 279.56 321.284 280.48 321.63 280.96C322.004 281.44 322.59 281.68 323.39 281.68C323.55 282.053 323.644 282.427 323.67 282.8C323.697 283.173 323.71 283.613 323.71 284.12C323.337 284.093 322.83 284.067 322.19 284.04C321.55 284.04 320.884 284.027 320.19 284C319.524 284 318.884 284 318.27 284C317.657 284 316.977 284 316.23 284C315.484 284.027 314.764 284.04 314.07 284.04C313.377 284.067 312.83 284.093 312.43 284.12C312.43 283.613 312.457 283.147 312.51 282.72C312.564 282.293 312.644 281.947 312.75 281.68C313.79 281.68 314.484 281.44 314.83 280.96C315.204 280.453 315.39 279.533 315.39 278.2V272.16L321.11 267.48C321.11 267.8 321.07 268.173 320.99 268.6C320.937 269 320.844 269.427 320.71 269.88C320.87 269.56 321.03 269.24 321.19 268.92C321.35 268.6 321.564 268.293 321.83 268C322.364 267.387 323.11 266.827 324.07 266.32C325.03 265.787 326.137 265.52 327.39 265.52C328.51 265.52 329.55 265.733 330.51 266.16C331.497 266.587 332.284 267.28 332.87 268.24C333.484 269.2 333.79 270.467 333.79 272.04V278.2ZM352.998 266.6C352.971 267.267 352.958 267.973 352.958 268.72C352.984 269.44 353.051 270.147 353.158 270.84C352.784 271.053 352.331 271.227 351.798 271.36C351.264 271.493 350.704 271.56 350.118 271.56C350.064 270.867 349.878 270.24 349.558 269.68C349.264 269.093 348.838 268.627 348.278 268.28C347.744 267.907 347.078 267.72 346.278 267.72C345.664 267.72 345.171 267.88 344.798 268.2C344.424 268.52 344.238 268.933 344.238 269.44C344.238 269.813 344.331 270.16 344.518 270.48C344.704 270.773 345.104 271.107 345.718 271.48C346.358 271.827 347.318 272.267 348.598 272.8C350.118 273.413 351.304 274 352.158 274.56C353.011 275.093 353.611 275.693 353.958 276.36C354.331 277 354.518 277.773 354.518 278.68C354.518 279.88 354.171 280.907 353.478 281.76C352.811 282.613 351.851 283.267 350.598 283.72C349.344 284.147 347.864 284.36 346.158 284.36C344.504 284.36 343.144 284.24 342.078 284C341.011 283.76 339.971 283.413 338.958 282.96C339.011 282.453 339.051 281.907 339.078 281.32C339.104 280.707 339.104 280.107 339.078 279.52C339.078 278.933 339.051 278.427 338.998 278C339.371 277.76 339.851 277.587 340.438 277.48C341.024 277.373 341.584 277.32 342.118 277.32C342.278 278.813 342.704 279.933 343.398 280.68C344.118 281.427 345.024 281.8 346.118 281.8C346.918 281.8 347.558 281.627 348.038 281.28C348.518 280.907 348.758 280.413 348.758 279.8C348.758 279.373 348.651 279.013 348.438 278.72C348.251 278.4 347.878 278.08 347.318 277.76C346.784 277.44 345.984 277.067 344.918 276.64C343.664 276.16 342.611 275.667 341.758 275.16C340.904 274.653 340.251 274.04 339.798 273.32C339.344 272.573 339.118 271.627 339.118 270.48C339.118 269.6 339.318 268.84 339.718 268.2C340.118 267.56 340.664 267.027 341.358 266.6C342.078 266.173 342.878 265.853 343.758 265.64C344.664 265.427 345.611 265.32 346.598 265.32C348.011 265.32 349.211 265.427 350.198 265.64C351.184 265.853 352.118 266.173 352.998 266.6Z" fill="#354F52"/>
<rect x="105.5" y="393.5" width="160" height="35" fill="#CAD2C5" stroke="black"/>
<path d="M152.754 413.938C152.43 414.334 152.01 414.64 151.494 414.856C150.978 415.06 150.384 415.162 149.712 415.162C148.896 415.162 148.164 415.006 147.516 414.694C146.88 414.382 146.37 413.914 145.986 413.29C145.614 412.666 145.428 411.874 145.428 410.914C145.428 410.194 145.584 409.504 145.896 408.844C146.208 408.184 146.67 407.644 147.282 407.224C147.906 406.804 148.674 406.594 149.586 406.594C150.234 406.594 150.798 406.66 151.278 406.792C151.77 406.912 152.208 407.098 152.592 407.35C152.52 407.686 152.472 408.034 152.448 408.394C152.424 408.742 152.412 409.132 152.412 409.564C152.22 409.648 151.998 409.708 151.746 409.744C151.494 409.78 151.254 409.798 151.026 409.798C150.99 409.102 150.84 408.574 150.576 408.214C150.324 407.854 149.988 407.674 149.568 407.674C149.064 407.674 148.674 407.944 148.398 408.484C148.122 409.024 147.984 409.75 147.984 410.662C147.984 411.178 148.068 411.682 148.236 412.174C148.416 412.654 148.686 413.05 149.046 413.362C149.406 413.662 149.868 413.812 150.432 413.812C150.816 413.812 151.164 413.752 151.476 413.632C151.8 413.5 152.082 413.32 152.322 413.092C152.43 413.188 152.52 413.308 152.592 413.452C152.676 413.596 152.73 413.758 152.754 413.938ZM153.458 415.054C153.458 414.838 153.464 414.64 153.476 414.46C153.5 414.268 153.536 414.1 153.584 413.956C154.064 413.944 154.382 413.83 154.538 413.614C154.706 413.398 154.79 412.99 154.79 412.39V404.902C154.79 404.638 154.754 404.428 154.682 404.272C154.61 404.104 154.478 403.978 154.286 403.894C154.094 403.798 153.812 403.738 153.44 403.714C153.44 403.534 153.452 403.36 153.476 403.192C153.512 403.012 153.566 402.844 153.638 402.688C154.046 402.688 154.46 402.658 154.88 402.598C155.312 402.538 155.702 402.466 156.05 402.382C156.398 402.286 156.656 402.19 156.824 402.094C156.98 402.154 157.106 402.262 157.202 402.418C157.298 402.562 157.346 402.772 157.346 403.048V412.39C157.346 412.99 157.424 413.398 157.58 413.614C157.736 413.83 158.036 413.944 158.48 413.956C158.528 414.1 158.558 414.274 158.57 414.478C158.582 414.67 158.588 414.862 158.588 415.054C158.42 415.042 158.192 415.03 157.904 415.018C157.628 415.018 157.328 415.012 157.004 415C156.68 415 156.356 415 156.032 415C155.708 415 155.378 415 155.042 415C154.706 415.012 154.4 415.018 154.124 415.018C153.848 415.03 153.626 415.042 153.458 415.054ZM159.683 415.054C159.683 414.838 159.689 414.64 159.701 414.46C159.725 414.268 159.761 414.1 159.809 413.956C160.289 413.944 160.607 413.83 160.763 413.614C160.931 413.398 161.015 412.99 161.015 412.39V409.492C161.015 409.204 160.985 408.97 160.925 408.79C160.865 408.61 160.739 408.478 160.547 408.394C160.355 408.298 160.067 408.238 159.683 408.214C159.683 408.034 159.695 407.86 159.719 407.692C159.743 407.512 159.797 407.344 159.881 407.188C160.277 407.188 160.685 407.158 161.105 407.098C161.537 407.038 161.927 406.966 162.275 406.882C162.635 406.786 162.899 406.69 163.067 406.594C163.223 406.654 163.349 406.762 163.445 406.918C163.541 407.062 163.589 407.272 163.589 407.548V412.39C163.589 412.99 163.667 413.398 163.823 413.614C163.979 413.83 164.273 413.944 164.705 413.956C164.753 414.1 164.783 414.274 164.795 414.478C164.819 414.67 164.831 414.862 164.831 415.054C164.651 415.042 164.423 415.03 164.147 415.018C163.871 415.018 163.571 415.012 163.247 415C162.923 415 162.599 415 162.275 415C161.951 415 161.621 415 161.285 415C160.949 415.012 160.643 415.018 160.367 415.018C160.091 415.03 159.863 415.042 159.683 415.054ZM162.077 405.172C161.645 405.172 161.291 405.058 161.015 404.83C160.751 404.59 160.619 404.284 160.619 403.912C160.619 403.48 160.769 403.144 161.069 402.904C161.369 402.664 161.729 402.544 162.149 402.544C162.641 402.544 163.019 402.664 163.283 402.904C163.547 403.144 163.679 403.474 163.679 403.894C163.679 404.254 163.535 404.56 163.247 404.812C162.959 405.052 162.569 405.172 162.077 405.172ZM173.092 413.938C172.768 414.334 172.348 414.64 171.832 414.856C171.316 415.06 170.722 415.162 170.05 415.162C169.234 415.162 168.502 415.006 167.854 414.694C167.218 414.382 166.708 413.914 166.324 413.29C165.952 412.666 165.766 411.874 165.766 410.914C165.766 410.194 165.922 409.504 166.234 408.844C166.546 408.184 167.008 407.644 167.62 407.224C168.244 406.804 169.012 406.594 169.924 406.594C170.572 406.594 171.136 406.66 171.616 406.792C172.108 406.912 172.546 407.098 172.93 407.35C172.858 407.686 172.81 408.034 172.786 408.394C172.762 408.742 172.75 409.132 172.75 409.564C172.558 409.648 172.336 409.708 172.084 409.744C171.832 409.78 171.592 409.798 171.364 409.798C171.328 409.102 171.178 408.574 170.914 408.214C170.662 407.854 170.326 407.674 169.906 407.674C169.402 407.674 169.012 407.944 168.736 408.484C168.46 409.024 168.322 409.75 168.322 410.662C168.322 411.178 168.406 411.682 168.574 412.174C168.754 412.654 169.024 413.05 169.384 413.362C169.744 413.662 170.206 413.812 170.77 413.812C171.154 413.812 171.502 413.752 171.814 413.632C172.138 413.5 172.42 413.32 172.66 413.092C172.768 413.188 172.858 413.308 172.93 413.452C173.014 413.596 173.068 413.758 173.092 413.938ZM173.796 415.054C173.796 414.838 173.802 414.64 173.814 414.46C173.838 414.268 173.874 414.1 173.922 413.956C174.402 413.944 174.72 413.83 174.876 413.614C175.044 413.398 175.128 412.99 175.128 412.39V404.992C175.128 404.704 175.092 404.47 175.02 404.29C174.96 404.11 174.834 403.978 174.642 403.894C174.45 403.798 174.162 403.738 173.778 403.714C173.778 403.534 173.79 403.36 173.814 403.192C173.85 403.012 173.904 402.844 173.976 402.688C174.384 402.688 174.798 402.658 175.218 402.598C175.65 402.538 176.04 402.466 176.388 402.382C176.736 402.286 176.994 402.19 177.162 402.094C177.318 402.154 177.444 402.262 177.54 402.418C177.636 402.562 177.684 402.772 177.684 403.048V412.39C177.684 412.978 177.75 413.38 177.882 413.596C178.014 413.812 178.26 413.932 178.62 413.956C178.668 414.1 178.698 414.274 178.71 414.478C178.722 414.67 178.728 414.862 178.728 415.054C178.464 415.03 178.11 415.012 177.666 415C177.222 415 176.772 415 176.316 415C176.004 415 175.686 415 175.362 415C175.038 415.012 174.738 415.018 174.462 415.018C174.186 415.03 173.964 415.042 173.796 415.054ZM180.834 415.162C180.654 414.874 180.42 414.544 180.132 414.172C179.856 413.788 179.556 413.392 179.232 412.984C178.908 412.564 178.578 412.156 178.242 411.76C177.906 411.364 177.588 411.01 177.288 410.698L178.944 409.204C179.28 408.892 179.508 408.652 179.628 408.484C179.76 408.316 179.826 408.184 179.826 408.088C179.826 407.992 179.79 407.92 179.718 407.872C179.646 407.824 179.52 407.8 179.34 407.8C179.28 407.62 179.232 407.44 179.196 407.26C179.172 407.08 179.16 406.9 179.16 406.72C179.364 406.72 179.604 406.726 179.88 406.738C180.156 406.738 180.45 406.744 180.762 406.756C181.074 406.756 181.368 406.756 181.644 406.756C181.92 406.756 182.202 406.756 182.49 406.756C182.79 406.744 183.072 406.732 183.336 406.72C183.336 406.912 183.324 407.098 183.3 407.278C183.276 407.458 183.234 407.632 183.174 407.8C182.886 407.812 182.622 407.854 182.382 407.926C182.154 407.998 181.92 408.112 181.68 408.268C181.452 408.412 181.188 408.622 180.888 408.898L179.34 410.302L179.16 409.438C179.724 409.93 180.258 410.458 180.762 411.022C181.278 411.586 181.812 412.234 182.364 412.966C182.544 413.206 182.706 413.392 182.85 413.524C183.006 413.656 183.162 413.752 183.318 413.812C183.474 413.86 183.666 413.896 183.894 413.92C183.894 414.112 183.882 414.304 183.858 414.496C183.834 414.676 183.786 414.844 183.714 415C183.414 415 183.09 415.006 182.742 415.018C182.406 415.03 182.07 415.042 181.734 415.054C181.398 415.078 181.098 415.114 180.834 415.162ZM197.91 412.39C197.91 412.99 197.976 413.404 198.108 413.632C198.252 413.848 198.486 413.956 198.81 413.956C198.87 414.1 198.912 414.262 198.936 414.442C198.96 414.61 198.972 414.814 198.972 415.054C198.708 415.042 198.366 415.03 197.946 415.018C197.526 415.006 197.118 415 196.722 415C196.458 415 196.158 415 195.822 415C195.498 415.012 195.186 415.018 194.886 415.018C194.586 415.03 194.346 415.042 194.166 415.054C194.166 414.838 194.172 414.64 194.184 414.46C194.196 414.28 194.238 414.112 194.31 413.956C194.646 413.956 194.904 413.836 195.084 413.596C195.264 413.356 195.354 412.918 195.354 412.282V410.32C195.354 409.564 195.228 409.042 194.976 408.754C194.736 408.454 194.4 408.304 193.968 408.304C193.668 408.304 193.38 408.418 193.104 408.646C192.84 408.862 192.624 409.186 192.456 409.618C192.288 410.038 192.204 410.566 192.204 411.202V412.39C192.204 413.002 192.282 413.416 192.438 413.632C192.606 413.848 192.87 413.956 193.23 413.956C193.302 414.124 193.344 414.292 193.356 414.46C193.38 414.628 193.392 414.826 193.392 415.054C193.212 415.042 192.978 415.03 192.69 415.018C192.414 415.018 192.12 415.012 191.808 415C191.496 415 191.202 415 190.926 415C190.662 415 190.356 415 190.008 415C189.672 415.012 189.348 415.018 189.036 415.018C188.736 415.03 188.496 415.042 188.316 415.054C188.316 414.826 188.322 414.616 188.334 414.424C188.358 414.232 188.394 414.076 188.442 413.956C188.91 413.956 189.228 413.848 189.396 413.632C189.564 413.404 189.648 412.99 189.648 412.39V409.672L192.204 407.566C192.204 407.71 192.186 407.878 192.15 408.07C192.126 408.25 192.084 408.442 192.024 408.646C192.096 408.502 192.168 408.358 192.24 408.214C192.312 408.07 192.408 407.932 192.528 407.8C192.768 407.524 193.104 407.272 193.536 407.044C193.968 406.804 194.472 406.684 195.048 406.684C195.54 406.684 196.002 406.78 196.434 406.972C196.878 407.164 197.232 407.476 197.496 407.908C197.772 408.34 197.91 408.91 197.91 409.618V412.39ZM189.648 404.992C189.648 404.704 189.612 404.47 189.54 404.29C189.48 404.11 189.354 403.978 189.162 403.894C188.97 403.798 188.682 403.738 188.298 403.714C188.298 403.534 188.31 403.36 188.334 403.192C188.37 403.012 188.424 402.844 188.496 402.688C188.904 402.688 189.318 402.658 189.738 402.598C190.17 402.538 190.56 402.466 190.908 402.382C191.256 402.286 191.514 402.19 191.682 402.094C191.838 402.154 191.964 402.262 192.06 402.418C192.156 402.562 192.204 402.772 192.204 403.048V405.334H189.648V404.992ZM189.648 404.722H192.204V407.566L189.648 410.14V404.722ZM204.24 415.162C203.22 415.162 202.392 414.976 201.756 414.604C201.12 414.232 200.652 413.728 200.352 413.092C200.052 412.444 199.902 411.724 199.902 410.932C199.902 410.08 200.07 409.33 200.406 408.682C200.742 408.034 201.222 407.524 201.846 407.152C202.482 406.78 203.22 406.594 204.06 406.594C204.924 406.594 205.626 406.762 206.166 407.098C206.718 407.422 207.126 407.878 207.39 408.466C207.654 409.042 207.804 409.696 207.84 410.428C207.756 410.776 207.606 411.058 207.39 411.274C207.09 411.274 206.724 411.28 206.292 411.292C205.86 411.292 205.392 411.298 204.888 411.31C204.396 411.31 203.892 411.322 203.376 411.346C202.872 411.358 202.392 411.382 201.936 411.418V410.23H205.392C205.392 409.426 205.272 408.808 205.032 408.376C204.804 407.932 204.468 407.71 204.024 407.71C203.736 407.71 203.478 407.806 203.25 407.998C203.022 408.178 202.842 408.472 202.71 408.88C202.578 409.276 202.512 409.798 202.512 410.446C202.512 411.058 202.59 411.622 202.746 412.138C202.902 412.654 203.16 413.062 203.52 413.362C203.892 413.662 204.396 413.812 205.032 413.812C205.44 413.812 205.848 413.734 206.256 413.578C206.664 413.422 207.012 413.218 207.3 412.966C207.408 413.026 207.51 413.146 207.606 413.326C207.702 413.506 207.75 413.686 207.75 413.866C207.306 414.31 206.796 414.64 206.22 414.856C205.644 415.06 204.984 415.162 204.24 415.162ZM212.984 411.886C212.984 412.402 213.038 412.804 213.146 413.092C213.266 413.38 213.452 413.59 213.704 413.722C213.968 413.842 214.322 413.92 214.766 413.956C214.826 414.1 214.862 414.268 214.874 414.46C214.886 414.652 214.892 414.85 214.892 415.054C214.688 415.042 214.43 415.03 214.118 415.018C213.818 415.018 213.494 415.012 213.146 415C212.798 415 212.456 415 212.12 415C211.58 415 211.022 415 210.446 415C209.87 415.012 209.414 415.03 209.078 415.054C209.078 414.802 209.084 414.592 209.096 414.424C209.12 414.244 209.15 414.088 209.186 413.956C209.51 413.932 209.762 413.872 209.942 413.776C210.122 413.68 210.242 413.506 210.302 413.254C210.374 412.99 210.41 412.624 210.41 412.156V410.914H212.984V411.886ZM212.984 409.69V411.238H210.41V409.276L212.984 407.566C212.984 407.866 212.948 408.172 212.876 408.484C212.816 408.784 212.738 409.144 212.642 409.564L212.984 409.69ZM212.588 409.636C212.684 409.36 212.78 409.084 212.876 408.808C212.972 408.532 213.062 408.322 213.146 408.178C213.41 407.758 213.734 407.41 214.118 407.134C214.502 406.858 214.934 406.72 215.414 406.72C215.882 406.72 216.308 406.864 216.692 407.152C216.656 407.392 216.62 407.668 216.584 407.98C216.56 408.28 216.542 408.586 216.53 408.898C216.53 409.21 216.536 409.498 216.548 409.762C216.368 409.834 216.128 409.888 215.828 409.924C215.54 409.96 215.282 409.978 215.054 409.978C215.042 409.498 214.97 409.168 214.838 408.988C214.706 408.796 214.52 408.7 214.28 408.7C214.1 408.7 213.908 408.808 213.704 409.024C213.5 409.228 213.326 409.504 213.182 409.852C213.05 410.188 212.984 410.554 212.984 410.95L212.588 409.636ZM210.41 411.238V409.672C210.41 409.324 210.38 409.054 210.32 408.862C210.272 408.658 210.152 408.508 209.96 408.412C209.78 408.304 209.492 408.238 209.096 408.214C209.096 408.034 209.108 407.86 209.132 407.692C209.168 407.512 209.228 407.344 209.312 407.188C209.948 407.188 210.56 407.128 211.148 407.008C211.748 406.876 212.186 406.738 212.462 406.594C212.63 406.654 212.756 406.762 212.84 406.918C212.936 407.062 212.984 407.278 212.984 407.566L210.41 411.238ZM221.977 415.162C220.957 415.162 220.129 414.976 219.493 414.604C218.857 414.232 218.389 413.728 218.089 413.092C217.789 412.444 217.639 411.724 217.639 410.932C217.639 410.08 217.807 409.33 218.143 408.682C218.479 408.034 218.959 407.524 219.583 407.152C220.219 406.78 220.957 406.594 221.797 406.594C222.661 406.594 223.363 406.762 223.903 407.098C224.455 407.422 224.863 407.878 225.127 408.466C225.391 409.042 225.541 409.696 225.577 410.428C225.493 410.776 225.343 411.058 225.127 411.274C224.827 411.274 224.461 411.28 224.029 411.292C223.597 411.292 223.129 411.298 222.625 411.31C222.133 411.31 221.629 411.322 221.113 411.346C220.609 411.358 220.129 411.382 219.673 411.418V410.23H223.129C223.129 409.426 223.009 408.808 222.769 408.376C222.541 407.932 222.205 407.71 221.761 407.71C221.473 407.71 221.215 407.806 220.987 407.998C220.759 408.178 220.579 408.472 220.447 408.88C220.315 409.276 220.249 409.798 220.249 410.446C220.249 411.058 220.327 411.622 220.483 412.138C220.639 412.654 220.897 413.062 221.257 413.362C221.629 413.662 222.133 413.812 222.769 413.812C223.177 413.812 223.585 413.734 223.993 413.578C224.401 413.422 224.749 413.218 225.037 412.966C225.145 413.026 225.247 413.146 225.343 413.326C225.439 413.506 225.487 413.686 225.487 413.866C225.043 414.31 224.533 414.64 223.957 414.856C223.381 415.06 222.721 415.162 221.977 415.162Z" fill="black"/>
<path d="M62.3083 173.192L51.5563 158.888C51.3803 158.632 51.1883 158.464 50.9803 158.384C50.7723 158.288 50.4363 158.216 49.9723 158.168C49.9243 157.944 49.8843 157.704 49.8523 157.448C49.8363 157.192 49.8283 156.944 49.8283 156.704C50.0043 156.72 50.2443 156.736 50.5483 156.752C50.8683 156.752 51.1883 156.76 51.5083 156.776C51.8283 156.776 52.1003 156.776 52.3243 156.776C52.6923 156.776 53.0843 156.776 53.5003 156.776C53.9163 156.76 54.2523 156.736 54.5083 156.704L62.7643 167.816L62.3083 173.192ZM49.8283 173.072C49.8283 172.768 49.8363 172.496 49.8523 172.256C49.8683 172.016 49.9083 171.8 49.9723 171.608C50.4363 171.576 50.7963 171.464 51.0523 171.272C51.3243 171.064 51.5083 170.712 51.6043 170.216C51.7163 169.72 51.7723 169.024 51.7723 168.128V158.288L53.3083 158.408V168.128C53.3083 169.024 53.3563 169.72 53.4523 170.216C53.5483 170.712 53.7243 171.064 53.9803 171.272C54.2523 171.464 54.6203 171.576 55.0843 171.608C55.1483 171.8 55.1883 172.024 55.2043 172.28C55.2203 172.536 55.2283 172.8 55.2283 173.072C55.0043 173.056 54.7323 173.04 54.4123 173.024C54.0923 173.024 53.7723 173.016 53.4523 173C53.1323 173 52.8443 173 52.5883 173C52.3323 173 52.0203 173 51.6523 173C51.3003 173.016 50.9563 173.024 50.6203 173.024C50.2843 173.04 50.0203 173.056 49.8283 173.072ZM62.3083 173.192L62.4283 169.664V161.6C62.4283 160.704 62.3803 160.016 62.2843 159.536C62.1883 159.056 62.0043 158.72 61.7323 158.528C61.4603 158.32 61.0763 158.2 60.5803 158.168C60.5163 157.896 60.4683 157.64 60.4363 157.4C60.4203 157.144 60.4123 156.912 60.4123 156.704C60.6523 156.72 60.9323 156.736 61.2523 156.752C61.5883 156.752 61.9243 156.76 62.2603 156.776C62.5963 156.776 62.8923 156.776 63.1483 156.776C63.5163 156.776 63.9323 156.768 64.3963 156.752C64.8763 156.736 65.2683 156.72 65.5723 156.704C65.5723 156.944 65.5643 157.192 65.5483 157.448C65.5323 157.688 65.4923 157.928 65.4283 158.168C65.0283 158.2 64.7243 158.312 64.5163 158.504C64.3083 158.696 64.1563 159.032 64.0603 159.512C63.9803 159.992 63.9403 160.688 63.9403 161.6V173C63.7163 173.08 63.4683 173.128 63.1963 173.144C62.9243 173.176 62.6283 173.192 62.3083 173.192ZM75.1383 173.216C74.8663 173.104 74.6743 172.944 74.5623 172.736C74.4503 172.512 74.3943 172.208 74.3943 171.824C74.3943 171.632 74.4103 171.408 74.4423 171.152C74.4743 170.88 74.5303 170.624 74.6103 170.384L74.6823 170.312C74.5703 170.728 74.4103 171.112 74.2023 171.464C73.9943 171.8 73.7463 172.08 73.4583 172.304C73.1383 172.592 72.7463 172.808 72.2823 172.952C71.8343 173.096 71.2983 173.168 70.6743 173.168C69.6023 173.168 68.7703 172.936 68.1783 172.472C67.5863 172.008 67.2903 171.344 67.2903 170.48C67.2903 169.872 67.4263 169.352 67.6983 168.92C67.9863 168.472 68.3703 168.096 68.8503 167.792C69.3303 167.488 69.8663 167.24 70.4583 167.048C71.0503 166.856 71.6503 166.704 72.2583 166.592C72.8823 166.48 73.4663 166.384 74.0103 166.304C74.0103 165.84 73.9943 165.456 73.9623 165.152C73.9463 164.832 73.8983 164.568 73.8183 164.36C73.7543 164.136 73.6423 163.944 73.4823 163.784C73.3063 163.56 73.0983 163.408 72.8583 163.328C72.6343 163.232 72.3943 163.184 72.1383 163.184C71.6903 163.184 71.3303 163.32 71.0583 163.592C70.8023 163.848 70.6103 164.184 70.4823 164.6C70.3543 165.016 70.2743 165.44 70.2423 165.872C69.8583 165.872 69.4983 165.856 69.1623 165.824C68.8263 165.792 68.5303 165.728 68.2743 165.632C68.3063 165.2 68.3143 164.736 68.2983 164.24C68.2823 163.744 68.2263 163.248 68.1303 162.752C68.8023 162.448 69.5703 162.208 70.4343 162.032C71.3143 161.856 72.1383 161.768 72.9063 161.768C73.8183 161.768 74.5543 161.88 75.1143 162.104C75.6743 162.312 76.0983 162.56 76.3863 162.848C76.7223 163.2 76.9783 163.68 77.1543 164.288C77.3463 164.88 77.4423 165.736 77.4423 166.856V168.944C77.4423 169.456 77.4743 169.856 77.5383 170.144C77.6023 170.416 77.7303 170.608 77.9223 170.72C78.1303 170.832 78.4423 170.896 78.8583 170.912C78.8903 171.168 78.8903 171.432 78.8583 171.704C78.8263 171.96 78.7543 172.2 78.6423 172.424C78.0663 172.44 77.4663 172.52 76.8423 172.664C76.2343 172.792 75.6663 172.976 75.1383 173.216ZM71.8743 171.176C72.1943 171.176 72.5223 171.072 72.8583 170.864C73.1943 170.64 73.4663 170.312 73.6743 169.88C73.8983 169.448 74.0103 168.896 74.0103 168.224V167.576C73.5463 167.656 73.1063 167.752 72.6903 167.864C72.2903 167.976 71.9383 168.12 71.6343 168.296C71.3463 168.456 71.1223 168.664 70.9623 168.92C70.8023 169.16 70.7223 169.464 70.7223 169.832C70.7223 170.312 70.8343 170.656 71.0583 170.864C71.2983 171.072 71.5703 171.176 71.8743 171.176ZM84.5613 173.216C84.3853 172.768 84.1613 172.248 83.8893 171.656C83.6333 171.064 83.3533 170.44 83.0493 169.784C82.7613 169.112 82.4653 168.464 82.1613 167.84C81.8733 167.2 81.6013 166.624 81.3453 166.112C81.1053 165.584 80.9053 165.168 80.7453 164.864C80.5693 164.48 80.4093 164.192 80.2653 164C80.1213 163.808 79.9693 163.672 79.8093 163.592C79.6653 163.496 79.4893 163.432 79.2813 163.4C79.2173 163.192 79.1613 162.968 79.1133 162.728C79.0813 162.472 79.0653 162.208 79.0653 161.936C79.4173 161.952 79.8733 161.968 80.4333 161.984C81.0093 162 81.6093 162.008 82.2333 162.008C82.6493 162.008 83.0813 162.008 83.5293 162.008C83.9773 161.992 84.3933 161.984 84.7773 161.984C85.1773 161.968 85.5053 161.952 85.7613 161.936C85.7613 162.176 85.7373 162.432 85.6893 162.704C85.6413 162.976 85.5853 163.2 85.5213 163.376C84.8653 163.44 84.4813 163.576 84.3693 163.784C84.2573 163.976 84.3453 164.376 84.6333 164.984C84.7933 165.304 84.9613 165.68 85.1373 166.112C85.3133 166.528 85.4973 166.984 85.6893 167.48C85.8973 167.976 86.0973 168.48 86.2893 168.992C86.4813 169.504 86.6573 170.008 86.8173 170.504H86.1933C86.5453 169.512 86.8813 168.632 87.2013 167.864C87.5213 167.096 87.8413 166.336 88.1613 165.584C88.4813 164.784 88.5693 164.232 88.4253 163.928C88.2813 163.624 87.9373 163.448 87.3933 163.4C87.3133 163.208 87.2493 162.976 87.2013 162.704C87.1533 162.432 87.1293 162.176 87.1293 161.936C87.4493 161.952 87.8093 161.968 88.2093 161.984C88.6093 162 89.0253 162.008 89.4573 162.008C89.8893 162.008 90.3133 162 90.7293 161.984C91.1453 161.968 91.5133 161.952 91.8333 161.936C91.8333 162.192 91.8093 162.456 91.7613 162.728C91.7293 163 91.6653 163.224 91.5693 163.4C91.3133 163.464 91.0893 163.568 90.8973 163.712C90.7053 163.84 90.5213 164.04 90.3453 164.312C90.1853 164.584 90.0093 164.968 89.8173 165.464L86.5053 172.928C86.2813 173.04 85.9853 173.12 85.6173 173.168C85.2493 173.232 84.8973 173.248 84.5613 173.216ZM92.9527 173.072C92.9527 172.784 92.9607 172.52 92.9767 172.28C93.0087 172.024 93.0567 171.8 93.1207 171.608C93.7607 171.592 94.1847 171.44 94.3927 171.152C94.6167 170.864 94.7287 170.32 94.7287 169.52V165.656C94.7287 165.272 94.6887 164.96 94.6087 164.72C94.5287 164.48 94.3607 164.304 94.1047 164.192C93.8487 164.064 93.4647 163.984 92.9527 163.952C92.9527 163.712 92.9687 163.48 93.0007 163.256C93.0327 163.016 93.1047 162.792 93.2167 162.584C93.7447 162.584 94.2887 162.544 94.8487 162.464C95.4247 162.384 95.9447 162.288 96.4087 162.176C96.8887 162.048 97.2407 161.92 97.4647 161.792C97.6727 161.872 97.8407 162.016 97.9687 162.224C98.0967 162.416 98.1607 162.696 98.1607 163.064V169.52C98.1607 170.32 98.2647 170.864 98.4727 171.152C98.6807 171.44 99.0727 171.592 99.6487 171.608C99.7127 171.8 99.7527 172.032 99.7687 172.304C99.8007 172.56 99.8167 172.816 99.8167 173.072C99.5767 173.056 99.2727 173.04 98.9047 173.024C98.5367 173.024 98.1367 173.016 97.7047 173C97.2727 173 96.8407 173 96.4087 173C95.9767 173 95.5367 173 95.0887 173C94.6407 173.016 94.2327 173.024 93.8647 173.024C93.4967 173.04 93.1927 173.056 92.9527 173.072ZM96.1447 159.896C95.5687 159.896 95.0967 159.744 94.7287 159.44C94.3767 159.12 94.2007 158.712 94.2007 158.216C94.2007 157.64 94.4007 157.192 94.8007 156.872C95.2007 156.552 95.6807 156.392 96.2407 156.392C96.8967 156.392 97.4007 156.552 97.7527 156.872C98.1047 157.192 98.2807 157.632 98.2807 158.192C98.2807 158.672 98.0887 159.08 97.7047 159.416C97.3207 159.736 96.8007 159.896 96.1447 159.896ZM105.902 178.976C104.75 178.976 103.838 178.848 103.166 178.592C102.51 178.336 102.038 177.984 101.75 177.536C101.462 177.104 101.318 176.592 101.318 176C101.318 175.392 101.494 174.864 101.846 174.416C102.198 173.968 102.718 173.64 103.406 173.432L104.99 173.696C104.638 174 104.398 174.272 104.27 174.512C104.158 174.752 104.102 175.032 104.102 175.352C104.102 176.04 104.294 176.552 104.678 176.888C105.078 177.224 105.742 177.392 106.67 177.392C107.678 177.392 108.462 177.192 109.022 176.792C109.598 176.392 109.886 175.912 109.886 175.352C109.886 175.064 109.806 174.84 109.646 174.68C109.502 174.52 109.214 174.4 108.782 174.32C108.366 174.24 107.75 174.2 106.934 174.2C106.23 174.2 105.582 174.168 104.99 174.104C104.398 174.04 103.878 173.92 103.43 173.744C102.982 173.568 102.63 173.312 102.374 172.976C102.134 172.624 102.014 172.168 102.014 171.608C102.014 170.952 102.19 170.384 102.542 169.904C102.894 169.424 103.294 169.008 103.742 168.656L105.374 169.232C105.134 169.392 104.942 169.56 104.798 169.736C104.654 169.896 104.582 170.064 104.582 170.24C104.582 170.528 104.718 170.728 104.99 170.84C105.262 170.952 105.678 171.024 106.238 171.056C106.798 171.072 107.502 171.088 108.35 171.104C109.294 171.104 110.102 171.184 110.774 171.344C111.446 171.504 111.966 171.792 112.334 172.208C112.702 172.608 112.886 173.2 112.886 173.984C112.886 174.656 112.718 175.288 112.382 175.88C112.046 176.488 111.574 177.024 110.966 177.488C110.358 177.952 109.622 178.312 108.758 178.568C107.91 178.84 106.958 178.976 105.902 178.976ZM106.718 169.64C105.694 169.64 104.798 169.496 104.03 169.208C103.278 168.904 102.694 168.464 102.278 167.888C101.862 167.312 101.654 166.6 101.654 165.752C101.654 164.936 101.838 164.24 102.206 163.664C102.59 163.072 103.15 162.616 103.886 162.296C104.622 161.96 105.502 161.792 106.526 161.792C107.486 161.792 108.302 161.92 108.974 162.176C109.646 162.432 110.198 162.768 110.63 163.184C111.062 163.584 111.382 164.024 111.59 164.504C111.798 164.968 111.902 165.416 111.902 165.848C111.902 166.552 111.71 167.192 111.326 167.768C110.942 168.344 110.366 168.8 109.598 169.136C108.83 169.472 107.87 169.64 106.718 169.64ZM107.03 168.224C107.51 168.224 107.878 168.032 108.134 167.648C108.406 167.248 108.542 166.664 108.542 165.896C108.542 165.048 108.374 164.368 108.038 163.856C107.702 163.328 107.23 163.064 106.622 163.064C106.094 163.064 105.702 163.288 105.446 163.736C105.19 164.168 105.062 164.728 105.062 165.416C105.062 166.328 105.23 167.024 105.566 167.504C105.918 167.984 106.406 168.224 107.03 168.224ZM113.126 163.856C112.854 163.76 112.558 163.68 112.238 163.616C111.934 163.552 111.63 163.496 111.326 163.448C111.038 163.4 110.766 163.376 110.51 163.376L108.206 162.008H112.886C112.982 162.248 113.046 162.528 113.078 162.848C113.11 163.168 113.126 163.504 113.126 163.856ZM122.506 173.216C122.234 173.104 122.042 172.944 121.93 172.736C121.818 172.512 121.762 172.208 121.762 171.824C121.762 171.632 121.778 171.408 121.81 171.152C121.842 170.88 121.898 170.624 121.978 170.384L122.05 170.312C121.938 170.728 121.778 171.112 121.57 171.464C121.362 171.8 121.114 172.08 120.826 172.304C120.506 172.592 120.114 172.808 119.65 172.952C119.202 173.096 118.666 173.168 118.042 173.168C116.97 173.168 116.138 172.936 115.546 172.472C114.954 172.008 114.658 171.344 114.658 170.48C114.658 169.872 114.794 169.352 115.066 168.92C115.354 168.472 115.738 168.096 116.218 167.792C116.698 167.488 117.234 167.24 117.826 167.048C118.418 166.856 119.018 166.704 119.626 166.592C120.25 166.48 120.834 166.384 121.378 166.304C121.378 165.84 121.362 165.456 121.33 165.152C121.314 164.832 121.266 164.568 121.186 164.36C121.122 164.136 121.01 163.944 120.85 163.784C120.674 163.56 120.466 163.408 120.226 163.328C120.002 163.232 119.762 163.184 119.506 163.184C119.058 163.184 118.698 163.32 118.426 163.592C118.17 163.848 117.978 164.184 117.85 164.6C117.722 165.016 117.642 165.44 117.61 165.872C117.226 165.872 116.866 165.856 116.53 165.824C116.194 165.792 115.898 165.728 115.642 165.632C115.674 165.2 115.682 164.736 115.666 164.24C115.65 163.744 115.594 163.248 115.498 162.752C116.17 162.448 116.938 162.208 117.802 162.032C118.682 161.856 119.506 161.768 120.274 161.768C121.186 161.768 121.922 161.88 122.482 162.104C123.042 162.312 123.466 162.56 123.754 162.848C124.09 163.2 124.346 163.68 124.522 164.288C124.714 164.88 124.81 165.736 124.81 166.856V168.944C124.81 169.456 124.842 169.856 124.906 170.144C124.97 170.416 125.098 170.608 125.29 170.72C125.498 170.832 125.81 170.896 126.226 170.912C126.258 171.168 126.258 171.432 126.226 171.704C126.194 171.96 126.122 172.2 126.01 172.424C125.434 172.44 124.834 172.52 124.21 172.664C123.602 172.792 123.034 172.976 122.506 173.216ZM119.242 171.176C119.562 171.176 119.89 171.072 120.226 170.864C120.562 170.64 120.834 170.312 121.042 169.88C121.266 169.448 121.378 168.896 121.378 168.224V167.576C120.914 167.656 120.474 167.752 120.058 167.864C119.658 167.976 119.306 168.12 119.002 168.296C118.714 168.456 118.49 168.664 118.33 168.92C118.17 169.16 118.09 169.464 118.09 169.832C118.09 170.312 118.202 170.656 118.426 170.864C118.666 171.072 118.938 171.176 119.242 171.176ZM131.99 173.216C130.886 173.216 130.054 172.928 129.494 172.352C128.934 171.776 128.654 170.808 128.654 169.448V164.048C128.398 163.952 128.134 163.88 127.862 163.832C127.59 163.784 127.262 163.752 126.878 163.736C126.878 163.448 126.894 163.192 126.926 162.968C126.974 162.744 127.054 162.504 127.166 162.248H128.654V159.296C129.182 159.216 129.702 159.072 130.214 158.864C130.726 158.64 131.15 158.392 131.486 158.12C131.71 158.216 131.862 158.352 131.942 158.528C132.022 158.704 132.062 159.056 132.062 159.584V162.248H135.014C135.014 162.536 134.998 162.808 134.966 163.064C134.934 163.304 134.878 163.536 134.798 163.76C134.254 163.76 133.758 163.792 133.31 163.856C132.862 163.92 132.446 164.008 132.062 164.12V169.04C132.062 169.68 132.102 170.184 132.182 170.552C132.278 170.904 132.422 171.152 132.614 171.296C132.806 171.44 133.038 171.512 133.31 171.512C133.582 171.512 133.838 171.48 134.078 171.416C134.334 171.336 134.574 171.232 134.798 171.104C135.022 171.392 135.142 171.784 135.158 172.28C134.838 172.552 134.382 172.776 133.79 172.952C133.214 173.128 132.614 173.216 131.99 173.216ZM136.429 173.072C136.429 172.784 136.437 172.52 136.453 172.28C136.485 172.024 136.533 171.8 136.597 171.608C137.237 171.592 137.661 171.44 137.869 171.152C138.093 170.864 138.205 170.32 138.205 169.52V165.656C138.205 165.272 138.165 164.96 138.085 164.72C138.005 164.48 137.837 164.304 137.581 164.192C137.325 164.064 136.941 163.984 136.429 163.952C136.429 163.712 136.445 163.48 136.477 163.256C136.509 163.016 136.581 162.792 136.693 162.584C137.221 162.584 137.765 162.544 138.325 162.464C138.901 162.384 139.421 162.288 139.885 162.176C140.365 162.048 140.717 161.92 140.941 161.792C141.149 161.872 141.317 162.016 141.445 162.224C141.573 162.416 141.637 162.696 141.637 163.064V169.52C141.637 170.32 141.741 170.864 141.949 171.152C142.157 171.44 142.549 171.592 143.125 171.608C143.189 171.8 143.229 172.032 143.245 172.304C143.277 172.56 143.293 172.816 143.293 173.072C143.053 173.056 142.749 173.04 142.381 173.024C142.013 173.024 141.613 173.016 141.181 173C140.749 173 140.317 173 139.885 173C139.453 173 139.013 173 138.565 173C138.117 173.016 137.709 173.024 137.341 173.024C136.973 173.04 136.669 173.056 136.429 173.072ZM139.621 159.896C139.045 159.896 138.573 159.744 138.205 159.44C137.853 159.12 137.677 158.712 137.677 158.216C137.677 157.64 137.877 157.192 138.277 156.872C138.677 156.552 139.157 156.392 139.717 156.392C140.373 156.392 140.877 156.552 141.229 156.872C141.581 157.192 141.757 157.632 141.757 158.192C141.757 158.672 141.565 159.08 141.181 159.416C140.797 159.736 140.277 159.896 139.621 159.896ZM146.666 167.984V165.896C146.666 165.432 146.626 165.072 146.546 164.816C146.482 164.544 146.322 164.344 146.066 164.216C145.826 164.072 145.442 163.984 144.914 163.952C144.914 163.712 144.93 163.48 144.962 163.256C145.01 163.016 145.09 162.792 145.202 162.584C146.05 162.584 146.866 162.504 147.65 162.344C148.45 162.168 149.034 161.984 149.402 161.792C149.626 161.872 149.794 162.016 149.906 162.224C150.034 162.416 150.098 162.704 150.098 163.088L146.666 167.984ZM157.706 169.52C157.706 170.32 157.794 170.872 157.97 171.176C158.162 171.464 158.474 171.608 158.906 171.608C158.986 171.8 159.034 172.016 159.05 172.256C159.082 172.48 159.098 172.752 159.098 173.072C158.746 173.056 158.29 173.04 157.73 173.024C157.186 173.008 156.65 173 156.122 173C155.77 173 155.37 173 154.922 173C154.49 173.016 154.074 173.024 153.674 173.024C153.274 173.04 152.954 173.056 152.714 173.072C152.714 172.784 152.722 172.52 152.738 172.28C152.754 172.04 152.802 171.816 152.882 171.608C153.33 171.608 153.674 171.448 153.914 171.128C154.154 170.808 154.274 170.224 154.274 169.376V166.76C154.274 165.752 154.114 165.056 153.794 164.672C153.474 164.272 153.018 164.072 152.426 164.072C152.042 164.072 151.666 164.224 151.298 164.528C150.946 164.816 150.658 165.248 150.434 165.824C150.21 166.384 150.098 167.088 150.098 167.936V169.52C150.098 170.336 150.202 170.888 150.41 171.176C150.634 171.464 150.986 171.608 151.466 171.608C151.562 171.832 151.618 172.056 151.634 172.28C151.65 172.504 151.658 172.768 151.658 173.072C151.434 173.056 151.13 173.04 150.746 173.024C150.362 173.024 149.962 173.016 149.546 173C149.146 173 148.762 173 148.394 173C148.026 173 147.618 173 147.17 173C146.722 173.016 146.29 173.024 145.874 173.024C145.458 173.04 145.13 173.056 144.89 173.072C144.89 172.768 144.906 172.488 144.938 172.232C144.97 171.976 145.018 171.768 145.082 171.608C145.706 171.608 146.122 171.464 146.33 171.176C146.554 170.872 146.666 170.32 146.666 169.52V165.896L150.098 163.088C150.098 163.28 150.074 163.504 150.026 163.76C149.994 164 149.938 164.256 149.858 164.528C149.954 164.336 150.05 164.144 150.146 163.952C150.242 163.76 150.37 163.576 150.53 163.4C150.85 163.032 151.298 162.696 151.874 162.392C152.45 162.072 153.114 161.912 153.866 161.912C154.538 161.912 155.162 162.04 155.738 162.296C156.33 162.552 156.802 162.968 157.154 163.544C157.522 164.12 157.706 164.88 157.706 165.824V169.52ZM165.199 178.976C164.047 178.976 163.135 178.848 162.463 178.592C161.807 178.336 161.335 177.984 161.047 177.536C160.759 177.104 160.615 176.592 160.615 176C160.615 175.392 160.791 174.864 161.143 174.416C161.495 173.968 162.015 173.64 162.703 173.432L164.287 173.696C163.935 174 163.695 174.272 163.567 174.512C163.455 174.752 163.399 175.032 163.399 175.352C163.399 176.04 163.591 176.552 163.975 176.888C164.375 177.224 165.039 177.392 165.967 177.392C166.975 177.392 167.759 177.192 168.319 176.792C168.895 176.392 169.183 175.912 169.183 175.352C169.183 175.064 169.103 174.84 168.943 174.68C168.799 174.52 168.511 174.4 168.079 174.32C167.663 174.24 167.047 174.2 166.231 174.2C165.527 174.2 164.879 174.168 164.287 174.104C163.695 174.04 163.175 173.92 162.727 173.744C162.279 173.568 161.927 173.312 161.671 172.976C161.431 172.624 161.311 172.168 161.311 171.608C161.311 170.952 161.487 170.384 161.839 169.904C162.191 169.424 162.591 169.008 163.039 168.656L164.671 169.232C164.431 169.392 164.239 169.56 164.095 169.736C163.951 169.896 163.879 170.064 163.879 170.24C163.879 170.528 164.015 170.728 164.287 170.84C164.559 170.952 164.975 171.024 165.535 171.056C166.095 171.072 166.799 171.088 167.647 171.104C168.591 171.104 169.399 171.184 170.071 171.344C170.743 171.504 171.263 171.792 171.631 172.208C171.999 172.608 172.183 173.2 172.183 173.984C172.183 174.656 172.015 175.288 171.679 175.88C171.343 176.488 170.871 177.024 170.263 177.488C169.655 177.952 168.919 178.312 168.055 178.568C167.207 178.84 166.255 178.976 165.199 178.976ZM166.015 169.64C164.991 169.64 164.095 169.496 163.327 169.208C162.575 168.904 161.991 168.464 161.575 167.888C161.159 167.312 160.951 166.6 160.951 165.752C160.951 164.936 161.135 164.24 161.503 163.664C161.887 163.072 162.447 162.616 163.183 162.296C163.919 161.96 164.799 161.792 165.823 161.792C166.783 161.792 167.599 161.92 168.271 162.176C168.943 162.432 169.495 162.768 169.927 163.184C170.359 163.584 170.679 164.024 170.887 164.504C171.095 164.968 171.199 165.416 171.199 165.848C171.199 166.552 171.007 167.192 170.623 167.768C170.239 168.344 169.663 168.8 168.895 169.136C168.127 169.472 167.167 169.64 166.015 169.64ZM166.327 168.224C166.807 168.224 167.175 168.032 167.431 167.648C167.703 167.248 167.839 166.664 167.839 165.896C167.839 165.048 167.671 164.368 167.335 163.856C166.999 163.328 166.527 163.064 165.919 163.064C165.391 163.064 164.999 163.288 164.743 163.736C164.487 164.168 164.359 164.728 164.359 165.416C164.359 166.328 164.527 167.024 164.863 167.504C165.215 167.984 165.703 168.224 166.327 168.224ZM172.423 163.856C172.151 163.76 171.855 163.68 171.535 163.616C171.231 163.552 170.927 163.496 170.623 163.448C170.335 163.4 170.063 163.376 169.807 163.376L167.503 162.008H172.183C172.279 162.248 172.343 162.528 172.375 162.848C172.407 163.168 172.423 163.504 172.423 163.856ZM183.271 173.216C182.167 173.216 181.335 172.928 180.775 172.352C180.215 171.776 179.935 170.808 179.935 169.448V164.048C179.679 163.952 179.415 163.88 179.143 163.832C178.871 163.784 178.543 163.752 178.159 163.736C178.159 163.448 178.175 163.192 178.207 162.968C178.255 162.744 178.335 162.504 178.447 162.248H179.935V159.296C180.463 159.216 180.983 159.072 181.495 158.864C182.007 158.64 182.431 158.392 182.767 158.12C182.991 158.216 183.143 158.352 183.223 158.528C183.303 158.704 183.343 159.056 183.343 159.584V162.248H186.295C186.295 162.536 186.279 162.808 186.247 163.064C186.215 163.304 186.159 163.536 186.079 163.76C185.535 163.76 185.039 163.792 184.591 163.856C184.143 163.92 183.727 164.008 183.343 164.12V169.04C183.343 169.68 183.383 170.184 183.463 170.552C183.559 170.904 183.703 171.152 183.895 171.296C184.087 171.44 184.319 171.512 184.591 171.512C184.863 171.512 185.119 171.48 185.359 171.416C185.615 171.336 185.855 171.232 186.079 171.104C186.303 171.392 186.423 171.784 186.439 172.28C186.119 172.552 185.663 172.776 185.071 172.952C184.495 173.128 183.895 173.216 183.271 173.216ZM200.359 169.52C200.359 170.32 200.447 170.872 200.623 171.176C200.815 171.464 201.127 171.608 201.559 171.608C201.639 171.8 201.695 172.016 201.727 172.256C201.759 172.48 201.775 172.752 201.775 173.072C201.423 173.056 200.967 173.04 200.407 173.024C199.847 173.008 199.303 173 198.775 173C198.423 173 198.023 173 197.575 173C197.143 173.016 196.727 173.024 196.327 173.024C195.927 173.04 195.607 173.056 195.367 173.072C195.367 172.784 195.375 172.52 195.391 172.28C195.407 172.04 195.463 171.816 195.559 171.608C196.007 171.608 196.351 171.448 196.591 171.128C196.831 170.808 196.951 170.224 196.951 169.376V166.76C196.951 165.752 196.783 165.056 196.447 164.672C196.127 164.272 195.679 164.072 195.103 164.072C194.703 164.072 194.319 164.224 193.951 164.528C193.599 164.816 193.311 165.248 193.087 165.824C192.863 166.384 192.751 167.088 192.751 167.936V169.52C192.751 170.336 192.855 170.888 193.063 171.176C193.287 171.464 193.639 171.608 194.119 171.608C194.215 171.832 194.271 172.056 194.287 172.28C194.319 172.504 194.335 172.768 194.335 173.072C194.095 173.056 193.783 173.04 193.399 173.024C193.031 173.024 192.639 173.016 192.223 173C191.807 173 191.415 173 191.047 173C190.695 173 190.287 173 189.823 173C189.375 173.016 188.943 173.024 188.527 173.024C188.127 173.04 187.807 173.056 187.567 173.072C187.567 172.768 187.575 172.488 187.591 172.232C187.623 171.976 187.671 171.768 187.735 171.608C188.359 171.608 188.783 171.464 189.007 171.176C189.231 170.872 189.343 170.32 189.343 169.52V165.896L192.751 163.088C192.751 163.28 192.727 163.504 192.679 163.76C192.647 164 192.591 164.256 192.511 164.528C192.607 164.336 192.703 164.144 192.799 163.952C192.895 163.76 193.023 163.576 193.183 163.4C193.503 163.032 193.951 162.696 194.527 162.392C195.103 162.072 195.775 161.912 196.543 161.912C197.199 161.912 197.815 162.04 198.391 162.296C198.983 162.552 199.455 162.968 199.807 163.544C200.175 164.12 200.359 164.88 200.359 165.824V169.52ZM189.343 159.656C189.343 159.272 189.295 158.96 189.199 158.72C189.119 158.48 188.951 158.304 188.695 158.192C188.439 158.064 188.055 157.984 187.543 157.952C187.543 157.712 187.559 157.48 187.591 157.256C187.639 157.016 187.711 156.792 187.807 156.584C188.351 156.584 188.903 156.544 189.463 156.464C190.039 156.384 190.559 156.288 191.023 156.176C191.487 156.048 191.831 155.92 192.055 155.792C192.263 155.872 192.431 156.016 192.559 156.224C192.687 156.416 192.751 156.696 192.751 157.064V160.112H189.343V159.656ZM189.343 159.296H192.751V163.088L189.343 166.52V159.296ZM208.8 173.216C207.44 173.216 206.336 172.968 205.488 172.472C204.64 171.976 204.016 171.304 203.616 170.456C203.216 169.592 203.016 168.632 203.016 167.576C203.016 166.44 203.24 165.44 203.688 164.576C204.136 163.712 204.776 163.032 205.608 162.536C206.456 162.04 207.44 161.792 208.56 161.792C209.712 161.792 210.648 162.016 211.368 162.464C212.104 162.896 212.648 163.504 213 164.288C213.352 165.056 213.552 165.928 213.6 166.904C213.488 167.368 213.288 167.744 213 168.032C212.6 168.032 212.112 168.04 211.536 168.056C210.96 168.056 210.336 168.064 209.664 168.08C209.008 168.08 208.336 168.096 207.648 168.128C206.976 168.144 206.336 168.176 205.728 168.224V166.64H210.336C210.336 165.568 210.176 164.744 209.856 164.168C209.552 163.576 209.104 163.28 208.512 163.28C208.128 163.28 207.784 163.408 207.48 163.664C207.176 163.904 206.936 164.296 206.76 164.84C206.584 165.368 206.496 166.064 206.496 166.928C206.496 167.744 206.6 168.496 206.808 169.184C207.016 169.872 207.36 170.416 207.84 170.816C208.336 171.216 209.008 171.416 209.856 171.416C210.4 171.416 210.944 171.312 211.488 171.104C212.032 170.896 212.496 170.624 212.88 170.288C213.024 170.368 213.16 170.528 213.288 170.768C213.416 171.008 213.48 171.248 213.48 171.488C212.888 172.08 212.208 172.52 211.44 172.808C210.672 173.08 209.792 173.216 208.8 173.216ZM227.926 171.536C228.63 171.536 229.206 171.432 229.654 171.224C230.102 171.016 230.47 170.68 230.758 170.216C231.062 169.752 231.326 169.144 231.55 168.392C231.95 168.456 232.302 168.552 232.606 168.68C232.91 168.792 233.158 168.928 233.35 169.088C233.174 169.632 233.022 170.264 232.894 170.984C232.766 171.688 232.67 172.376 232.606 173.048C232.206 173.032 231.694 173.024 231.07 173.024C230.462 173.024 229.806 173.016 229.102 173C228.398 173 227.734 173 227.11 173C226.678 173 226.134 173 225.478 173C224.822 173.016 224.15 173.024 223.462 173.024C222.774 173.04 222.134 173.048 221.542 173.048C220.966 173.064 220.534 173.072 220.246 173.072C220.246 172.784 220.254 172.512 220.27 172.256C220.302 172 220.35 171.784 220.414 171.608C220.846 171.576 221.174 171.496 221.398 171.368C221.638 171.224 221.806 170.976 221.902 170.624C221.998 170.272 222.046 169.752 222.046 169.064V160.544C222.046 159.92 221.998 159.448 221.902 159.128C221.822 158.792 221.662 158.56 221.422 158.432C221.182 158.304 220.846 158.216 220.414 158.168C220.35 157.992 220.31 157.76 220.294 157.472C220.278 157.184 220.27 156.928 220.27 156.704C220.686 156.72 221.086 156.736 221.47 156.752C221.854 156.752 222.238 156.76 222.622 156.776C223.022 156.776 223.43 156.776 223.846 156.776C224.214 156.776 224.606 156.776 225.022 156.776C225.454 156.76 225.878 156.752 226.294 156.752C226.71 156.736 227.078 156.72 227.398 156.704C227.398 156.976 227.39 157.24 227.374 157.496C227.358 157.752 227.31 157.976 227.23 158.168C226.814 158.2 226.486 158.288 226.246 158.432C226.006 158.56 225.838 158.792 225.742 159.128C225.662 159.464 225.622 159.952 225.622 160.592V169.016C225.622 169.672 225.678 170.184 225.79 170.552C225.902 170.92 226.102 171.176 226.39 171.32C226.694 171.464 227.11 171.536 227.638 171.536H227.926ZM240.228 173.216C239.188 173.216 238.228 173.088 237.348 172.832C236.484 172.576 235.636 172.224 234.804 171.776C234.932 171.136 235.012 170.488 235.044 169.832C235.076 169.176 235.092 168.576 235.092 168.032C235.412 167.936 235.764 167.872 236.148 167.84C236.532 167.808 236.9 167.792 237.252 167.792C237.316 168.704 237.444 169.448 237.636 170.024C237.844 170.584 238.164 170.992 238.596 171.248C239.028 171.504 239.604 171.632 240.324 171.632C241.268 171.632 241.948 171.432 242.364 171.032C242.78 170.616 242.988 170.144 242.988 169.616C242.988 169.056 242.796 168.592 242.412 168.224C242.028 167.84 241.54 167.504 240.948 167.216C240.356 166.928 239.724 166.632 239.052 166.328C238.396 166.024 237.764 165.656 237.156 165.224C236.564 164.792 236.076 164.256 235.692 163.616C235.324 162.976 235.14 162.176 235.14 161.216C235.14 160.16 235.372 159.288 235.836 158.6C236.316 157.912 236.956 157.4 237.756 157.064C238.572 156.728 239.484 156.56 240.492 156.56C241.084 156.56 241.668 156.608 242.244 156.704C242.82 156.8 243.348 156.928 243.828 157.088C244.308 157.232 244.7 157.408 245.004 157.616C245.004 158.192 245.012 158.808 245.028 159.464C245.044 160.104 245.084 160.624 245.148 161.024C244.892 161.168 244.556 161.272 244.14 161.336C243.74 161.384 243.38 161.408 243.06 161.408C242.916 160.512 242.716 159.824 242.46 159.344C242.22 158.864 241.916 158.536 241.548 158.36C241.196 158.168 240.78 158.072 240.3 158.072C239.644 158.072 239.108 158.232 238.692 158.552C238.276 158.856 238.068 159.312 238.068 159.92C238.068 160.512 238.26 161.008 238.644 161.408C239.044 161.808 239.548 162.16 240.156 162.464C240.78 162.768 241.436 163.08 242.124 163.4C242.828 163.72 243.484 164.096 244.092 164.528C244.716 164.944 245.228 165.464 245.628 166.088C246.028 166.712 246.228 167.488 246.228 168.416C246.228 169.328 246.004 170.152 245.556 170.888C245.108 171.608 244.444 172.176 243.564 172.592C242.684 173.008 241.572 173.216 240.228 173.216ZM252.871 173.072C252.871 172.736 252.879 172.456 252.895 172.232C252.927 171.992 252.967 171.784 253.015 171.608C253.447 171.576 253.783 171.496 254.023 171.368C254.263 171.24 254.423 171.008 254.503 170.672C254.599 170.32 254.647 169.832 254.647 169.208V160.544C254.647 159.92 254.607 159.448 254.527 159.128C254.447 158.792 254.287 158.56 254.047 158.432C253.823 158.304 253.495 158.216 253.063 158.168C252.999 157.992 252.951 157.784 252.919 157.544C252.887 157.288 252.871 157.008 252.871 156.704C253.575 156.72 254.231 156.736 254.839 156.752C255.463 156.768 256.015 156.776 256.495 156.776C256.863 156.776 257.311 156.776 257.839 156.776C258.367 156.76 258.871 156.752 259.351 156.752C259.831 156.736 260.183 156.728 260.407 156.728C261.927 156.728 263.119 156.944 263.983 157.376C264.847 157.808 265.455 158.392 265.807 159.128C266.175 159.848 266.359 160.664 266.359 161.576C266.359 162.648 266.135 163.624 265.687 164.504C265.255 165.384 264.615 166.088 263.767 166.616C262.919 167.144 261.863 167.408 260.599 167.408C259.927 167.408 259.375 167.32 258.943 167.144C258.895 166.888 258.879 166.648 258.895 166.424C258.927 166.184 258.983 165.968 259.063 165.776C259.207 165.808 259.351 165.832 259.495 165.848C259.655 165.864 259.807 165.872 259.951 165.872C260.415 165.872 260.847 165.768 261.247 165.56C261.663 165.336 261.999 164.968 262.255 164.456C262.511 163.928 262.639 163.2 262.639 162.272C262.639 161.072 262.375 160.096 261.847 159.344C261.319 158.592 260.479 158.216 259.327 158.216C259.135 158.216 258.927 158.232 258.703 158.264C258.495 158.296 258.247 158.36 257.959 158.456L258.247 158.072V168.848C258.247 169.536 258.319 170.072 258.463 170.456C258.623 170.84 258.871 171.12 259.207 171.296C259.559 171.456 260.031 171.56 260.623 171.608C260.703 171.8 260.751 172.024 260.767 172.28C260.783 172.536 260.791 172.8 260.791 173.072C260.519 173.056 260.167 173.04 259.735 173.024C259.319 173.024 258.863 173.016 258.367 173C257.887 173 257.407 173 256.927 173C256.479 173 255.991 173 255.463 173C254.951 173.016 254.463 173.024 253.999 173.024C253.551 173.04 253.175 173.056 252.871 173.072ZM273.515 173.216C272.251 173.216 271.171 172.992 270.275 172.544C269.379 172.08 268.699 171.432 268.235 170.6C267.787 169.752 267.563 168.76 267.563 167.624C267.563 166.392 267.827 165.344 268.355 164.48C268.883 163.6 269.603 162.936 270.515 162.488C271.443 162.024 272.475 161.792 273.611 161.792C274.923 161.792 276.019 162.032 276.899 162.512C277.795 162.992 278.467 163.656 278.915 164.504C279.379 165.336 279.611 166.304 279.611 167.408C279.611 168.576 279.363 169.6 278.867 170.48C278.371 171.344 277.667 172.016 276.755 172.496C275.843 172.976 274.763 173.216 273.515 173.216ZM273.827 171.704C274.579 171.704 275.139 171.352 275.507 170.648C275.891 169.928 276.083 169.032 276.083 167.96C276.083 166.936 275.955 166.072 275.699 165.368C275.443 164.664 275.107 164.136 274.691 163.784C274.275 163.432 273.819 163.256 273.323 163.256C272.571 163.256 272.011 163.608 271.643 164.312C271.275 165 271.091 165.864 271.091 166.904C271.091 167.832 271.195 168.664 271.403 169.4C271.627 170.12 271.947 170.688 272.363 171.104C272.779 171.504 273.267 171.704 273.827 171.704ZM286.364 168.848C286.364 169.536 286.436 170.072 286.58 170.456C286.74 170.84 286.988 171.12 287.324 171.296C287.676 171.456 288.148 171.56 288.74 171.608C288.82 171.8 288.868 172.024 288.884 172.28C288.9 172.536 288.908 172.8 288.908 173.072C288.636 173.056 288.292 173.04 287.876 173.024C287.476 173.024 287.044 173.016 286.58 173C286.116 173 285.66 173 285.212 173C284.492 173 283.748 173 282.98 173C282.212 173.016 281.604 173.04 281.156 173.072C281.156 172.736 281.164 172.456 281.18 172.232C281.212 171.992 281.252 171.784 281.3 171.608C281.732 171.576 282.068 171.496 282.308 171.368C282.548 171.24 282.708 171.008 282.788 170.672C282.884 170.32 282.932 169.832 282.932 169.208V167.552H286.364V168.848ZM286.364 165.92V167.984H282.932V165.368L286.364 163.088C286.364 163.488 286.316 163.896 286.22 164.312C286.14 164.712 286.036 165.192 285.908 165.752L286.364 165.92ZM285.836 165.848C285.964 165.48 286.092 165.112 286.22 164.744C286.348 164.376 286.468 164.096 286.58 163.904C286.932 163.344 287.364 162.88 287.876 162.512C288.388 162.144 288.964 161.96 289.604 161.96C290.228 161.96 290.796 162.152 291.308 162.536C291.26 162.856 291.212 163.224 291.164 163.64C291.132 164.04 291.108 164.448 291.092 164.864C291.092 165.28 291.1 165.664 291.116 166.016C290.876 166.112 290.556 166.184 290.156 166.232C289.772 166.28 289.428 166.304 289.124 166.304C289.108 165.664 289.012 165.224 288.836 164.984C288.66 164.728 288.412 164.6 288.092 164.6C287.852 164.6 287.596 164.744 287.324 165.032C287.052 165.304 286.82 165.672 286.628 166.136C286.452 166.584 286.364 167.072 286.364 167.6L285.836 165.848ZM282.932 167.984V165.896C282.932 165.432 282.892 165.072 282.812 164.816C282.748 164.544 282.588 164.344 282.332 164.216C282.092 164.072 281.708 163.984 281.18 163.952C281.18 163.712 281.196 163.48 281.228 163.256C281.276 163.016 281.356 162.792 281.468 162.584C282.316 162.584 283.132 162.504 283.916 162.344C284.716 162.168 285.3 161.984 285.668 161.792C285.892 161.872 286.06 162.016 286.172 162.224C286.3 162.416 286.364 162.704 286.364 163.088L282.932 167.984ZM297.13 173.216C296.026 173.216 295.194 172.928 294.634 172.352C294.074 171.776 293.794 170.808 293.794 169.448V164.048C293.538 163.952 293.274 163.88 293.002 163.832C292.73 163.784 292.402 163.752 292.018 163.736C292.018 163.448 292.034 163.192 292.066 162.968C292.114 162.744 292.194 162.504 292.306 162.248H293.794V159.296C294.322 159.216 294.842 159.072 295.354 158.864C295.866 158.64 296.29 158.392 296.626 158.12C296.85 158.216 297.002 158.352 297.082 158.528C297.162 158.704 297.202 159.056 297.202 159.584V162.248H300.154C300.154 162.536 300.138 162.808 300.106 163.064C300.074 163.304 300.018 163.536 299.938 163.76C299.394 163.76 298.898 163.792 298.45 163.856C298.002 163.92 297.586 164.008 297.202 164.12V169.04C297.202 169.68 297.242 170.184 297.322 170.552C297.418 170.904 297.562 171.152 297.754 171.296C297.946 171.44 298.178 171.512 298.45 171.512C298.722 171.512 298.978 171.48 299.218 171.416C299.474 171.336 299.714 171.232 299.938 171.104C300.162 171.392 300.282 171.784 300.298 172.28C299.978 172.552 299.522 172.776 298.93 172.952C298.354 173.128 297.754 173.216 297.13 173.216ZM309.49 173.216C309.218 173.104 309.026 172.944 308.914 172.736C308.802 172.512 308.746 172.208 308.746 171.824C308.746 171.632 308.762 171.408 308.794 171.152C308.826 170.88 308.882 170.624 308.962 170.384L309.034 170.312C308.922 170.728 308.762 171.112 308.554 171.464C308.346 171.8 308.098 172.08 307.81 172.304C307.49 172.592 307.098 172.808 306.634 172.952C306.186 173.096 305.65 173.168 305.026 173.168C303.954 173.168 303.122 172.936 302.53 172.472C301.938 172.008 301.642 171.344 301.642 170.48C301.642 169.872 301.778 169.352 302.05 168.92C302.338 168.472 302.722 168.096 303.202 167.792C303.682 167.488 304.218 167.24 304.81 167.048C305.402 166.856 306.002 166.704 306.61 166.592C307.234 166.48 307.818 166.384 308.362 166.304C308.362 165.84 308.346 165.456 308.314 165.152C308.298 164.832 308.25 164.568 308.17 164.36C308.106 164.136 307.994 163.944 307.834 163.784C307.658 163.56 307.45 163.408 307.21 163.328C306.986 163.232 306.746 163.184 306.49 163.184C306.042 163.184 305.682 163.32 305.41 163.592C305.154 163.848 304.962 164.184 304.834 164.6C304.706 165.016 304.626 165.44 304.594 165.872C304.21 165.872 303.85 165.856 303.514 165.824C303.178 165.792 302.882 165.728 302.626 165.632C302.658 165.2 302.666 164.736 302.65 164.24C302.634 163.744 302.578 163.248 302.482 162.752C303.154 162.448 303.922 162.208 304.786 162.032C305.666 161.856 306.49 161.768 307.258 161.768C308.17 161.768 308.906 161.88 309.466 162.104C310.026 162.312 310.45 162.56 310.738 162.848C311.074 163.2 311.33 163.68 311.506 164.288C311.698 164.88 311.794 165.736 311.794 166.856V168.944C311.794 169.456 311.826 169.856 311.89 170.144C311.954 170.416 312.082 170.608 312.274 170.72C312.482 170.832 312.794 170.896 313.21 170.912C313.242 171.168 313.242 171.432 313.21 171.704C313.178 171.96 313.106 172.2 312.994 172.424C312.418 172.44 311.818 172.52 311.194 172.664C310.586 172.792 310.018 172.976 309.49 173.216ZM306.226 171.176C306.546 171.176 306.874 171.072 307.21 170.864C307.546 170.64 307.818 170.312 308.026 169.88C308.25 169.448 308.362 168.896 308.362 168.224V167.576C307.898 167.656 307.458 167.752 307.042 167.864C306.642 167.976 306.29 168.12 305.986 168.296C305.698 168.456 305.474 168.664 305.314 168.92C305.154 169.16 305.074 169.464 305.074 169.832C305.074 170.312 305.186 170.656 305.41 170.864C305.65 171.072 305.922 171.176 306.226 171.176ZM314.527 173.072C314.527 172.784 314.535 172.52 314.551 172.28C314.583 172.024 314.631 171.8 314.695 171.608C315.335 171.592 315.759 171.44 315.967 171.152C316.191 170.864 316.303 170.32 316.303 169.52V159.536C316.303 159.184 316.255 158.904 316.159 158.696C316.063 158.472 315.887 158.304 315.631 158.192C315.375 158.064 314.999 157.984 314.503 157.952C314.503 157.712 314.519 157.48 314.551 157.256C314.599 157.016 314.671 156.792 314.767 156.584C315.311 156.584 315.863 156.544 316.423 156.464C316.999 156.384 317.519 156.288 317.983 156.176C318.447 156.048 318.791 155.92 319.015 155.792C319.223 155.872 319.391 156.016 319.519 156.224C319.647 156.416 319.711 156.696 319.711 157.064V169.52C319.711 170.32 319.815 170.864 320.023 171.152C320.231 171.44 320.631 171.592 321.223 171.608C321.287 171.8 321.327 172.032 321.343 172.304C321.359 172.56 321.367 172.816 321.367 173.072C321.143 173.056 320.839 173.04 320.455 173.024C320.087 173.024 319.687 173.016 319.255 173C318.823 173 318.391 173 317.959 173C317.527 173 317.087 173 316.639 173C316.191 173.016 315.783 173.024 315.415 173.024C315.047 173.04 314.751 173.056 314.527 173.072Z" fill="#2F3E46"/>
<rect x="0.5" y="0.5" width="370" height="454" stroke="black"/>
</g>
<defs>
<filter id="filter0_d_9_25" x="0" y="0" width="379" height="463" filterUnits="userSpaceOnUse" color-interpolation-filters="sRGB">
<feFlood flood-opacity="0" result="BackgroundImageFix"/>
<feColorMatrix in="SourceAlpha" type="matrix" values="0 0 0 0 0 0 0 0 0 0 0 0 0 0 0 0 0 0 127 0" result="hardAlpha"/>
<feOffset dx="8" dy="8"/>
<feComposite in2="hardAlpha" operator="out"/>
<feColorMatrix type="matrix" values="0 0 0 0 0.207843 0 0 0 0 0.309804 0 0 0 0 0.321569 0 0 0 1 0"/>
<feBlend mode="normal" in2="BackgroundImageFix" result="effect1_dropShadow_9_25"/>
<feBlend mode="normal" in="SourceGraphic" in2="effect1_dropShadow_9_25" result="shape"/>
</filter>
</defs>
</svg>
